%TF.GenerationSoftware,KiCad,Pcbnew,6.0.5-a6ca702e91~116~ubuntu22.04.1*%
%TF.CreationDate,2022-06-08T16:41:22-07:00*%
%TF.ProjectId,HEAR,48454152-2e6b-4696-9361-645f70636258,2.1*%
%TF.SameCoordinates,Original*%
%TF.FileFunction,Legend,Top*%
%TF.FilePolarity,Positive*%
%FSLAX46Y46*%
G04 Gerber Fmt 4.6, Leading zero omitted, Abs format (unit mm)*
G04 Created by KiCad (PCBNEW 6.0.5-a6ca702e91~116~ubuntu22.04.1) date 2022-06-08 16:41:22*
%MOMM*%
%LPD*%
G01*
G04 APERTURE LIST*
G04 Aperture macros list*
%AMRoundRect*
0 Rectangle with rounded corners*
0 $1 Rounding radius*
0 $2 $3 $4 $5 $6 $7 $8 $9 X,Y pos of 4 corners*
0 Add a 4 corners polygon primitive as box body*
4,1,4,$2,$3,$4,$5,$6,$7,$8,$9,$2,$3,0*
0 Add four circle primitives for the rounded corners*
1,1,$1+$1,$2,$3*
1,1,$1+$1,$4,$5*
1,1,$1+$1,$6,$7*
1,1,$1+$1,$8,$9*
0 Add four rect primitives between the rounded corners*
20,1,$1+$1,$2,$3,$4,$5,0*
20,1,$1+$1,$4,$5,$6,$7,0*
20,1,$1+$1,$6,$7,$8,$9,0*
20,1,$1+$1,$8,$9,$2,$3,0*%
G04 Aperture macros list end*
%ADD10C,0.300000*%
%ADD11C,0.150000*%
%ADD12C,0.120000*%
%ADD13O,3.300000X2.000000*%
%ADD14O,2.000000X3.300000*%
%ADD15O,3.000000X4.000000*%
%ADD16C,1.800000*%
%ADD17O,4.000000X5.400000*%
%ADD18C,2.500000*%
%ADD19RoundRect,0.250000X-0.600000X0.600000X-0.600000X-0.600000X0.600000X-0.600000X0.600000X0.600000X0*%
%ADD20C,1.700000*%
%ADD21R,1.700000X1.700000*%
%ADD22O,1.700000X1.700000*%
%ADD23C,1.600000*%
%ADD24O,1.600000X1.600000*%
G04 APERTURE END LIST*
D10*
X3242857Y-78178571D02*
X2528571Y-78178571D01*
X2528571Y-76678571D01*
X3742857Y-78178571D02*
X3742857Y-76678571D01*
X4457142Y-78178571D02*
X4457142Y-76678571D01*
X5314285Y-78178571D01*
X5314285Y-76678571D01*
X6028571Y-77392857D02*
X6528571Y-77392857D01*
X6742857Y-78178571D02*
X6028571Y-78178571D01*
X6028571Y-76678571D01*
X6742857Y-76678571D01*
X12498914Y-60621171D02*
X12998914Y-62121171D01*
X13498914Y-60621171D01*
X14284628Y-60621171D02*
X14570342Y-60621171D01*
X14713200Y-60692600D01*
X14856057Y-60835457D01*
X14927485Y-61121171D01*
X14927485Y-61621171D01*
X14856057Y-61906885D01*
X14713200Y-62049742D01*
X14570342Y-62121171D01*
X14284628Y-62121171D01*
X14141771Y-62049742D01*
X13998914Y-61906885D01*
X13927485Y-61621171D01*
X13927485Y-61121171D01*
X13998914Y-60835457D01*
X14141771Y-60692600D01*
X14284628Y-60621171D01*
X16284628Y-62121171D02*
X15570342Y-62121171D01*
X15570342Y-60621171D01*
X16784628Y-60621171D02*
X16784628Y-61835457D01*
X16856057Y-61978314D01*
X16927485Y-62049742D01*
X17070342Y-62121171D01*
X17356057Y-62121171D01*
X17498914Y-62049742D01*
X17570342Y-61978314D01*
X17641771Y-61835457D01*
X17641771Y-60621171D01*
X18356057Y-62121171D02*
X18356057Y-60621171D01*
X18856057Y-61692600D01*
X19356057Y-60621171D01*
X19356057Y-62121171D01*
X20070342Y-61335457D02*
X20570342Y-61335457D01*
X20784628Y-62121171D02*
X20070342Y-62121171D01*
X20070342Y-60621171D01*
X20784628Y-60621171D01*
X24770085Y-77536771D02*
X24770085Y-76036771D01*
X24770085Y-76751057D02*
X25627228Y-76751057D01*
X25627228Y-77536771D02*
X25627228Y-76036771D01*
X26341514Y-77536771D02*
X26341514Y-76036771D01*
X26912942Y-76036771D01*
X27055800Y-76108200D01*
X27127228Y-76179628D01*
X27198657Y-76322485D01*
X27198657Y-76536771D01*
X27127228Y-76679628D01*
X27055800Y-76751057D01*
X26912942Y-76822485D01*
X26341514Y-76822485D01*
X28770085Y-76036771D02*
X29270085Y-77536771D01*
X29770085Y-76036771D01*
X30555800Y-76036771D02*
X30841514Y-76036771D01*
X30984371Y-76108200D01*
X31127228Y-76251057D01*
X31198657Y-76536771D01*
X31198657Y-77036771D01*
X31127228Y-77322485D01*
X30984371Y-77465342D01*
X30841514Y-77536771D01*
X30555800Y-77536771D01*
X30412942Y-77465342D01*
X30270085Y-77322485D01*
X30198657Y-77036771D01*
X30198657Y-76536771D01*
X30270085Y-76251057D01*
X30412942Y-76108200D01*
X30555800Y-76036771D01*
X32555800Y-77536771D02*
X31841514Y-77536771D01*
X31841514Y-76036771D01*
X2000885Y-102885971D02*
X2000885Y-101385971D01*
X2000885Y-102100257D02*
X2858028Y-102100257D01*
X2858028Y-102885971D02*
X2858028Y-101385971D01*
X3572314Y-102100257D02*
X4072314Y-102100257D01*
X4286600Y-102885971D02*
X3572314Y-102885971D01*
X3572314Y-101385971D01*
X4286600Y-101385971D01*
X4858028Y-102457400D02*
X5572314Y-102457400D01*
X4715171Y-102885971D02*
X5215171Y-101385971D01*
X5715171Y-102885971D01*
X6215171Y-102885971D02*
X6215171Y-101385971D01*
X6572314Y-101385971D01*
X6786600Y-101457400D01*
X6929457Y-101600257D01*
X7000885Y-101743114D01*
X7072314Y-102028828D01*
X7072314Y-102243114D01*
X7000885Y-102528828D01*
X6929457Y-102671685D01*
X6786600Y-102814542D01*
X6572314Y-102885971D01*
X6215171Y-102885971D01*
X7715171Y-102885971D02*
X7715171Y-101385971D01*
X8286600Y-101385971D01*
X8429457Y-101457400D01*
X8500885Y-101528828D01*
X8572314Y-101671685D01*
X8572314Y-101885971D01*
X8500885Y-102028828D01*
X8429457Y-102100257D01*
X8286600Y-102171685D01*
X7715171Y-102171685D01*
X9215171Y-102885971D02*
X9215171Y-101385971D01*
X9215171Y-102100257D02*
X10072314Y-102100257D01*
X10072314Y-102885971D02*
X10072314Y-101385971D01*
X11072314Y-101385971D02*
X11358028Y-101385971D01*
X11500885Y-101457400D01*
X11643742Y-101600257D01*
X11715171Y-101885971D01*
X11715171Y-102385971D01*
X11643742Y-102671685D01*
X11500885Y-102814542D01*
X11358028Y-102885971D01*
X11072314Y-102885971D01*
X10929457Y-102814542D01*
X10786600Y-102671685D01*
X10715171Y-102385971D01*
X10715171Y-101885971D01*
X10786600Y-101600257D01*
X10929457Y-101457400D01*
X11072314Y-101385971D01*
X12358028Y-102885971D02*
X12358028Y-101385971D01*
X13215171Y-102885971D01*
X13215171Y-101385971D01*
X13929457Y-102100257D02*
X14429457Y-102100257D01*
X14643742Y-102885971D02*
X13929457Y-102885971D01*
X13929457Y-101385971D01*
X14643742Y-101385971D01*
X30258771Y-62121171D02*
X30258771Y-60621171D01*
X30830200Y-60621171D01*
X30973057Y-60692600D01*
X31044485Y-60764028D01*
X31115914Y-60906885D01*
X31115914Y-61121171D01*
X31044485Y-61264028D01*
X30973057Y-61335457D01*
X30830200Y-61406885D01*
X30258771Y-61406885D01*
X31687342Y-61692600D02*
X32401628Y-61692600D01*
X31544485Y-62121171D02*
X32044485Y-60621171D01*
X32544485Y-62121171D01*
X33044485Y-62121171D02*
X33044485Y-60621171D01*
X33901628Y-62121171D01*
X33901628Y-60621171D01*
X2644342Y-62248171D02*
X2644342Y-60748171D01*
X3358628Y-62248171D02*
X3358628Y-60748171D01*
X4215771Y-62248171D01*
X4215771Y-60748171D01*
X4930057Y-62248171D02*
X4930057Y-60748171D01*
X5501485Y-60748171D01*
X5644342Y-60819600D01*
X5715771Y-60891028D01*
X5787200Y-61033885D01*
X5787200Y-61248171D01*
X5715771Y-61391028D01*
X5644342Y-61462457D01*
X5501485Y-61533885D01*
X4930057Y-61533885D01*
X6430057Y-60748171D02*
X6430057Y-61962457D01*
X6501485Y-62105314D01*
X6572914Y-62176742D01*
X6715771Y-62248171D01*
X7001485Y-62248171D01*
X7144342Y-62176742D01*
X7215771Y-62105314D01*
X7287200Y-61962457D01*
X7287200Y-60748171D01*
X7787199Y-60748171D02*
X8644342Y-60748171D01*
X8215771Y-62248171D02*
X8215771Y-60748171D01*
D11*
%TO.C,J2*%
X2766666Y-17652380D02*
X2766666Y-18366666D01*
X2719047Y-18509523D01*
X2623809Y-18604761D01*
X2480952Y-18652380D01*
X2385714Y-18652380D01*
X3195238Y-17747619D02*
X3242857Y-17700000D01*
X3338095Y-17652380D01*
X3576190Y-17652380D01*
X3671428Y-17700000D01*
X3719047Y-17747619D01*
X3766666Y-17842857D01*
X3766666Y-17938095D01*
X3719047Y-18080952D01*
X3147619Y-18652380D01*
X3766666Y-18652380D01*
%TO.C,RV9*%
X26104761Y-47352380D02*
X25771428Y-46876190D01*
X25533333Y-47352380D02*
X25533333Y-46352380D01*
X25914285Y-46352380D01*
X26009523Y-46400000D01*
X26057142Y-46447619D01*
X26104761Y-46542857D01*
X26104761Y-46685714D01*
X26057142Y-46780952D01*
X26009523Y-46828571D01*
X25914285Y-46876190D01*
X25533333Y-46876190D01*
X26390476Y-46352380D02*
X26723809Y-47352380D01*
X27057142Y-46352380D01*
X27438095Y-47352380D02*
X27628571Y-47352380D01*
X27723809Y-47304761D01*
X27771428Y-47257142D01*
X27866666Y-47114285D01*
X27914285Y-46923809D01*
X27914285Y-46542857D01*
X27866666Y-46447619D01*
X27819047Y-46400000D01*
X27723809Y-46352380D01*
X27533333Y-46352380D01*
X27438095Y-46400000D01*
X27390476Y-46447619D01*
X27342857Y-46542857D01*
X27342857Y-46780952D01*
X27390476Y-46876190D01*
X27438095Y-46923809D01*
X27533333Y-46971428D01*
X27723809Y-46971428D01*
X27819047Y-46923809D01*
X27866666Y-46876190D01*
X27914285Y-46780952D01*
%TO.C,J1*%
X2766666Y-2652380D02*
X2766666Y-3366666D01*
X2719047Y-3509523D01*
X2623809Y-3604761D01*
X2480952Y-3652380D01*
X2385714Y-3652380D01*
X3766666Y-3652380D02*
X3195238Y-3652380D01*
X3480952Y-3652380D02*
X3480952Y-2652380D01*
X3385714Y-2795238D01*
X3290476Y-2890476D01*
X3195238Y-2938095D01*
%TO.C,J3*%
X2766666Y-32652380D02*
X2766666Y-33366666D01*
X2719047Y-33509523D01*
X2623809Y-33604761D01*
X2480952Y-33652380D01*
X2385714Y-33652380D01*
X3147619Y-32652380D02*
X3766666Y-32652380D01*
X3433333Y-33033333D01*
X3576190Y-33033333D01*
X3671428Y-33080952D01*
X3719047Y-33128571D01*
X3766666Y-33223809D01*
X3766666Y-33461904D01*
X3719047Y-33557142D01*
X3671428Y-33604761D01*
X3576190Y-33652380D01*
X3290476Y-33652380D01*
X3195238Y-33604761D01*
X3147619Y-33557142D01*
%TO.C,RV2*%
X12104761Y-2352380D02*
X11771428Y-1876190D01*
X11533333Y-2352380D02*
X11533333Y-1352380D01*
X11914285Y-1352380D01*
X12009523Y-1400000D01*
X12057142Y-1447619D01*
X12104761Y-1542857D01*
X12104761Y-1685714D01*
X12057142Y-1780952D01*
X12009523Y-1828571D01*
X11914285Y-1876190D01*
X11533333Y-1876190D01*
X12390476Y-1352380D02*
X12723809Y-2352380D01*
X13057142Y-1352380D01*
X13342857Y-1447619D02*
X13390476Y-1400000D01*
X13485714Y-1352380D01*
X13723809Y-1352380D01*
X13819047Y-1400000D01*
X13866666Y-1447619D01*
X13914285Y-1542857D01*
X13914285Y-1638095D01*
X13866666Y-1780952D01*
X13295238Y-2352380D01*
X13914285Y-2352380D01*
%TO.C,RV7*%
X26104761Y-17352380D02*
X25771428Y-16876190D01*
X25533333Y-17352380D02*
X25533333Y-16352380D01*
X25914285Y-16352380D01*
X26009523Y-16400000D01*
X26057142Y-16447619D01*
X26104761Y-16542857D01*
X26104761Y-16685714D01*
X26057142Y-16780952D01*
X26009523Y-16828571D01*
X25914285Y-16876190D01*
X25533333Y-16876190D01*
X26390476Y-16352380D02*
X26723809Y-17352380D01*
X27057142Y-16352380D01*
X27295238Y-16352380D02*
X27961904Y-16352380D01*
X27533333Y-17352380D01*
%TO.C,RV8*%
X26104761Y-32352380D02*
X25771428Y-31876190D01*
X25533333Y-32352380D02*
X25533333Y-31352380D01*
X25914285Y-31352380D01*
X26009523Y-31400000D01*
X26057142Y-31447619D01*
X26104761Y-31542857D01*
X26104761Y-31685714D01*
X26057142Y-31780952D01*
X26009523Y-31828571D01*
X25914285Y-31876190D01*
X25533333Y-31876190D01*
X26390476Y-31352380D02*
X26723809Y-32352380D01*
X27057142Y-31352380D01*
X27533333Y-31780952D02*
X27438095Y-31733333D01*
X27390476Y-31685714D01*
X27342857Y-31590476D01*
X27342857Y-31542857D01*
X27390476Y-31447619D01*
X27438095Y-31400000D01*
X27533333Y-31352380D01*
X27723809Y-31352380D01*
X27819047Y-31400000D01*
X27866666Y-31447619D01*
X27914285Y-31542857D01*
X27914285Y-31590476D01*
X27866666Y-31685714D01*
X27819047Y-31733333D01*
X27723809Y-31780952D01*
X27533333Y-31780952D01*
X27438095Y-31828571D01*
X27390476Y-31876190D01*
X27342857Y-31971428D01*
X27342857Y-32161904D01*
X27390476Y-32257142D01*
X27438095Y-32304761D01*
X27533333Y-32352380D01*
X27723809Y-32352380D01*
X27819047Y-32304761D01*
X27866666Y-32257142D01*
X27914285Y-32161904D01*
X27914285Y-31971428D01*
X27866666Y-31876190D01*
X27819047Y-31828571D01*
X27723809Y-31780952D01*
%TO.C,RV1*%
X20604761Y-79852380D02*
X20271428Y-79376190D01*
X20033333Y-79852380D02*
X20033333Y-78852380D01*
X20414285Y-78852380D01*
X20509523Y-78900000D01*
X20557142Y-78947619D01*
X20604761Y-79042857D01*
X20604761Y-79185714D01*
X20557142Y-79280952D01*
X20509523Y-79328571D01*
X20414285Y-79376190D01*
X20033333Y-79376190D01*
X20890476Y-78852380D02*
X21223809Y-79852380D01*
X21557142Y-78852380D01*
X22414285Y-79852380D02*
X21842857Y-79852380D01*
X22128571Y-79852380D02*
X22128571Y-78852380D01*
X22033333Y-78995238D01*
X21938095Y-79090476D01*
X21842857Y-79138095D01*
%TO.C,RV4*%
X12104761Y-32352380D02*
X11771428Y-31876190D01*
X11533333Y-32352380D02*
X11533333Y-31352380D01*
X11914285Y-31352380D01*
X12009523Y-31400000D01*
X12057142Y-31447619D01*
X12104761Y-31542857D01*
X12104761Y-31685714D01*
X12057142Y-31780952D01*
X12009523Y-31828571D01*
X11914285Y-31876190D01*
X11533333Y-31876190D01*
X12390476Y-31352380D02*
X12723809Y-32352380D01*
X13057142Y-31352380D01*
X13819047Y-31685714D02*
X13819047Y-32352380D01*
X13580952Y-31304761D02*
X13342857Y-32019047D01*
X13961904Y-32019047D01*
%TO.C,J13*%
X1152380Y-80509523D02*
X1866666Y-80509523D01*
X2009523Y-80557142D01*
X2104761Y-80652380D01*
X2152380Y-80795238D01*
X2152380Y-80890476D01*
X2152380Y-79509523D02*
X2152380Y-80080952D01*
X2152380Y-79795238D02*
X1152380Y-79795238D01*
X1295238Y-79890476D01*
X1390476Y-79985714D01*
X1438095Y-80080952D01*
X1152380Y-79176190D02*
X1152380Y-78557142D01*
X1533333Y-78890476D01*
X1533333Y-78747619D01*
X1580952Y-78652380D01*
X1628571Y-78604761D01*
X1723809Y-78557142D01*
X1961904Y-78557142D01*
X2057142Y-78604761D01*
X2104761Y-78652380D01*
X2152380Y-78747619D01*
X2152380Y-79033333D01*
X2104761Y-79128571D01*
X2057142Y-79176190D01*
%TO.C,RV3*%
X12104761Y-17352380D02*
X11771428Y-16876190D01*
X11533333Y-17352380D02*
X11533333Y-16352380D01*
X11914285Y-16352380D01*
X12009523Y-16400000D01*
X12057142Y-16447619D01*
X12104761Y-16542857D01*
X12104761Y-16685714D01*
X12057142Y-16780952D01*
X12009523Y-16828571D01*
X11914285Y-16876190D01*
X11533333Y-16876190D01*
X12390476Y-16352380D02*
X12723809Y-17352380D01*
X13057142Y-16352380D01*
X13295238Y-16352380D02*
X13914285Y-16352380D01*
X13580952Y-16733333D01*
X13723809Y-16733333D01*
X13819047Y-16780952D01*
X13866666Y-16828571D01*
X13914285Y-16923809D01*
X13914285Y-17161904D01*
X13866666Y-17257142D01*
X13819047Y-17304761D01*
X13723809Y-17352380D01*
X13438095Y-17352380D01*
X13342857Y-17304761D01*
X13295238Y-17257142D01*
%TO.C,RV5*%
X12104761Y-47352380D02*
X11771428Y-46876190D01*
X11533333Y-47352380D02*
X11533333Y-46352380D01*
X11914285Y-46352380D01*
X12009523Y-46400000D01*
X12057142Y-46447619D01*
X12104761Y-46542857D01*
X12104761Y-46685714D01*
X12057142Y-46780952D01*
X12009523Y-46828571D01*
X11914285Y-46876190D01*
X11533333Y-46876190D01*
X12390476Y-46352380D02*
X12723809Y-47352380D01*
X13057142Y-46352380D01*
X13866666Y-46352380D02*
X13390476Y-46352380D01*
X13342857Y-46828571D01*
X13390476Y-46780952D01*
X13485714Y-46733333D01*
X13723809Y-46733333D01*
X13819047Y-46780952D01*
X13866666Y-46828571D01*
X13914285Y-46923809D01*
X13914285Y-47161904D01*
X13866666Y-47257142D01*
X13819047Y-47304761D01*
X13723809Y-47352380D01*
X13485714Y-47352380D01*
X13390476Y-47304761D01*
X13342857Y-47257142D01*
%TO.C,RV6*%
X26104761Y-2352380D02*
X25771428Y-1876190D01*
X25533333Y-2352380D02*
X25533333Y-1352380D01*
X25914285Y-1352380D01*
X26009523Y-1400000D01*
X26057142Y-1447619D01*
X26104761Y-1542857D01*
X26104761Y-1685714D01*
X26057142Y-1780952D01*
X26009523Y-1828571D01*
X25914285Y-1876190D01*
X25533333Y-1876190D01*
X26390476Y-1352380D02*
X26723809Y-2352380D01*
X27057142Y-1352380D01*
X27819047Y-1352380D02*
X27628571Y-1352380D01*
X27533333Y-1400000D01*
X27485714Y-1447619D01*
X27390476Y-1590476D01*
X27342857Y-1780952D01*
X27342857Y-2161904D01*
X27390476Y-2257142D01*
X27438095Y-2304761D01*
X27533333Y-2352380D01*
X27723809Y-2352380D01*
X27819047Y-2304761D01*
X27866666Y-2257142D01*
X27914285Y-2161904D01*
X27914285Y-1923809D01*
X27866666Y-1828571D01*
X27819047Y-1780952D01*
X27723809Y-1733333D01*
X27533333Y-1733333D01*
X27438095Y-1780952D01*
X27390476Y-1828571D01*
X27342857Y-1923809D01*
%TO.C,J4*%
X2766666Y-47652380D02*
X2766666Y-48366666D01*
X2719047Y-48509523D01*
X2623809Y-48604761D01*
X2480952Y-48652380D01*
X2385714Y-48652380D01*
X3671428Y-47985714D02*
X3671428Y-48652380D01*
X3433333Y-47604761D02*
X3195238Y-48319047D01*
X3814285Y-48319047D01*
%TO.C,J14*%
X1347619Y-97090476D02*
X633333Y-97090476D01*
X490476Y-97042857D01*
X395238Y-96947619D01*
X347619Y-96804761D01*
X347619Y-96709523D01*
X347619Y-98090476D02*
X347619Y-97519047D01*
X347619Y-97804761D02*
X1347619Y-97804761D01*
X1204761Y-97709523D01*
X1109523Y-97614285D01*
X1061904Y-97519047D01*
X1014285Y-98947619D02*
X347619Y-98947619D01*
X1395238Y-98709523D02*
X680952Y-98471428D01*
X680952Y-99090476D01*
D12*
%TO.C,J2*%
X1000000Y-19100000D02*
X10000000Y-19100000D01*
X1000000Y-28720000D02*
X1817000Y-29734000D01*
X1000000Y-19100000D02*
X1000000Y-22900000D01*
X10000000Y-28718000D02*
X9183000Y-29734000D01*
X9183000Y-29734000D02*
X1817000Y-29734000D01*
X10000000Y-19100000D02*
X10000000Y-28718000D01*
X1000000Y-28720000D02*
X1000000Y-25900000D01*
X7315240Y-27990122D02*
G75*
G03*
X7100000Y-21300001I-1815239J3290122D01*
G01*
X3976827Y-21247473D02*
G75*
G03*
X2300000Y-22700000I1523163J-3452517D01*
G01*
X2060834Y-26217279D02*
G75*
G03*
X3700000Y-28000000I3439172J1517284D01*
G01*
%TO.C,RV9*%
X33629000Y-47780000D02*
X32870000Y-47780000D01*
X28630000Y-47780000D02*
X27030000Y-47780000D01*
X27030000Y-56155000D02*
X27030000Y-60020000D01*
X36970000Y-60020000D02*
X27030000Y-60020000D01*
X36970000Y-56155000D02*
X36970000Y-60020000D01*
X31129000Y-47780000D02*
X30370000Y-47780000D01*
X36970000Y-47780000D02*
X35371000Y-47780000D01*
X27030000Y-47780000D02*
X27030000Y-51645000D01*
X36970000Y-47780000D02*
X36970000Y-51645000D01*
%TO.C,J1*%
X9183000Y-14734000D02*
X1817000Y-14734000D01*
X1000000Y-4100000D02*
X1000000Y-7900000D01*
X1000000Y-4100000D02*
X10000000Y-4100000D01*
X10000000Y-4100000D02*
X10000000Y-13718000D01*
X10000000Y-13718000D02*
X9183000Y-14734000D01*
X1000000Y-13720000D02*
X1817000Y-14734000D01*
X1000000Y-13720000D02*
X1000000Y-10900000D01*
X2060834Y-11217279D02*
G75*
G03*
X3700000Y-13000000I3439172J1517284D01*
G01*
X3976827Y-6247473D02*
G75*
G03*
X2300000Y-7700000I1523163J-3452517D01*
G01*
X7315240Y-12990122D02*
G75*
G03*
X7100000Y-6300001I-1815239J3290122D01*
G01*
%TO.C,J3*%
X1000000Y-43720000D02*
X1817000Y-44734000D01*
X10000000Y-43718000D02*
X9183000Y-44734000D01*
X10000000Y-34100000D02*
X10000000Y-43718000D01*
X1000000Y-34100000D02*
X1000000Y-37900000D01*
X9183000Y-44734000D02*
X1817000Y-44734000D01*
X1000000Y-43720000D02*
X1000000Y-40900000D01*
X1000000Y-34100000D02*
X10000000Y-34100000D01*
X2060834Y-41217279D02*
G75*
G03*
X3700000Y-43000000I3439172J1517284D01*
G01*
X3976827Y-36247473D02*
G75*
G03*
X2300000Y-37700000I1523163J-3452517D01*
G01*
X7315240Y-42990122D02*
G75*
G03*
X7100000Y-36300001I-1815239J3290122D01*
G01*
%TO.C,RV2*%
X14630000Y-2780000D02*
X13030000Y-2780000D01*
X19629000Y-2780000D02*
X18870000Y-2780000D01*
X22970000Y-15020000D02*
X13030000Y-15020000D01*
X13030000Y-2780000D02*
X13030000Y-6645000D01*
X22970000Y-2780000D02*
X22970000Y-6645000D01*
X13030000Y-11155000D02*
X13030000Y-15020000D01*
X22970000Y-11155000D02*
X22970000Y-15020000D01*
X22970000Y-2780000D02*
X21371000Y-2780000D01*
X17129000Y-2780000D02*
X16370000Y-2780000D01*
%TO.C,RV7*%
X27030000Y-26155000D02*
X27030000Y-30020000D01*
X36970000Y-26155000D02*
X36970000Y-30020000D01*
X36970000Y-17780000D02*
X35371000Y-17780000D01*
X36970000Y-17780000D02*
X36970000Y-21645000D01*
X27030000Y-17780000D02*
X27030000Y-21645000D01*
X36970000Y-30020000D02*
X27030000Y-30020000D01*
X31129000Y-17780000D02*
X30370000Y-17780000D01*
X33629000Y-17780000D02*
X32870000Y-17780000D01*
X28630000Y-17780000D02*
X27030000Y-17780000D01*
%TO.C,RV8*%
X36970000Y-32780000D02*
X36970000Y-36645000D01*
X36970000Y-45020000D02*
X27030000Y-45020000D01*
X36970000Y-32780000D02*
X35371000Y-32780000D01*
X27030000Y-41155000D02*
X27030000Y-45020000D01*
X28630000Y-32780000D02*
X27030000Y-32780000D01*
X31129000Y-32780000D02*
X30370000Y-32780000D01*
X33629000Y-32780000D02*
X32870000Y-32780000D01*
X36970000Y-41155000D02*
X36970000Y-45020000D01*
X27030000Y-32780000D02*
X27030000Y-36645000D01*
%TO.C,RV1*%
X22100000Y-93650000D02*
X22100000Y-104200000D01*
X32200000Y-104200000D02*
X30100000Y-104200000D01*
X27100000Y-104200000D02*
X25100000Y-104200000D01*
X35100000Y-104200000D02*
X35100000Y-93440000D01*
X36484943Y-84533524D02*
G75*
G03*
X20770001Y-84400000I-7884943J-3166476D01*
G01*
X20655057Y-90866476D02*
G75*
G03*
X36369999Y-91000000I7884943J3166476D01*
G01*
X32100000Y-87700000D02*
G75*
G03*
X32100000Y-87700000I-3500000J0D01*
G01*
%TO.C,RV4*%
X22970000Y-32780000D02*
X21371000Y-32780000D01*
X19629000Y-32780000D02*
X18870000Y-32780000D01*
X22970000Y-41155000D02*
X22970000Y-45020000D01*
X22970000Y-45020000D02*
X13030000Y-45020000D01*
X17129000Y-32780000D02*
X16370000Y-32780000D01*
X22970000Y-32780000D02*
X22970000Y-36645000D01*
X14630000Y-32780000D02*
X13030000Y-32780000D01*
X13030000Y-41155000D02*
X13030000Y-45020000D01*
X13030000Y-32780000D02*
X13030000Y-36645000D01*
%TO.C,J13*%
X11183000Y-89334000D02*
X3817000Y-89334000D01*
X3000000Y-78700000D02*
X3000000Y-82500000D01*
X3000000Y-88320000D02*
X3000000Y-85500000D01*
X3000000Y-88320000D02*
X3817000Y-89334000D01*
X12000000Y-88318000D02*
X11183000Y-89334000D01*
X12000000Y-78700000D02*
X12000000Y-88318000D01*
X3000000Y-78700000D02*
X12000000Y-78700000D01*
X4060834Y-85817279D02*
G75*
G03*
X5700000Y-87600000I3439172J1517284D01*
G01*
X5976827Y-80847473D02*
G75*
G03*
X4300000Y-82300000I1523163J-3452517D01*
G01*
X9315240Y-87590122D02*
G75*
G03*
X9100000Y-80900001I-1815239J3290122D01*
G01*
%TO.C,RV3*%
X13030000Y-26155000D02*
X13030000Y-30020000D01*
X13030000Y-17780000D02*
X13030000Y-21645000D01*
X14630000Y-17780000D02*
X13030000Y-17780000D01*
X22970000Y-17780000D02*
X22970000Y-21645000D01*
X22970000Y-17780000D02*
X21371000Y-17780000D01*
X19629000Y-17780000D02*
X18870000Y-17780000D01*
X22970000Y-30020000D02*
X13030000Y-30020000D01*
X17129000Y-17780000D02*
X16370000Y-17780000D01*
X22970000Y-26155000D02*
X22970000Y-30020000D01*
%TO.C,RV5*%
X22970000Y-60020000D02*
X13030000Y-60020000D01*
X14630000Y-47780000D02*
X13030000Y-47780000D01*
X13030000Y-56155000D02*
X13030000Y-60020000D01*
X22970000Y-47780000D02*
X22970000Y-51645000D01*
X22970000Y-56155000D02*
X22970000Y-60020000D01*
X19629000Y-47780000D02*
X18870000Y-47780000D01*
X17129000Y-47780000D02*
X16370000Y-47780000D01*
X13030000Y-47780000D02*
X13030000Y-51645000D01*
X22970000Y-47780000D02*
X21371000Y-47780000D01*
%TO.C,RV6*%
X36970000Y-2780000D02*
X35371000Y-2780000D01*
X27030000Y-2780000D02*
X27030000Y-6645000D01*
X27030000Y-11155000D02*
X27030000Y-15020000D01*
X31129000Y-2780000D02*
X30370000Y-2780000D01*
X33629000Y-2780000D02*
X32870000Y-2780000D01*
X28630000Y-2780000D02*
X27030000Y-2780000D01*
X36970000Y-11155000D02*
X36970000Y-15020000D01*
X36970000Y-2780000D02*
X36970000Y-6645000D01*
X36970000Y-15020000D02*
X27030000Y-15020000D01*
%TO.C,J4*%
X10000000Y-58718000D02*
X9183000Y-59734000D01*
X1000000Y-58720000D02*
X1000000Y-55900000D01*
X1000000Y-58720000D02*
X1817000Y-59734000D01*
X1000000Y-49100000D02*
X1000000Y-52900000D01*
X1000000Y-49100000D02*
X10000000Y-49100000D01*
X10000000Y-49100000D02*
X10000000Y-58718000D01*
X9183000Y-59734000D02*
X1817000Y-59734000D01*
X3976827Y-51247473D02*
G75*
G03*
X2300000Y-52700000I1523163J-3452517D01*
G01*
X7315240Y-57990122D02*
G75*
G03*
X7100000Y-51300001I-1815239J3290122D01*
G01*
X2060834Y-56217279D02*
G75*
G03*
X3700000Y-58000000I3439172J1517284D01*
G01*
%TO.C,J14*%
X11318000Y-91000000D02*
X12334000Y-91817000D01*
X12334000Y-91817000D02*
X12334000Y-99183000D01*
X11320000Y-100000000D02*
X8500000Y-100000000D01*
X11320000Y-100000000D02*
X12334000Y-99183000D01*
X1700000Y-100000000D02*
X5500000Y-100000000D01*
X1700000Y-91000000D02*
X11318000Y-91000000D01*
X1700000Y-100000000D02*
X1700000Y-91000000D01*
X10590122Y-93684760D02*
G75*
G03*
X3900001Y-93900000I-3290122J-1815239D01*
G01*
X3847473Y-97023173D02*
G75*
G03*
X5300000Y-98700000I3452517J1523163D01*
G01*
X8817279Y-98939166D02*
G75*
G03*
X10600000Y-97300000I-1517284J3439172D01*
G01*
%TD*%
%LPC*%
D13*
%TO.C,J2*%
X5500000Y-28400000D03*
D14*
X1800000Y-24400000D03*
D13*
X5500000Y-20400000D03*
%TD*%
D15*
%TO.C,RV9*%
X27034000Y-53900000D03*
X36966000Y-53900000D03*
D16*
X29500000Y-46900000D03*
X32000000Y-46900000D03*
X34500000Y-46900000D03*
%TD*%
D13*
%TO.C,J1*%
X5500000Y-13400000D03*
D14*
X1800000Y-9400000D03*
D13*
X5500000Y-5400000D03*
%TD*%
%TO.C,J3*%
X5500000Y-43400000D03*
D14*
X1800000Y-39400000D03*
D13*
X5500000Y-35400000D03*
%TD*%
D15*
%TO.C,RV2*%
X13034000Y-8900000D03*
X22966000Y-8900000D03*
D16*
X15500000Y-1900000D03*
X18000000Y-1900000D03*
X20500000Y-1900000D03*
%TD*%
D15*
%TO.C,RV7*%
X36966000Y-23900000D03*
X27034000Y-23900000D03*
D16*
X29500000Y-16900000D03*
X32000000Y-16900000D03*
X34500000Y-16900000D03*
%TD*%
D15*
%TO.C,RV8*%
X27034000Y-38900000D03*
X36966000Y-38900000D03*
D16*
X29500000Y-31900000D03*
X32000000Y-31900000D03*
X34500000Y-31900000D03*
%TD*%
D17*
%TO.C,RV1*%
X36100000Y-87700000D03*
X21100000Y-87700000D03*
D18*
X33600000Y-99200000D03*
X28600000Y-99200000D03*
X23600000Y-99200000D03*
X33600000Y-104200000D03*
X28600000Y-104200000D03*
X23600000Y-104200000D03*
%TD*%
D15*
%TO.C,RV4*%
X22966000Y-38900000D03*
X13034000Y-38900000D03*
D16*
X15500000Y-31900000D03*
X18000000Y-31900000D03*
X20500000Y-31900000D03*
%TD*%
D13*
%TO.C,J13*%
X7500000Y-88000000D03*
D14*
X3800000Y-84000000D03*
D13*
X7500000Y-80000000D03*
%TD*%
D15*
%TO.C,RV3*%
X13034000Y-23900000D03*
X22966000Y-23900000D03*
D16*
X15500000Y-16900000D03*
X18000000Y-16900000D03*
X20500000Y-16900000D03*
%TD*%
D15*
%TO.C,RV5*%
X13034000Y-53900000D03*
X22966000Y-53900000D03*
D16*
X15500000Y-46900000D03*
X18000000Y-46900000D03*
X20500000Y-46900000D03*
%TD*%
D15*
%TO.C,RV6*%
X36966000Y-8900000D03*
X27034000Y-8900000D03*
D16*
X29500000Y-1900000D03*
X32000000Y-1900000D03*
X34500000Y-1900000D03*
%TD*%
D13*
%TO.C,J4*%
X5500000Y-58400000D03*
D14*
X1800000Y-54400000D03*
D13*
X5500000Y-50400000D03*
%TD*%
D14*
%TO.C,J14*%
X11000000Y-95500000D03*
D13*
X7000000Y-99200000D03*
D14*
X3000000Y-95500000D03*
%TD*%
D19*
%TO.C,J12*%
X6045200Y-64800000D03*
D20*
X6045200Y-67340000D03*
X8585200Y-64800000D03*
X8585200Y-67340000D03*
X11125200Y-64800000D03*
X11125200Y-67340000D03*
X13665200Y-64800000D03*
X13665200Y-67340000D03*
X16205200Y-64800000D03*
X16205200Y-67340000D03*
%TD*%
D21*
%TO.C,J5*%
X30429200Y-69062600D03*
D22*
X32969200Y-69062600D03*
X35509200Y-69062600D03*
%TD*%
D23*
%TO.C,R2*%
X37287200Y-102180600D03*
D24*
X37287200Y-104720600D03*
%TD*%
D21*
%TO.C,J6*%
X30444200Y-63855600D03*
D22*
X32984200Y-63855600D03*
X35524200Y-63855600D03*
%TD*%
D23*
%TO.C,R4*%
X37287200Y-98936600D03*
D24*
X37287200Y-96396600D03*
%TD*%
M02*
