%TF.GenerationSoftware,KiCad,Pcbnew,6.0.5-a6ca702e91~116~ubuntu22.04.1*%
%TF.CreationDate,2022-06-08T16:41:22-07:00*%
%TF.ProjectId,HEAR,48454152-2e6b-4696-9361-645f70636258,2.1*%
%TF.SameCoordinates,Original*%
%TF.FileFunction,Legend,Bot*%
%TF.FilePolarity,Positive*%
%FSLAX46Y46*%
G04 Gerber Fmt 4.6, Leading zero omitted, Abs format (unit mm)*
G04 Created by KiCad (PCBNEW 6.0.5-a6ca702e91~116~ubuntu22.04.1) date 2022-06-08 16:41:22*
%MOMM*%
%LPD*%
G01*
G04 APERTURE LIST*
G04 Aperture macros list*
%AMRoundRect*
0 Rectangle with rounded corners*
0 $1 Rounding radius*
0 $2 $3 $4 $5 $6 $7 $8 $9 X,Y pos of 4 corners*
0 Add a 4 corners polygon primitive as box body*
4,1,4,$2,$3,$4,$5,$6,$7,$8,$9,$2,$3,0*
0 Add four circle primitives for the rounded corners*
1,1,$1+$1,$2,$3*
1,1,$1+$1,$4,$5*
1,1,$1+$1,$6,$7*
1,1,$1+$1,$8,$9*
0 Add four rect primitives between the rounded corners*
20,1,$1+$1,$2,$3,$4,$5,0*
20,1,$1+$1,$4,$5,$6,$7,0*
20,1,$1+$1,$6,$7,$8,$9,0*
20,1,$1+$1,$8,$9,$2,$3,0*%
G04 Aperture macros list end*
%ADD10C,0.150000*%
%ADD11C,0.200000*%
%ADD12C,0.120000*%
%ADD13O,3.300000X2.000000*%
%ADD14O,2.000000X3.300000*%
%ADD15O,3.000000X4.000000*%
%ADD16C,1.800000*%
%ADD17O,4.000000X5.400000*%
%ADD18C,2.500000*%
%ADD19RoundRect,0.250000X0.412500X0.650000X-0.412500X0.650000X-0.412500X-0.650000X0.412500X-0.650000X0*%
%ADD20RoundRect,0.237500X0.300000X0.237500X-0.300000X0.237500X-0.300000X-0.237500X0.300000X-0.237500X0*%
%ADD21RoundRect,0.237500X-0.300000X-0.237500X0.300000X-0.237500X0.300000X0.237500X-0.300000X0.237500X0*%
%ADD22RoundRect,0.237500X0.237500X-0.300000X0.237500X0.300000X-0.237500X0.300000X-0.237500X-0.300000X0*%
%ADD23R,1.000000X1.000000*%
%ADD24RoundRect,0.237500X-0.250000X-0.237500X0.250000X-0.237500X0.250000X0.237500X-0.250000X0.237500X0*%
%ADD25RoundRect,0.237500X0.250000X0.237500X-0.250000X0.237500X-0.250000X-0.237500X0.250000X-0.237500X0*%
%ADD26RoundRect,0.237500X-0.237500X0.250000X-0.237500X-0.250000X0.237500X-0.250000X0.237500X0.250000X0*%
%ADD27RoundRect,0.150000X-0.150000X0.825000X-0.150000X-0.825000X0.150000X-0.825000X0.150000X0.825000X0*%
%ADD28RoundRect,0.250000X-0.600000X0.600000X-0.600000X-0.600000X0.600000X-0.600000X0.600000X0.600000X0*%
%ADD29C,1.700000*%
%ADD30RoundRect,0.250000X0.650000X-0.412500X0.650000X0.412500X-0.650000X0.412500X-0.650000X-0.412500X0*%
%ADD31RoundRect,0.250000X-0.400000X-0.625000X0.400000X-0.625000X0.400000X0.625000X-0.400000X0.625000X0*%
%ADD32R,1.700000X1.700000*%
%ADD33O,1.700000X1.700000*%
%ADD34RoundRect,0.250000X0.350000X0.450000X-0.350000X0.450000X-0.350000X-0.450000X0.350000X-0.450000X0*%
%ADD35RoundRect,0.250000X-0.450000X0.350000X-0.450000X-0.350000X0.450000X-0.350000X0.450000X0.350000X0*%
%ADD36RoundRect,0.250000X0.450000X-0.350000X0.450000X0.350000X-0.450000X0.350000X-0.450000X-0.350000X0*%
%ADD37RoundRect,0.237500X0.237500X-0.250000X0.237500X0.250000X-0.237500X0.250000X-0.237500X-0.250000X0*%
%ADD38RoundRect,0.150000X0.150000X-0.825000X0.150000X0.825000X-0.150000X0.825000X-0.150000X-0.825000X0*%
%ADD39C,1.600000*%
%ADD40O,1.600000X1.600000*%
G04 APERTURE END LIST*
D10*
X34493200Y-102082600D02*
X33985200Y-102336600D01*
X37033200Y-94716600D02*
X37287200Y-94081600D01*
X34493200Y-102082600D02*
X33985200Y-101574600D01*
D11*
X28252700Y-65150600D02*
X24396700Y-65150600D01*
X24396700Y-65150600D02*
X24396700Y-71151600D01*
X24396700Y-71151600D02*
X28252700Y-71151600D01*
X28252700Y-71151600D02*
X28252700Y-65150600D01*
D10*
X33096200Y-101828600D02*
X34493200Y-102082600D01*
X36906200Y-92303600D02*
X37033200Y-94716600D01*
X37033200Y-94716600D02*
X36779200Y-94081600D01*
D11*
X33131904Y-13852380D02*
X33131904Y-12852380D01*
X33131904Y-13328571D02*
X32560476Y-13328571D01*
X32560476Y-13852380D02*
X32560476Y-12852380D01*
X32084285Y-13328571D02*
X31750952Y-13328571D01*
X31608095Y-13852380D02*
X32084285Y-13852380D01*
X32084285Y-12852380D01*
X31608095Y-12852380D01*
X31227142Y-13566666D02*
X30750952Y-13566666D01*
X31322380Y-13852380D02*
X30989047Y-12852380D01*
X30655714Y-13852380D01*
X29750952Y-13852380D02*
X30084285Y-13376190D01*
X30322380Y-13852380D02*
X30322380Y-12852380D01*
X29941428Y-12852380D01*
X29846190Y-12900000D01*
X29798571Y-12947619D01*
X29750952Y-13042857D01*
X29750952Y-13185714D01*
X29798571Y-13280952D01*
X29846190Y-13328571D01*
X29941428Y-13376190D01*
X30322380Y-13376190D01*
X28655714Y-13185714D02*
X28417619Y-13852380D01*
X28179523Y-13185714D01*
X27893809Y-12852380D02*
X27274761Y-12852380D01*
X27608095Y-13233333D01*
X27465238Y-13233333D01*
X27370000Y-13280952D01*
X27322380Y-13328571D01*
X27274761Y-13423809D01*
X27274761Y-13661904D01*
X27322380Y-13757142D01*
X27370000Y-13804761D01*
X27465238Y-13852380D01*
X27750952Y-13852380D01*
X27846190Y-13804761D01*
X27893809Y-13757142D01*
X26084285Y-13852380D02*
X26084285Y-12852380D01*
X26084285Y-13233333D02*
X25989047Y-13185714D01*
X25798571Y-13185714D01*
X25703333Y-13233333D01*
X25655714Y-13280952D01*
X25608095Y-13376190D01*
X25608095Y-13661904D01*
X25655714Y-13757142D01*
X25703333Y-13804761D01*
X25798571Y-13852380D01*
X25989047Y-13852380D01*
X26084285Y-13804761D01*
X25274761Y-13185714D02*
X25036666Y-13852380D01*
X24798571Y-13185714D02*
X25036666Y-13852380D01*
X25131904Y-14090476D01*
X25179523Y-14138095D01*
X25274761Y-14185714D01*
X23084285Y-13757142D02*
X23131904Y-13804761D01*
X23274761Y-13852380D01*
X23370000Y-13852380D01*
X23512857Y-13804761D01*
X23608095Y-13709523D01*
X23655714Y-13614285D01*
X23703333Y-13423809D01*
X23703333Y-13280952D01*
X23655714Y-13090476D01*
X23608095Y-12995238D01*
X23512857Y-12900000D01*
X23370000Y-12852380D01*
X23274761Y-12852380D01*
X23131904Y-12900000D01*
X23084285Y-12947619D01*
X22655714Y-13852380D02*
X22655714Y-13185714D01*
X22655714Y-13376190D02*
X22608095Y-13280952D01*
X22560476Y-13233333D01*
X22465238Y-13185714D01*
X22370000Y-13185714D01*
X21893809Y-13852380D02*
X21989047Y-13804761D01*
X22036666Y-13757142D01*
X22084285Y-13661904D01*
X22084285Y-13376190D01*
X22036666Y-13280952D01*
X21989047Y-13233333D01*
X21893809Y-13185714D01*
X21750952Y-13185714D01*
X21655714Y-13233333D01*
X21608095Y-13280952D01*
X21560476Y-13376190D01*
X21560476Y-13661904D01*
X21608095Y-13757142D01*
X21655714Y-13804761D01*
X21750952Y-13852380D01*
X21893809Y-13852380D01*
X21227142Y-13185714D02*
X21036666Y-13852380D01*
X20846190Y-13376190D01*
X20655714Y-13852380D01*
X20465238Y-13185714D01*
X20131904Y-13804761D02*
X20036666Y-13852380D01*
X19846190Y-13852380D01*
X19750952Y-13804761D01*
X19703333Y-13709523D01*
X19703333Y-13661904D01*
X19750952Y-13566666D01*
X19846190Y-13519047D01*
X19989047Y-13519047D01*
X20084285Y-13471428D01*
X20131904Y-13376190D01*
X20131904Y-13328571D01*
X20084285Y-13233333D01*
X19989047Y-13185714D01*
X19846190Y-13185714D01*
X19750952Y-13233333D01*
X18512857Y-13328571D02*
X18179523Y-13328571D01*
X18036666Y-13852380D02*
X18512857Y-13852380D01*
X18512857Y-12852380D01*
X18036666Y-12852380D01*
X17465238Y-13852380D02*
X17560476Y-13804761D01*
X17608095Y-13709523D01*
X17608095Y-12852380D01*
X16703333Y-13804761D02*
X16798571Y-13852380D01*
X16989047Y-13852380D01*
X17084285Y-13804761D01*
X17131904Y-13709523D01*
X17131904Y-13328571D01*
X17084285Y-13233333D01*
X16989047Y-13185714D01*
X16798571Y-13185714D01*
X16703333Y-13233333D01*
X16655714Y-13328571D01*
X16655714Y-13423809D01*
X17131904Y-13519047D01*
X15798571Y-13804761D02*
X15893809Y-13852380D01*
X16084285Y-13852380D01*
X16179523Y-13804761D01*
X16227142Y-13757142D01*
X16274761Y-13661904D01*
X16274761Y-13376190D01*
X16227142Y-13280952D01*
X16179523Y-13233333D01*
X16084285Y-13185714D01*
X15893809Y-13185714D01*
X15798571Y-13233333D01*
X15512857Y-13185714D02*
X15131904Y-13185714D01*
X15370000Y-12852380D02*
X15370000Y-13709523D01*
X15322380Y-13804761D01*
X15227142Y-13852380D01*
X15131904Y-13852380D01*
X14798571Y-13852380D02*
X14798571Y-13185714D01*
X14798571Y-13376190D02*
X14750952Y-13280952D01*
X14703333Y-13233333D01*
X14608095Y-13185714D01*
X14512857Y-13185714D01*
X14036666Y-13852380D02*
X14131904Y-13804761D01*
X14179523Y-13757142D01*
X14227142Y-13661904D01*
X14227142Y-13376190D01*
X14179523Y-13280952D01*
X14131904Y-13233333D01*
X14036666Y-13185714D01*
X13893809Y-13185714D01*
X13798571Y-13233333D01*
X13750952Y-13280952D01*
X13703333Y-13376190D01*
X13703333Y-13661904D01*
X13750952Y-13757142D01*
X13798571Y-13804761D01*
X13893809Y-13852380D01*
X14036666Y-13852380D01*
X13274761Y-13852380D02*
X13274761Y-13185714D01*
X13274761Y-13280952D02*
X13227142Y-13233333D01*
X13131904Y-13185714D01*
X12989047Y-13185714D01*
X12893809Y-13233333D01*
X12846190Y-13328571D01*
X12846190Y-13852380D01*
X12846190Y-13328571D02*
X12798571Y-13233333D01*
X12703333Y-13185714D01*
X12560476Y-13185714D01*
X12465238Y-13233333D01*
X12417619Y-13328571D01*
X12417619Y-13852380D01*
X11512857Y-13185714D02*
X11512857Y-13852380D01*
X11941428Y-13185714D02*
X11941428Y-13709523D01*
X11893809Y-13804761D01*
X11798571Y-13852380D01*
X11655714Y-13852380D01*
X11560476Y-13804761D01*
X11512857Y-13757142D01*
X11084285Y-13804761D02*
X10989047Y-13852380D01*
X10798571Y-13852380D01*
X10703333Y-13804761D01*
X10655714Y-13709523D01*
X10655714Y-13661904D01*
X10703333Y-13566666D01*
X10798571Y-13519047D01*
X10941428Y-13519047D01*
X11036666Y-13471428D01*
X11084285Y-13376190D01*
X11084285Y-13328571D01*
X11036666Y-13233333D01*
X10941428Y-13185714D01*
X10798571Y-13185714D01*
X10703333Y-13233333D01*
X10227142Y-13852380D02*
X10227142Y-13185714D01*
X10227142Y-12852380D02*
X10274761Y-12900000D01*
X10227142Y-12947619D01*
X10179523Y-12900000D01*
X10227142Y-12852380D01*
X10227142Y-12947619D01*
X9322380Y-13804761D02*
X9417619Y-13852380D01*
X9608095Y-13852380D01*
X9703333Y-13804761D01*
X9750952Y-13757142D01*
X9798571Y-13661904D01*
X9798571Y-13376190D01*
X9750952Y-13280952D01*
X9703333Y-13233333D01*
X9608095Y-13185714D01*
X9417619Y-13185714D01*
X9322380Y-13233333D01*
D10*
X30573071Y-27469971D02*
X30430214Y-27517590D01*
X30382595Y-27565209D01*
X30334976Y-27660447D01*
X30334976Y-27803304D01*
X30382595Y-27898542D01*
X30430214Y-27946161D01*
X30525452Y-27993780D01*
X30906404Y-27993780D01*
X30906404Y-26993780D01*
X30573071Y-26993780D01*
X30477833Y-27041400D01*
X30430214Y-27089019D01*
X30382595Y-27184257D01*
X30382595Y-27279495D01*
X30430214Y-27374733D01*
X30477833Y-27422352D01*
X30573071Y-27469971D01*
X30906404Y-27469971D01*
X29477833Y-27993780D02*
X29477833Y-27469971D01*
X29525452Y-27374733D01*
X29620690Y-27327114D01*
X29811166Y-27327114D01*
X29906404Y-27374733D01*
X29477833Y-27946161D02*
X29573071Y-27993780D01*
X29811166Y-27993780D01*
X29906404Y-27946161D01*
X29954023Y-27850923D01*
X29954023Y-27755685D01*
X29906404Y-27660447D01*
X29811166Y-27612828D01*
X29573071Y-27612828D01*
X29477833Y-27565209D01*
X29049261Y-27946161D02*
X28954023Y-27993780D01*
X28763547Y-27993780D01*
X28668309Y-27946161D01*
X28620690Y-27850923D01*
X28620690Y-27803304D01*
X28668309Y-27708066D01*
X28763547Y-27660447D01*
X28906404Y-27660447D01*
X29001642Y-27612828D01*
X29049261Y-27517590D01*
X29049261Y-27469971D01*
X29001642Y-27374733D01*
X28906404Y-27327114D01*
X28763547Y-27327114D01*
X28668309Y-27374733D01*
X27811166Y-27946161D02*
X27906404Y-27993780D01*
X28096880Y-27993780D01*
X28192119Y-27946161D01*
X28239738Y-27850923D01*
X28239738Y-27469971D01*
X28192119Y-27374733D01*
X28096880Y-27327114D01*
X27906404Y-27327114D01*
X27811166Y-27374733D01*
X27763547Y-27469971D01*
X27763547Y-27565209D01*
X28239738Y-27660447D01*
X26906404Y-27993780D02*
X26906404Y-26993780D01*
X26906404Y-27946161D02*
X27001642Y-27993780D01*
X27192119Y-27993780D01*
X27287357Y-27946161D01*
X27334976Y-27898542D01*
X27382595Y-27803304D01*
X27382595Y-27517590D01*
X27334976Y-27422352D01*
X27287357Y-27374733D01*
X27192119Y-27327114D01*
X27001642Y-27327114D01*
X26906404Y-27374733D01*
X25525452Y-27993780D02*
X25620690Y-27946161D01*
X25668309Y-27898542D01*
X25715928Y-27803304D01*
X25715928Y-27517590D01*
X25668309Y-27422352D01*
X25620690Y-27374733D01*
X25525452Y-27327114D01*
X25382595Y-27327114D01*
X25287357Y-27374733D01*
X25239738Y-27422352D01*
X25192119Y-27517590D01*
X25192119Y-27803304D01*
X25239738Y-27898542D01*
X25287357Y-27946161D01*
X25382595Y-27993780D01*
X25525452Y-27993780D01*
X24763547Y-27327114D02*
X24763547Y-27993780D01*
X24763547Y-27422352D02*
X24715928Y-27374733D01*
X24620690Y-27327114D01*
X24477833Y-27327114D01*
X24382595Y-27374733D01*
X24334976Y-27469971D01*
X24334976Y-27993780D01*
X23096880Y-27993780D02*
X23096880Y-27327114D01*
X23096880Y-27517590D02*
X23049261Y-27422352D01*
X23001642Y-27374733D01*
X22906404Y-27327114D01*
X22811166Y-27327114D01*
X22049261Y-27993780D02*
X22049261Y-27469971D01*
X22096880Y-27374733D01*
X22192119Y-27327114D01*
X22382595Y-27327114D01*
X22477833Y-27374733D01*
X22049261Y-27946161D02*
X22144500Y-27993780D01*
X22382595Y-27993780D01*
X22477833Y-27946161D01*
X22525452Y-27850923D01*
X22525452Y-27755685D01*
X22477833Y-27660447D01*
X22382595Y-27612828D01*
X22144500Y-27612828D01*
X22049261Y-27565209D01*
X21573071Y-27993780D02*
X21573071Y-27327114D01*
X21573071Y-27422352D02*
X21525452Y-27374733D01*
X21430214Y-27327114D01*
X21287357Y-27327114D01*
X21192119Y-27374733D01*
X21144500Y-27469971D01*
X21144500Y-27993780D01*
X21144500Y-27469971D02*
X21096880Y-27374733D01*
X21001642Y-27327114D01*
X20858785Y-27327114D01*
X20763547Y-27374733D01*
X20715928Y-27469971D01*
X20715928Y-27993780D01*
X20239738Y-27327114D02*
X20239738Y-28327114D01*
X20239738Y-27374733D02*
X20144500Y-27327114D01*
X19954023Y-27327114D01*
X19858785Y-27374733D01*
X19811166Y-27422352D01*
X19763547Y-27517590D01*
X19763547Y-27803304D01*
X19811166Y-27898542D01*
X19858785Y-27946161D01*
X19954023Y-27993780D01*
X20144500Y-27993780D01*
X20239738Y-27946161D01*
X19334976Y-27993780D02*
X19334976Y-26993780D01*
X18906404Y-27993780D02*
X18906404Y-27469971D01*
X18954023Y-27374733D01*
X19049261Y-27327114D01*
X19192119Y-27327114D01*
X19287357Y-27374733D01*
X19334976Y-27422352D01*
X18001642Y-27993780D02*
X18001642Y-27469971D01*
X18049261Y-27374733D01*
X18144500Y-27327114D01*
X18334976Y-27327114D01*
X18430214Y-27374733D01*
X18001642Y-27946161D02*
X18096880Y-27993780D01*
X18334976Y-27993780D01*
X18430214Y-27946161D01*
X18477833Y-27850923D01*
X18477833Y-27755685D01*
X18430214Y-27660447D01*
X18334976Y-27612828D01*
X18096880Y-27612828D01*
X18001642Y-27565209D01*
X17525452Y-27327114D02*
X17525452Y-27993780D01*
X17525452Y-27422352D02*
X17477833Y-27374733D01*
X17382595Y-27327114D01*
X17239738Y-27327114D01*
X17144500Y-27374733D01*
X17096880Y-27469971D01*
X17096880Y-27993780D01*
X16192119Y-27993780D02*
X16192119Y-26993780D01*
X16192119Y-27946161D02*
X16287357Y-27993780D01*
X16477833Y-27993780D01*
X16573071Y-27946161D01*
X16620690Y-27898542D01*
X16668309Y-27803304D01*
X16668309Y-27517590D01*
X16620690Y-27422352D01*
X16573071Y-27374733D01*
X16477833Y-27327114D01*
X16287357Y-27327114D01*
X16192119Y-27374733D01*
X15763547Y-27946161D02*
X15668309Y-27993780D01*
X15477833Y-27993780D01*
X15382595Y-27946161D01*
X15334976Y-27850923D01*
X15334976Y-27803304D01*
X15382595Y-27708066D01*
X15477833Y-27660447D01*
X15620690Y-27660447D01*
X15715928Y-27612828D01*
X15763547Y-27517590D01*
X15763547Y-27469971D01*
X15715928Y-27374733D01*
X15620690Y-27327114D01*
X15477833Y-27327114D01*
X15382595Y-27374733D01*
X14192119Y-26946161D02*
X15049261Y-28231876D01*
X13858785Y-27469971D02*
X13525452Y-27469971D01*
X13382595Y-27993780D02*
X13858785Y-27993780D01*
X13858785Y-26993780D01*
X13382595Y-26993780D01*
X13049261Y-27993780D02*
X12525452Y-27327114D01*
X13049261Y-27327114D02*
X12525452Y-27993780D01*
X12144500Y-27993780D02*
X12144500Y-27327114D01*
X12144500Y-26993780D02*
X12192119Y-27041400D01*
X12144500Y-27089019D01*
X12096880Y-27041400D01*
X12144500Y-26993780D01*
X12144500Y-27089019D01*
X11811166Y-27327114D02*
X11430214Y-27327114D01*
X11668309Y-26993780D02*
X11668309Y-27850923D01*
X11620690Y-27946161D01*
X11525452Y-27993780D01*
X11430214Y-27993780D01*
X11144500Y-27946161D02*
X11049261Y-27993780D01*
X10858785Y-27993780D01*
X10763547Y-27946161D01*
X10715928Y-27850923D01*
X10715928Y-27803304D01*
X10763547Y-27708066D01*
X10858785Y-27660447D01*
X11001642Y-27660447D01*
X11096880Y-27612828D01*
X11144500Y-27517590D01*
X11144500Y-27469971D01*
X11096880Y-27374733D01*
X11001642Y-27327114D01*
X10858785Y-27327114D01*
X10763547Y-27374733D01*
X24001642Y-29603780D02*
X24049261Y-29603780D01*
X24144500Y-29556161D01*
X24287357Y-29413304D01*
X24525452Y-29127590D01*
X24620690Y-28984733D01*
X24668309Y-28841876D01*
X24668309Y-28746638D01*
X24620690Y-28651400D01*
X24525452Y-28603780D01*
X24477833Y-28603780D01*
X24382595Y-28651400D01*
X24334976Y-28746638D01*
X24334976Y-28794257D01*
X24382595Y-28889495D01*
X24430214Y-28937114D01*
X24715928Y-29127590D01*
X24763547Y-29175209D01*
X24811166Y-29270447D01*
X24811166Y-29413304D01*
X24763547Y-29508542D01*
X24715928Y-29556161D01*
X24620690Y-29603780D01*
X24477833Y-29603780D01*
X24382595Y-29556161D01*
X24334976Y-29508542D01*
X24192119Y-29318066D01*
X24144500Y-29175209D01*
X24144500Y-29079971D01*
X22858785Y-29556161D02*
X22763547Y-29603780D01*
X22573071Y-29603780D01*
X22477833Y-29556161D01*
X22430214Y-29460923D01*
X22430214Y-29413304D01*
X22477833Y-29318066D01*
X22573071Y-29270447D01*
X22715928Y-29270447D01*
X22811166Y-29222828D01*
X22858785Y-29127590D01*
X22858785Y-29079971D01*
X22811166Y-28984733D01*
X22715928Y-28937114D01*
X22573071Y-28937114D01*
X22477833Y-28984733D01*
X21573071Y-29603780D02*
X21573071Y-29079971D01*
X21620690Y-28984733D01*
X21715928Y-28937114D01*
X21906404Y-28937114D01*
X22001642Y-28984733D01*
X21573071Y-29556161D02*
X21668309Y-29603780D01*
X21906404Y-29603780D01*
X22001642Y-29556161D01*
X22049261Y-29460923D01*
X22049261Y-29365685D01*
X22001642Y-29270447D01*
X21906404Y-29222828D01*
X21668309Y-29222828D01*
X21573071Y-29175209D01*
X21096880Y-29603780D02*
X21096880Y-28937114D01*
X21096880Y-29127590D02*
X21049261Y-29032352D01*
X21001642Y-28984733D01*
X20906404Y-28937114D01*
X20811166Y-28937114D01*
X20477833Y-28937114D02*
X20477833Y-29603780D01*
X20477833Y-29032352D02*
X20430214Y-28984733D01*
X20334976Y-28937114D01*
X20192119Y-28937114D01*
X20096880Y-28984733D01*
X20049261Y-29079971D01*
X20049261Y-29603780D01*
X19192119Y-29556161D02*
X19287357Y-29603780D01*
X19477833Y-29603780D01*
X19573071Y-29556161D01*
X19620690Y-29460923D01*
X19620690Y-29079971D01*
X19573071Y-28984733D01*
X19477833Y-28937114D01*
X19287357Y-28937114D01*
X19192119Y-28984733D01*
X19144500Y-29079971D01*
X19144500Y-29175209D01*
X19620690Y-29270447D01*
X18763547Y-29556161D02*
X18668309Y-29603780D01*
X18477833Y-29603780D01*
X18382595Y-29556161D01*
X18334976Y-29460923D01*
X18334976Y-29413304D01*
X18382595Y-29318066D01*
X18477833Y-29270447D01*
X18620690Y-29270447D01*
X18715928Y-29222828D01*
X18763547Y-29127590D01*
X18763547Y-29079971D01*
X18715928Y-28984733D01*
X18620690Y-28937114D01*
X18477833Y-28937114D01*
X18382595Y-28984733D01*
X17906404Y-28937114D02*
X17906404Y-29794257D01*
X17954023Y-29889495D01*
X18049261Y-29937114D01*
X18096880Y-29937114D01*
X17906404Y-28603780D02*
X17954023Y-28651400D01*
X17906404Y-28699019D01*
X17858785Y-28651400D01*
X17906404Y-28603780D01*
X17906404Y-28699019D01*
X17287357Y-29603780D02*
X17382595Y-29556161D01*
X17430214Y-29508542D01*
X17477833Y-29413304D01*
X17477833Y-29127590D01*
X17430214Y-29032352D01*
X17382595Y-28984733D01*
X17287357Y-28937114D01*
X17144500Y-28937114D01*
X17049261Y-28984733D01*
X17001642Y-29032352D01*
X16954023Y-29127590D01*
X16954023Y-29413304D01*
X17001642Y-29508542D01*
X17049261Y-29556161D01*
X17144500Y-29603780D01*
X17287357Y-29603780D01*
X15811166Y-28556161D02*
X16668309Y-29841876D01*
X15477833Y-28937114D02*
X15477833Y-29603780D01*
X15477833Y-29032352D02*
X15430214Y-28984733D01*
X15334976Y-28937114D01*
X15192119Y-28937114D01*
X15096880Y-28984733D01*
X15049261Y-29079971D01*
X15049261Y-29603780D01*
X14192119Y-29556161D02*
X14287357Y-29603780D01*
X14477833Y-29603780D01*
X14573071Y-29556161D01*
X14620690Y-29460923D01*
X14620690Y-29079971D01*
X14573071Y-28984733D01*
X14477833Y-28937114D01*
X14287357Y-28937114D01*
X14192119Y-28984733D01*
X14144500Y-29079971D01*
X14144500Y-29175209D01*
X14620690Y-29270447D01*
X13287357Y-29603780D02*
X13287357Y-29079971D01*
X13334976Y-28984733D01*
X13430214Y-28937114D01*
X13620690Y-28937114D01*
X13715928Y-28984733D01*
X13287357Y-29556161D02*
X13382595Y-29603780D01*
X13620690Y-29603780D01*
X13715928Y-29556161D01*
X13763547Y-29460923D01*
X13763547Y-29365685D01*
X13715928Y-29270447D01*
X13620690Y-29222828D01*
X13382595Y-29222828D01*
X13287357Y-29175209D01*
X12811166Y-29603780D02*
X12811166Y-28937114D01*
X12811166Y-29127590D02*
X12763547Y-29032352D01*
X12715928Y-28984733D01*
X12620690Y-28937114D01*
X12525452Y-28937114D01*
X12192119Y-28937114D02*
X12192119Y-29603780D01*
X12192119Y-29032352D02*
X12144500Y-28984733D01*
X12049261Y-28937114D01*
X11906404Y-28937114D01*
X11811166Y-28984733D01*
X11763547Y-29079971D01*
X11763547Y-29603780D01*
X10906404Y-29556161D02*
X11001642Y-29603780D01*
X11192119Y-29603780D01*
X11287357Y-29556161D01*
X11334976Y-29460923D01*
X11334976Y-29079971D01*
X11287357Y-28984733D01*
X11192119Y-28937114D01*
X11001642Y-28937114D01*
X10906404Y-28984733D01*
X10858785Y-29079971D01*
X10858785Y-29175209D01*
X11334976Y-29270447D01*
X10477833Y-29556161D02*
X10382595Y-29603780D01*
X10192119Y-29603780D01*
X10096880Y-29556161D01*
X10049261Y-29460923D01*
X10049261Y-29413304D01*
X10096880Y-29318066D01*
X10192119Y-29270447D01*
X10334976Y-29270447D01*
X10430214Y-29222828D01*
X10477833Y-29127590D01*
X10477833Y-29079971D01*
X10430214Y-28984733D01*
X10334976Y-28937114D01*
X10192119Y-28937114D01*
X10096880Y-28984733D01*
X9668309Y-29556161D02*
X9573071Y-29603780D01*
X9382595Y-29603780D01*
X9287357Y-29556161D01*
X9239738Y-29460923D01*
X9239738Y-29413304D01*
X9287357Y-29318066D01*
X9382595Y-29270447D01*
X9525452Y-29270447D01*
X9620690Y-29222828D01*
X9668309Y-29127590D01*
X9668309Y-29079971D01*
X9620690Y-28984733D01*
X9525452Y-28937114D01*
X9382595Y-28937114D01*
X9287357Y-28984733D01*
X9182657Y-61152380D02*
X9515990Y-60676190D01*
X9754085Y-61152380D02*
X9754085Y-60152380D01*
X9373133Y-60152380D01*
X9277895Y-60200000D01*
X9230276Y-60247619D01*
X9182657Y-60342857D01*
X9182657Y-60485714D01*
X9230276Y-60580952D01*
X9277895Y-60628571D01*
X9373133Y-60676190D01*
X9754085Y-60676190D01*
X8754085Y-60628571D02*
X8420752Y-60628571D01*
X8277895Y-61152380D02*
X8754085Y-61152380D01*
X8754085Y-60152380D01*
X8277895Y-60152380D01*
X7849323Y-61152380D02*
X7849323Y-60152380D01*
X7611228Y-60152380D01*
X7468371Y-60200000D01*
X7373133Y-60295238D01*
X7325514Y-60390476D01*
X7277895Y-60580952D01*
X7277895Y-60723809D01*
X7325514Y-60914285D01*
X7373133Y-61009523D01*
X7468371Y-61104761D01*
X7611228Y-61152380D01*
X7849323Y-61152380D01*
X4259685Y-60771428D02*
X3497780Y-60771428D01*
X2497780Y-61152380D02*
X3069209Y-61152380D01*
X2783495Y-61152380D02*
X2783495Y-60152380D01*
X2878733Y-60295238D01*
X2973971Y-60390476D01*
X3069209Y-60438095D01*
X2116828Y-60247619D02*
X2069209Y-60200000D01*
X1973971Y-60152380D01*
X1735876Y-60152380D01*
X1640638Y-60200000D01*
X1593019Y-60247619D01*
X1545400Y-60342857D01*
X1545400Y-60438095D01*
X1593019Y-60580952D01*
X2164447Y-61152380D01*
X1545400Y-61152380D01*
X1212066Y-60485714D02*
X973971Y-61152380D01*
X735876Y-60485714D01*
X37088342Y-60863219D02*
X37040723Y-60815600D01*
X36945485Y-60767980D01*
X36707390Y-60767980D01*
X36612152Y-60815600D01*
X36564533Y-60863219D01*
X36516914Y-60958457D01*
X36516914Y-61053695D01*
X36564533Y-61196552D01*
X37135961Y-61767980D01*
X36516914Y-61767980D01*
X35374057Y-60720361D02*
X36231200Y-62006076D01*
X35135961Y-60767980D02*
X34516914Y-60767980D01*
X34850247Y-61148933D01*
X34707390Y-61148933D01*
X34612152Y-61196552D01*
X34564533Y-61244171D01*
X34516914Y-61339409D01*
X34516914Y-61577504D01*
X34564533Y-61672742D01*
X34612152Y-61720361D01*
X34707390Y-61767980D01*
X34993104Y-61767980D01*
X35088342Y-61720361D01*
X35135961Y-61672742D01*
X32802628Y-60815600D02*
X32897866Y-60767980D01*
X33040723Y-60767980D01*
X33183580Y-60815600D01*
X33278819Y-60910838D01*
X33326438Y-61006076D01*
X33374057Y-61196552D01*
X33374057Y-61339409D01*
X33326438Y-61529885D01*
X33278819Y-61625123D01*
X33183580Y-61720361D01*
X33040723Y-61767980D01*
X32945485Y-61767980D01*
X32802628Y-61720361D01*
X32755009Y-61672742D01*
X32755009Y-61339409D01*
X32945485Y-61339409D01*
X32374057Y-61482266D02*
X31897866Y-61482266D01*
X32469295Y-61767980D02*
X32135961Y-60767980D01*
X31802628Y-61767980D01*
X31469295Y-61767980D02*
X31469295Y-60767980D01*
X30993104Y-61767980D02*
X30993104Y-60767980D01*
X30421676Y-61767980D01*
X30421676Y-60767980D01*
X21633333Y-60771428D02*
X20871428Y-60771428D01*
X21252380Y-61152380D02*
X21252380Y-60390476D01*
X19871428Y-61152380D02*
X20442857Y-61152380D01*
X20157142Y-61152380D02*
X20157142Y-60152380D01*
X20252380Y-60295238D01*
X20347619Y-60390476D01*
X20442857Y-60438095D01*
X19490476Y-60247619D02*
X19442857Y-60200000D01*
X19347619Y-60152380D01*
X19109523Y-60152380D01*
X19014285Y-60200000D01*
X18966666Y-60247619D01*
X18919047Y-60342857D01*
X18919047Y-60438095D01*
X18966666Y-60580952D01*
X19538095Y-61152380D01*
X18919047Y-61152380D01*
X13621526Y-15241307D02*
X14388832Y-14970433D01*
X13988833Y-15679046D01*
X13440396Y-15766266D02*
X12856743Y-16256009D01*
X27728571Y-63900000D02*
X27823809Y-63852380D01*
X27966666Y-63852380D01*
X28109523Y-63900000D01*
X28204761Y-63995238D01*
X28252380Y-64090476D01*
X28300000Y-64280952D01*
X28300000Y-64423809D01*
X28252380Y-64614285D01*
X28204761Y-64709523D01*
X28109523Y-64804761D01*
X27966666Y-64852380D01*
X27871428Y-64852380D01*
X27728571Y-64804761D01*
X27680952Y-64757142D01*
X27680952Y-64423809D01*
X27871428Y-64423809D01*
X27300000Y-64566666D02*
X26823809Y-64566666D01*
X27395238Y-64852380D02*
X27061904Y-63852380D01*
X26728571Y-64852380D01*
X26395238Y-64852380D02*
X26395238Y-63852380D01*
X25919047Y-64852380D02*
X25919047Y-63852380D01*
X25347619Y-64852380D01*
X25347619Y-63852380D01*
X12488883Y-17551668D02*
X12554989Y-17538818D01*
X12674352Y-17447013D01*
X12727608Y-17368057D01*
X12768015Y-17222994D01*
X12742316Y-17090782D01*
X12689988Y-16998048D01*
X12558704Y-16852057D01*
X12440270Y-16772172D01*
X12255730Y-16705137D01*
X12150146Y-16691359D01*
X12017934Y-16717058D01*
X11898571Y-16808864D01*
X11845314Y-16887820D01*
X11804908Y-17032882D01*
X11817757Y-17098988D01*
X11929690Y-18380706D02*
X11995796Y-18367856D01*
X12115159Y-18276050D01*
X12168416Y-18197094D01*
X12208822Y-18052032D01*
X12183123Y-17919820D01*
X12130795Y-17827085D01*
X11999511Y-17681094D01*
X11881077Y-17601210D01*
X11696537Y-17534175D01*
X11590953Y-17520396D01*
X11458741Y-17546096D01*
X11339378Y-17637901D01*
X11286121Y-17716857D01*
X11245715Y-17861919D01*
X11258565Y-17928026D01*
X10722285Y-19404347D02*
X10681878Y-19549409D01*
X10694728Y-19615515D01*
X10747056Y-19708250D01*
X10865490Y-19788134D01*
X10971074Y-19801913D01*
X11037180Y-19789063D01*
X11129914Y-19736735D01*
X11342940Y-19420912D01*
X10513903Y-18861719D01*
X10327505Y-19138065D01*
X10313727Y-19243649D01*
X10326576Y-19309755D01*
X10378904Y-19402489D01*
X10457860Y-19455746D01*
X10563444Y-19469524D01*
X10629550Y-19456675D01*
X10722285Y-19404347D01*
X10908683Y-19128001D01*
X10282455Y-20141579D02*
X10677234Y-20407861D01*
X10034595Y-19572322D02*
X10282455Y-20141579D01*
X9661799Y-20125014D01*
X9988615Y-20747527D02*
X9562564Y-21379175D01*
X9599255Y-21920874D02*
X9558849Y-22065936D01*
X9425707Y-22263326D01*
X9332973Y-22315654D01*
X9266867Y-22328504D01*
X9161283Y-22314725D01*
X9082327Y-22261469D01*
X9029999Y-22168734D01*
X9017149Y-22102628D01*
X9030928Y-21997044D01*
X9097963Y-21812504D01*
X9111741Y-21706919D01*
X9098891Y-21640813D01*
X9046564Y-21548079D01*
X8967608Y-21494822D01*
X8862023Y-21481044D01*
X8795917Y-21493894D01*
X8703183Y-21546221D01*
X8570042Y-21743611D01*
X8529635Y-21888673D01*
X8869301Y-22577292D02*
X8603018Y-22972072D01*
X9159425Y-22658106D02*
X8143990Y-22375259D01*
X8786630Y-23210798D01*
X7381835Y-24101298D02*
X7934526Y-24474093D01*
X7199152Y-23690882D02*
X7924463Y-23892916D01*
X7578296Y-24406129D01*
X7562660Y-24855094D02*
X7575510Y-24921201D01*
X7641616Y-24908351D01*
X7628766Y-24842245D01*
X7562660Y-24855094D01*
X7641616Y-24908351D01*
X6439783Y-24901850D02*
X6386527Y-24980806D01*
X6372748Y-25086390D01*
X6385598Y-25152496D01*
X6437926Y-25245230D01*
X6569209Y-25391221D01*
X6766599Y-25524362D01*
X6951139Y-25591397D01*
X7056723Y-25605176D01*
X7122830Y-25592326D01*
X7215564Y-25539998D01*
X7268821Y-25461042D01*
X7282599Y-25355458D01*
X7269749Y-25289352D01*
X7217422Y-25196618D01*
X7086138Y-25050627D01*
X6888748Y-24917486D01*
X6704208Y-24850451D01*
X6598624Y-24836672D01*
X6532517Y-24849522D01*
X6439783Y-24901850D01*
D11*
X35905723Y-65974980D02*
X35286676Y-65974980D01*
X35620009Y-66355933D01*
X35477152Y-66355933D01*
X35381914Y-66403552D01*
X35334295Y-66451171D01*
X35286676Y-66546409D01*
X35286676Y-66784504D01*
X35334295Y-66879742D01*
X35381914Y-66927361D01*
X35477152Y-66974980D01*
X35762866Y-66974980D01*
X35858104Y-66927361D01*
X35905723Y-66879742D01*
X33381914Y-66070219D02*
X33334295Y-66022600D01*
X33239057Y-65974980D01*
X33000961Y-65974980D01*
X32905723Y-66022600D01*
X32858104Y-66070219D01*
X32810485Y-66165457D01*
X32810485Y-66260695D01*
X32858104Y-66403552D01*
X33429533Y-66974980D01*
X32810485Y-66974980D01*
X30334295Y-66974980D02*
X30905723Y-66974980D01*
X30620009Y-66974980D02*
X30620009Y-65974980D01*
X30715247Y-66117838D01*
X30810485Y-66213076D01*
X30905723Y-66260695D01*
D10*
%TO.C,C5*%
X13418466Y-74960542D02*
X13466085Y-75008161D01*
X13608942Y-75055780D01*
X13704180Y-75055780D01*
X13847038Y-75008161D01*
X13942276Y-74912923D01*
X13989895Y-74817685D01*
X14037514Y-74627209D01*
X14037514Y-74484352D01*
X13989895Y-74293876D01*
X13942276Y-74198638D01*
X13847038Y-74103400D01*
X13704180Y-74055780D01*
X13608942Y-74055780D01*
X13466085Y-74103400D01*
X13418466Y-74151019D01*
X12513704Y-74055780D02*
X12989895Y-74055780D01*
X13037514Y-74531971D01*
X12989895Y-74484352D01*
X12894657Y-74436733D01*
X12656561Y-74436733D01*
X12561323Y-74484352D01*
X12513704Y-74531971D01*
X12466085Y-74627209D01*
X12466085Y-74865304D01*
X12513704Y-74960542D01*
X12561323Y-75008161D01*
X12656561Y-75055780D01*
X12894657Y-75055780D01*
X12989895Y-75008161D01*
X13037514Y-74960542D01*
%TO.C,C6*%
X8766666Y-75357142D02*
X8814285Y-75404761D01*
X8957142Y-75452380D01*
X9052380Y-75452380D01*
X9195238Y-75404761D01*
X9290476Y-75309523D01*
X9338095Y-75214285D01*
X9385714Y-75023809D01*
X9385714Y-74880952D01*
X9338095Y-74690476D01*
X9290476Y-74595238D01*
X9195238Y-74500000D01*
X9052380Y-74452380D01*
X8957142Y-74452380D01*
X8814285Y-74500000D01*
X8766666Y-74547619D01*
X7909523Y-74452380D02*
X8100000Y-74452380D01*
X8195238Y-74500000D01*
X8242857Y-74547619D01*
X8338095Y-74690476D01*
X8385714Y-74880952D01*
X8385714Y-75261904D01*
X8338095Y-75357142D01*
X8290476Y-75404761D01*
X8195238Y-75452380D01*
X8004761Y-75452380D01*
X7909523Y-75404761D01*
X7861904Y-75357142D01*
X7814285Y-75261904D01*
X7814285Y-75023809D01*
X7861904Y-74928571D01*
X7909523Y-74880952D01*
X8004761Y-74833333D01*
X8195238Y-74833333D01*
X8290476Y-74880952D01*
X8338095Y-74928571D01*
X8385714Y-75023809D01*
%TO.C,C7*%
X24245866Y-74753742D02*
X24293485Y-74801361D01*
X24436342Y-74848980D01*
X24531580Y-74848980D01*
X24674438Y-74801361D01*
X24769676Y-74706123D01*
X24817295Y-74610885D01*
X24864914Y-74420409D01*
X24864914Y-74277552D01*
X24817295Y-74087076D01*
X24769676Y-73991838D01*
X24674438Y-73896600D01*
X24531580Y-73848980D01*
X24436342Y-73848980D01*
X24293485Y-73896600D01*
X24245866Y-73944219D01*
X23912533Y-73848980D02*
X23245866Y-73848980D01*
X23674438Y-74848980D01*
%TO.C,C8*%
X27801866Y-86691742D02*
X27849485Y-86739361D01*
X27992342Y-86786980D01*
X28087580Y-86786980D01*
X28230438Y-86739361D01*
X28325676Y-86644123D01*
X28373295Y-86548885D01*
X28420914Y-86358409D01*
X28420914Y-86215552D01*
X28373295Y-86025076D01*
X28325676Y-85929838D01*
X28230438Y-85834600D01*
X28087580Y-85786980D01*
X27992342Y-85786980D01*
X27849485Y-85834600D01*
X27801866Y-85882219D01*
X27230438Y-86215552D02*
X27325676Y-86167933D01*
X27373295Y-86120314D01*
X27420914Y-86025076D01*
X27420914Y-85977457D01*
X27373295Y-85882219D01*
X27325676Y-85834600D01*
X27230438Y-85786980D01*
X27039961Y-85786980D01*
X26944723Y-85834600D01*
X26897104Y-85882219D01*
X26849485Y-85977457D01*
X26849485Y-86025076D01*
X26897104Y-86120314D01*
X26944723Y-86167933D01*
X27039961Y-86215552D01*
X27230438Y-86215552D01*
X27325676Y-86263171D01*
X27373295Y-86310790D01*
X27420914Y-86406028D01*
X27420914Y-86596504D01*
X27373295Y-86691742D01*
X27325676Y-86739361D01*
X27230438Y-86786980D01*
X27039961Y-86786980D01*
X26944723Y-86739361D01*
X26897104Y-86691742D01*
X26849485Y-86596504D01*
X26849485Y-86406028D01*
X26897104Y-86310790D01*
X26944723Y-86263171D01*
X27039961Y-86215552D01*
%TO.C,C9*%
X18765666Y-90855142D02*
X18813285Y-90902761D01*
X18956142Y-90950380D01*
X19051380Y-90950380D01*
X19194238Y-90902761D01*
X19289476Y-90807523D01*
X19337095Y-90712285D01*
X19384714Y-90521809D01*
X19384714Y-90378952D01*
X19337095Y-90188476D01*
X19289476Y-90093238D01*
X19194238Y-89998000D01*
X19051380Y-89950380D01*
X18956142Y-89950380D01*
X18813285Y-89998000D01*
X18765666Y-90045619D01*
X18289476Y-90950380D02*
X18099000Y-90950380D01*
X18003761Y-90902761D01*
X17956142Y-90855142D01*
X17860904Y-90712285D01*
X17813285Y-90521809D01*
X17813285Y-90140857D01*
X17860904Y-90045619D01*
X17908523Y-89998000D01*
X18003761Y-89950380D01*
X18194238Y-89950380D01*
X18289476Y-89998000D01*
X18337095Y-90045619D01*
X18384714Y-90140857D01*
X18384714Y-90378952D01*
X18337095Y-90474190D01*
X18289476Y-90521809D01*
X18194238Y-90569428D01*
X18003761Y-90569428D01*
X17908523Y-90521809D01*
X17860904Y-90474190D01*
X17813285Y-90378952D01*
%TO.C,C10*%
X12275942Y-99735742D02*
X12323561Y-99688123D01*
X12371180Y-99545266D01*
X12371180Y-99450028D01*
X12323561Y-99307171D01*
X12228323Y-99211933D01*
X12133085Y-99164314D01*
X11942609Y-99116695D01*
X11799752Y-99116695D01*
X11609276Y-99164314D01*
X11514038Y-99211933D01*
X11418800Y-99307171D01*
X11371180Y-99450028D01*
X11371180Y-99545266D01*
X11418800Y-99688123D01*
X11466419Y-99735742D01*
X12371180Y-100688123D02*
X12371180Y-100116695D01*
X12371180Y-100402409D02*
X11371180Y-100402409D01*
X11514038Y-100307171D01*
X11609276Y-100211933D01*
X11656895Y-100116695D01*
X11371180Y-101307171D02*
X11371180Y-101402409D01*
X11418800Y-101497647D01*
X11466419Y-101545266D01*
X11561657Y-101592885D01*
X11752133Y-101640504D01*
X11990228Y-101640504D01*
X12180704Y-101592885D01*
X12275942Y-101545266D01*
X12323561Y-101497647D01*
X12371180Y-101402409D01*
X12371180Y-101307171D01*
X12323561Y-101211933D01*
X12275942Y-101164314D01*
X12180704Y-101116695D01*
X11990228Y-101069076D01*
X11752133Y-101069076D01*
X11561657Y-101116695D01*
X11466419Y-101164314D01*
X11418800Y-101211933D01*
X11371180Y-101307171D01*
%TO.C,D1*%
X14911295Y-72562980D02*
X14911295Y-71562980D01*
X14673200Y-71562980D01*
X14530342Y-71610600D01*
X14435104Y-71705838D01*
X14387485Y-71801076D01*
X14339866Y-71991552D01*
X14339866Y-72134409D01*
X14387485Y-72324885D01*
X14435104Y-72420123D01*
X14530342Y-72515361D01*
X14673200Y-72562980D01*
X14911295Y-72562980D01*
X13387485Y-72562980D02*
X13958914Y-72562980D01*
X13673200Y-72562980D02*
X13673200Y-71562980D01*
X13768438Y-71705838D01*
X13863676Y-71801076D01*
X13958914Y-71848695D01*
%TO.C,D2*%
X8561295Y-72562980D02*
X8561295Y-71562980D01*
X8323200Y-71562980D01*
X8180342Y-71610600D01*
X8085104Y-71705838D01*
X8037485Y-71801076D01*
X7989866Y-71991552D01*
X7989866Y-72134409D01*
X8037485Y-72324885D01*
X8085104Y-72420123D01*
X8180342Y-72515361D01*
X8323200Y-72562980D01*
X8561295Y-72562980D01*
X7608914Y-71658219D02*
X7561295Y-71610600D01*
X7466057Y-71562980D01*
X7227961Y-71562980D01*
X7132723Y-71610600D01*
X7085104Y-71658219D01*
X7037485Y-71753457D01*
X7037485Y-71848695D01*
X7085104Y-71991552D01*
X7656533Y-72562980D01*
X7037485Y-72562980D01*
%TO.C,R17*%
X26919357Y-70752380D02*
X27252690Y-70276190D01*
X27490785Y-70752380D02*
X27490785Y-69752380D01*
X27109833Y-69752380D01*
X27014595Y-69800000D01*
X26966976Y-69847619D01*
X26919357Y-69942857D01*
X26919357Y-70085714D01*
X26966976Y-70180952D01*
X27014595Y-70228571D01*
X27109833Y-70276190D01*
X27490785Y-70276190D01*
X25966976Y-70752380D02*
X26538404Y-70752380D01*
X26252690Y-70752380D02*
X26252690Y-69752380D01*
X26347928Y-69895238D01*
X26443166Y-69990476D01*
X26538404Y-70038095D01*
X25633642Y-69752380D02*
X24966976Y-69752380D01*
X25395547Y-70752380D01*
%TO.C,R19*%
X35009057Y-58686980D02*
X35342390Y-58210790D01*
X35580485Y-58686980D02*
X35580485Y-57686980D01*
X35199533Y-57686980D01*
X35104295Y-57734600D01*
X35056676Y-57782219D01*
X35009057Y-57877457D01*
X35009057Y-58020314D01*
X35056676Y-58115552D01*
X35104295Y-58163171D01*
X35199533Y-58210790D01*
X35580485Y-58210790D01*
X34056676Y-58686980D02*
X34628104Y-58686980D01*
X34342390Y-58686980D02*
X34342390Y-57686980D01*
X34437628Y-57829838D01*
X34532866Y-57925076D01*
X34628104Y-57972695D01*
X33580485Y-58686980D02*
X33390009Y-58686980D01*
X33294771Y-58639361D01*
X33247152Y-58591742D01*
X33151914Y-58448885D01*
X33104295Y-58258409D01*
X33104295Y-57877457D01*
X33151914Y-57782219D01*
X33199533Y-57734600D01*
X33294771Y-57686980D01*
X33485247Y-57686980D01*
X33580485Y-57734600D01*
X33628104Y-57782219D01*
X33675723Y-57877457D01*
X33675723Y-58115552D01*
X33628104Y-58210790D01*
X33580485Y-58258409D01*
X33485247Y-58306028D01*
X33294771Y-58306028D01*
X33199533Y-58258409D01*
X33151914Y-58210790D01*
X33104295Y-58115552D01*
%TO.C,R20*%
X29400780Y-58132742D02*
X28924590Y-57799409D01*
X29400780Y-57561314D02*
X28400780Y-57561314D01*
X28400780Y-57942266D01*
X28448400Y-58037504D01*
X28496019Y-58085123D01*
X28591257Y-58132742D01*
X28734114Y-58132742D01*
X28829352Y-58085123D01*
X28876971Y-58037504D01*
X28924590Y-57942266D01*
X28924590Y-57561314D01*
X28496019Y-58513695D02*
X28448400Y-58561314D01*
X28400780Y-58656552D01*
X28400780Y-58894647D01*
X28448400Y-58989885D01*
X28496019Y-59037504D01*
X28591257Y-59085123D01*
X28686495Y-59085123D01*
X28829352Y-59037504D01*
X29400780Y-58466076D01*
X29400780Y-59085123D01*
X28400780Y-59704171D02*
X28400780Y-59799409D01*
X28448400Y-59894647D01*
X28496019Y-59942266D01*
X28591257Y-59989885D01*
X28781733Y-60037504D01*
X29019828Y-60037504D01*
X29210304Y-59989885D01*
X29305542Y-59942266D01*
X29353161Y-59894647D01*
X29400780Y-59799409D01*
X29400780Y-59704171D01*
X29353161Y-59608933D01*
X29305542Y-59561314D01*
X29210304Y-59513695D01*
X29019828Y-59466076D01*
X28781733Y-59466076D01*
X28591257Y-59513695D01*
X28496019Y-59561314D01*
X28448400Y-59608933D01*
X28400780Y-59704171D01*
%TO.C,R21*%
X28786057Y-72435980D02*
X29119390Y-71959790D01*
X29357485Y-72435980D02*
X29357485Y-71435980D01*
X28976533Y-71435980D01*
X28881295Y-71483600D01*
X28833676Y-71531219D01*
X28786057Y-71626457D01*
X28786057Y-71769314D01*
X28833676Y-71864552D01*
X28881295Y-71912171D01*
X28976533Y-71959790D01*
X29357485Y-71959790D01*
X28405104Y-71531219D02*
X28357485Y-71483600D01*
X28262247Y-71435980D01*
X28024152Y-71435980D01*
X27928914Y-71483600D01*
X27881295Y-71531219D01*
X27833676Y-71626457D01*
X27833676Y-71721695D01*
X27881295Y-71864552D01*
X28452723Y-72435980D01*
X27833676Y-72435980D01*
X26881295Y-72435980D02*
X27452723Y-72435980D01*
X27167009Y-72435980D02*
X27167009Y-71435980D01*
X27262247Y-71578838D01*
X27357485Y-71674076D01*
X27452723Y-71721695D01*
%TO.C,R22*%
X38003380Y-72022142D02*
X37527190Y-71688809D01*
X38003380Y-71450714D02*
X37003380Y-71450714D01*
X37003380Y-71831666D01*
X37051000Y-71926904D01*
X37098619Y-71974523D01*
X37193857Y-72022142D01*
X37336714Y-72022142D01*
X37431952Y-71974523D01*
X37479571Y-71926904D01*
X37527190Y-71831666D01*
X37527190Y-71450714D01*
X37098619Y-72403095D02*
X37051000Y-72450714D01*
X37003380Y-72545952D01*
X37003380Y-72784047D01*
X37051000Y-72879285D01*
X37098619Y-72926904D01*
X37193857Y-72974523D01*
X37289095Y-72974523D01*
X37431952Y-72926904D01*
X38003380Y-72355476D01*
X38003380Y-72974523D01*
X37098619Y-73355476D02*
X37051000Y-73403095D01*
X37003380Y-73498333D01*
X37003380Y-73736428D01*
X37051000Y-73831666D01*
X37098619Y-73879285D01*
X37193857Y-73926904D01*
X37289095Y-73926904D01*
X37431952Y-73879285D01*
X38003380Y-73307857D01*
X38003380Y-73926904D01*
%TO.C,R27*%
X21248457Y-80383980D02*
X21581790Y-79907790D01*
X21819885Y-80383980D02*
X21819885Y-79383980D01*
X21438933Y-79383980D01*
X21343695Y-79431600D01*
X21296076Y-79479219D01*
X21248457Y-79574457D01*
X21248457Y-79717314D01*
X21296076Y-79812552D01*
X21343695Y-79860171D01*
X21438933Y-79907790D01*
X21819885Y-79907790D01*
X20867504Y-79479219D02*
X20819885Y-79431600D01*
X20724647Y-79383980D01*
X20486552Y-79383980D01*
X20391314Y-79431600D01*
X20343695Y-79479219D01*
X20296076Y-79574457D01*
X20296076Y-79669695D01*
X20343695Y-79812552D01*
X20915123Y-80383980D01*
X20296076Y-80383980D01*
X19962742Y-79383980D02*
X19296076Y-79383980D01*
X19724647Y-80383980D01*
%TO.C,R28*%
X35136057Y-83865980D02*
X35469390Y-83389790D01*
X35707485Y-83865980D02*
X35707485Y-82865980D01*
X35326533Y-82865980D01*
X35231295Y-82913600D01*
X35183676Y-82961219D01*
X35136057Y-83056457D01*
X35136057Y-83199314D01*
X35183676Y-83294552D01*
X35231295Y-83342171D01*
X35326533Y-83389790D01*
X35707485Y-83389790D01*
X34755104Y-82961219D02*
X34707485Y-82913600D01*
X34612247Y-82865980D01*
X34374152Y-82865980D01*
X34278914Y-82913600D01*
X34231295Y-82961219D01*
X34183676Y-83056457D01*
X34183676Y-83151695D01*
X34231295Y-83294552D01*
X34802723Y-83865980D01*
X34183676Y-83865980D01*
X33612247Y-83294552D02*
X33707485Y-83246933D01*
X33755104Y-83199314D01*
X33802723Y-83104076D01*
X33802723Y-83056457D01*
X33755104Y-82961219D01*
X33707485Y-82913600D01*
X33612247Y-82865980D01*
X33421771Y-82865980D01*
X33326533Y-82913600D01*
X33278914Y-82961219D01*
X33231295Y-83056457D01*
X33231295Y-83104076D01*
X33278914Y-83199314D01*
X33326533Y-83246933D01*
X33421771Y-83294552D01*
X33612247Y-83294552D01*
X33707485Y-83342171D01*
X33755104Y-83389790D01*
X33802723Y-83485028D01*
X33802723Y-83675504D01*
X33755104Y-83770742D01*
X33707485Y-83818361D01*
X33612247Y-83865980D01*
X33421771Y-83865980D01*
X33326533Y-83818361D01*
X33278914Y-83770742D01*
X33231295Y-83675504D01*
X33231295Y-83485028D01*
X33278914Y-83389790D01*
X33326533Y-83342171D01*
X33421771Y-83294552D01*
%TO.C,R29*%
X13755457Y-78961580D02*
X14088790Y-78485390D01*
X14326885Y-78961580D02*
X14326885Y-77961580D01*
X13945933Y-77961580D01*
X13850695Y-78009200D01*
X13803076Y-78056819D01*
X13755457Y-78152057D01*
X13755457Y-78294914D01*
X13803076Y-78390152D01*
X13850695Y-78437771D01*
X13945933Y-78485390D01*
X14326885Y-78485390D01*
X13374504Y-78056819D02*
X13326885Y-78009200D01*
X13231647Y-77961580D01*
X12993552Y-77961580D01*
X12898314Y-78009200D01*
X12850695Y-78056819D01*
X12803076Y-78152057D01*
X12803076Y-78247295D01*
X12850695Y-78390152D01*
X13422123Y-78961580D01*
X12803076Y-78961580D01*
X12326885Y-78961580D02*
X12136409Y-78961580D01*
X12041171Y-78913961D01*
X11993552Y-78866342D01*
X11898314Y-78723485D01*
X11850695Y-78533009D01*
X11850695Y-78152057D01*
X11898314Y-78056819D01*
X11945933Y-78009200D01*
X12041171Y-77961580D01*
X12231647Y-77961580D01*
X12326885Y-78009200D01*
X12374504Y-78056819D01*
X12422123Y-78152057D01*
X12422123Y-78390152D01*
X12374504Y-78485390D01*
X12326885Y-78533009D01*
X12231647Y-78580628D01*
X12041171Y-78580628D01*
X11945933Y-78533009D01*
X11898314Y-78485390D01*
X11850695Y-78390152D01*
%TO.C,R30*%
X14054057Y-86278980D02*
X14387390Y-85802790D01*
X14625485Y-86278980D02*
X14625485Y-85278980D01*
X14244533Y-85278980D01*
X14149295Y-85326600D01*
X14101676Y-85374219D01*
X14054057Y-85469457D01*
X14054057Y-85612314D01*
X14101676Y-85707552D01*
X14149295Y-85755171D01*
X14244533Y-85802790D01*
X14625485Y-85802790D01*
X13720723Y-85278980D02*
X13101676Y-85278980D01*
X13435009Y-85659933D01*
X13292152Y-85659933D01*
X13196914Y-85707552D01*
X13149295Y-85755171D01*
X13101676Y-85850409D01*
X13101676Y-86088504D01*
X13149295Y-86183742D01*
X13196914Y-86231361D01*
X13292152Y-86278980D01*
X13577866Y-86278980D01*
X13673104Y-86231361D01*
X13720723Y-86183742D01*
X12482628Y-85278980D02*
X12387390Y-85278980D01*
X12292152Y-85326600D01*
X12244533Y-85374219D01*
X12196914Y-85469457D01*
X12149295Y-85659933D01*
X12149295Y-85898028D01*
X12196914Y-86088504D01*
X12244533Y-86183742D01*
X12292152Y-86231361D01*
X12387390Y-86278980D01*
X12482628Y-86278980D01*
X12577866Y-86231361D01*
X12625485Y-86183742D01*
X12673104Y-86088504D01*
X12720723Y-85898028D01*
X12720723Y-85659933D01*
X12673104Y-85469457D01*
X12625485Y-85374219D01*
X12577866Y-85326600D01*
X12482628Y-85278980D01*
%TO.C,U1*%
X31978504Y-74331580D02*
X31978504Y-75141104D01*
X31930885Y-75236342D01*
X31883266Y-75283961D01*
X31788028Y-75331580D01*
X31597552Y-75331580D01*
X31502314Y-75283961D01*
X31454695Y-75236342D01*
X31407076Y-75141104D01*
X31407076Y-74331580D01*
X30407076Y-75331580D02*
X30978504Y-75331580D01*
X30692790Y-75331580D02*
X30692790Y-74331580D01*
X30788028Y-74474438D01*
X30883266Y-74569676D01*
X30978504Y-74617295D01*
%TO.C,R7*%
X24957066Y-45875180D02*
X25290400Y-45398990D01*
X25528495Y-45875180D02*
X25528495Y-44875180D01*
X25147542Y-44875180D01*
X25052304Y-44922800D01*
X25004685Y-44970419D01*
X24957066Y-45065657D01*
X24957066Y-45208514D01*
X25004685Y-45303752D01*
X25052304Y-45351371D01*
X25147542Y-45398990D01*
X25528495Y-45398990D01*
X24623733Y-44875180D02*
X23957066Y-44875180D01*
X24385638Y-45875180D01*
%TO.C,C2*%
X31148142Y-95868533D02*
X31195761Y-95820914D01*
X31243380Y-95678057D01*
X31243380Y-95582819D01*
X31195761Y-95439961D01*
X31100523Y-95344723D01*
X31005285Y-95297104D01*
X30814809Y-95249485D01*
X30671952Y-95249485D01*
X30481476Y-95297104D01*
X30386238Y-95344723D01*
X30291000Y-95439961D01*
X30243380Y-95582819D01*
X30243380Y-95678057D01*
X30291000Y-95820914D01*
X30338619Y-95868533D01*
X30338619Y-96249485D02*
X30291000Y-96297104D01*
X30243380Y-96392342D01*
X30243380Y-96630438D01*
X30291000Y-96725676D01*
X30338619Y-96773295D01*
X30433857Y-96820914D01*
X30529095Y-96820914D01*
X30671952Y-96773295D01*
X31243380Y-96201866D01*
X31243380Y-96820914D01*
%TO.C,R34*%
X17400380Y-89423342D02*
X16924190Y-89090009D01*
X17400380Y-88851914D02*
X16400380Y-88851914D01*
X16400380Y-89232866D01*
X16448000Y-89328104D01*
X16495619Y-89375723D01*
X16590857Y-89423342D01*
X16733714Y-89423342D01*
X16828952Y-89375723D01*
X16876571Y-89328104D01*
X16924190Y-89232866D01*
X16924190Y-88851914D01*
X16400380Y-89756676D02*
X16400380Y-90375723D01*
X16781333Y-90042390D01*
X16781333Y-90185247D01*
X16828952Y-90280485D01*
X16876571Y-90328104D01*
X16971809Y-90375723D01*
X17209904Y-90375723D01*
X17305142Y-90328104D01*
X17352761Y-90280485D01*
X17400380Y-90185247D01*
X17400380Y-89899533D01*
X17352761Y-89804295D01*
X17305142Y-89756676D01*
X16733714Y-91232866D02*
X17400380Y-91232866D01*
X16352761Y-90994771D02*
X17067047Y-90756676D01*
X17067047Y-91375723D01*
%TO.C,C1*%
X26436466Y-98246542D02*
X26484085Y-98294161D01*
X26626942Y-98341780D01*
X26722180Y-98341780D01*
X26865038Y-98294161D01*
X26960276Y-98198923D01*
X27007895Y-98103685D01*
X27055514Y-97913209D01*
X27055514Y-97770352D01*
X27007895Y-97579876D01*
X26960276Y-97484638D01*
X26865038Y-97389400D01*
X26722180Y-97341780D01*
X26626942Y-97341780D01*
X26484085Y-97389400D01*
X26436466Y-97437019D01*
X25484085Y-98341780D02*
X26055514Y-98341780D01*
X25769800Y-98341780D02*
X25769800Y-97341780D01*
X25865038Y-97484638D01*
X25960276Y-97579876D01*
X26055514Y-97627495D01*
%TO.C,J5*%
X37755580Y-68729266D02*
X38469866Y-68729266D01*
X38612723Y-68681647D01*
X38707961Y-68586409D01*
X38755580Y-68443552D01*
X38755580Y-68348314D01*
X37755580Y-69681647D02*
X37755580Y-69205457D01*
X38231771Y-69157838D01*
X38184152Y-69205457D01*
X38136533Y-69300695D01*
X38136533Y-69538790D01*
X38184152Y-69634028D01*
X38231771Y-69681647D01*
X38327009Y-69729266D01*
X38565104Y-69729266D01*
X38660342Y-69681647D01*
X38707961Y-69634028D01*
X38755580Y-69538790D01*
X38755580Y-69300695D01*
X38707961Y-69205457D01*
X38660342Y-69157838D01*
%TO.C,R23*%
X2808057Y-102075580D02*
X3141390Y-101599390D01*
X3379485Y-102075580D02*
X3379485Y-101075580D01*
X2998533Y-101075580D01*
X2903295Y-101123200D01*
X2855676Y-101170819D01*
X2808057Y-101266057D01*
X2808057Y-101408914D01*
X2855676Y-101504152D01*
X2903295Y-101551771D01*
X2998533Y-101599390D01*
X3379485Y-101599390D01*
X2427104Y-101170819D02*
X2379485Y-101123200D01*
X2284247Y-101075580D01*
X2046152Y-101075580D01*
X1950914Y-101123200D01*
X1903295Y-101170819D01*
X1855676Y-101266057D01*
X1855676Y-101361295D01*
X1903295Y-101504152D01*
X2474723Y-102075580D01*
X1855676Y-102075580D01*
X1522342Y-101075580D02*
X903295Y-101075580D01*
X1236628Y-101456533D01*
X1093771Y-101456533D01*
X998533Y-101504152D01*
X950914Y-101551771D01*
X903295Y-101647009D01*
X903295Y-101885104D01*
X950914Y-101980342D01*
X998533Y-102027961D01*
X1093771Y-102075580D01*
X1379485Y-102075580D01*
X1474723Y-102027961D01*
X1522342Y-101980342D01*
%TO.C,R35*%
X28030257Y-89146980D02*
X28363590Y-88670790D01*
X28601685Y-89146980D02*
X28601685Y-88146980D01*
X28220733Y-88146980D01*
X28125495Y-88194600D01*
X28077876Y-88242219D01*
X28030257Y-88337457D01*
X28030257Y-88480314D01*
X28077876Y-88575552D01*
X28125495Y-88623171D01*
X28220733Y-88670790D01*
X28601685Y-88670790D01*
X27696923Y-88146980D02*
X27077876Y-88146980D01*
X27411209Y-88527933D01*
X27268352Y-88527933D01*
X27173114Y-88575552D01*
X27125495Y-88623171D01*
X27077876Y-88718409D01*
X27077876Y-88956504D01*
X27125495Y-89051742D01*
X27173114Y-89099361D01*
X27268352Y-89146980D01*
X27554066Y-89146980D01*
X27649304Y-89099361D01*
X27696923Y-89051742D01*
X26173114Y-88146980D02*
X26649304Y-88146980D01*
X26696923Y-88623171D01*
X26649304Y-88575552D01*
X26554066Y-88527933D01*
X26315971Y-88527933D01*
X26220733Y-88575552D01*
X26173114Y-88623171D01*
X26125495Y-88718409D01*
X26125495Y-88956504D01*
X26173114Y-89051742D01*
X26220733Y-89099361D01*
X26315971Y-89146980D01*
X26554066Y-89146980D01*
X26649304Y-89099361D01*
X26696923Y-89051742D01*
%TO.C,R5*%
X24245866Y-36273980D02*
X24579200Y-35797790D01*
X24817295Y-36273980D02*
X24817295Y-35273980D01*
X24436342Y-35273980D01*
X24341104Y-35321600D01*
X24293485Y-35369219D01*
X24245866Y-35464457D01*
X24245866Y-35607314D01*
X24293485Y-35702552D01*
X24341104Y-35750171D01*
X24436342Y-35797790D01*
X24817295Y-35797790D01*
X23341104Y-35273980D02*
X23817295Y-35273980D01*
X23864914Y-35750171D01*
X23817295Y-35702552D01*
X23722057Y-35654933D01*
X23483961Y-35654933D01*
X23388723Y-35702552D01*
X23341104Y-35750171D01*
X23293485Y-35845409D01*
X23293485Y-36083504D01*
X23341104Y-36178742D01*
X23388723Y-36226361D01*
X23483961Y-36273980D01*
X23722057Y-36273980D01*
X23817295Y-36226361D01*
X23864914Y-36178742D01*
%TO.C,R15*%
X19445057Y-103142380D02*
X19778390Y-102666190D01*
X20016485Y-103142380D02*
X20016485Y-102142380D01*
X19635533Y-102142380D01*
X19540295Y-102190000D01*
X19492676Y-102237619D01*
X19445057Y-102332857D01*
X19445057Y-102475714D01*
X19492676Y-102570952D01*
X19540295Y-102618571D01*
X19635533Y-102666190D01*
X20016485Y-102666190D01*
X18492676Y-103142380D02*
X19064104Y-103142380D01*
X18778390Y-103142380D02*
X18778390Y-102142380D01*
X18873628Y-102285238D01*
X18968866Y-102380476D01*
X19064104Y-102428095D01*
X17587914Y-102142380D02*
X18064104Y-102142380D01*
X18111723Y-102618571D01*
X18064104Y-102570952D01*
X17968866Y-102523333D01*
X17730771Y-102523333D01*
X17635533Y-102570952D01*
X17587914Y-102618571D01*
X17540295Y-102713809D01*
X17540295Y-102951904D01*
X17587914Y-103047142D01*
X17635533Y-103094761D01*
X17730771Y-103142380D01*
X17968866Y-103142380D01*
X18064104Y-103094761D01*
X18111723Y-103047142D01*
%TO.C,R16*%
X23191580Y-92191942D02*
X22715390Y-91858609D01*
X23191580Y-91620514D02*
X22191580Y-91620514D01*
X22191580Y-92001466D01*
X22239200Y-92096704D01*
X22286819Y-92144323D01*
X22382057Y-92191942D01*
X22524914Y-92191942D01*
X22620152Y-92144323D01*
X22667771Y-92096704D01*
X22715390Y-92001466D01*
X22715390Y-91620514D01*
X23191580Y-93144323D02*
X23191580Y-92572895D01*
X23191580Y-92858609D02*
X22191580Y-92858609D01*
X22334438Y-92763371D01*
X22429676Y-92668133D01*
X22477295Y-92572895D01*
X22191580Y-94001466D02*
X22191580Y-93810990D01*
X22239200Y-93715752D01*
X22286819Y-93668133D01*
X22429676Y-93572895D01*
X22620152Y-93525276D01*
X23001104Y-93525276D01*
X23096342Y-93572895D01*
X23143961Y-93620514D01*
X23191580Y-93715752D01*
X23191580Y-93906228D01*
X23143961Y-94001466D01*
X23096342Y-94049085D01*
X23001104Y-94096704D01*
X22763009Y-94096704D01*
X22667771Y-94049085D01*
X22620152Y-94001466D01*
X22572533Y-93906228D01*
X22572533Y-93715752D01*
X22620152Y-93620514D01*
X22667771Y-93572895D01*
X22763009Y-93525276D01*
%TO.C,R36*%
X30627580Y-87342742D02*
X30151390Y-87009409D01*
X30627580Y-86771314D02*
X29627580Y-86771314D01*
X29627580Y-87152266D01*
X29675200Y-87247504D01*
X29722819Y-87295123D01*
X29818057Y-87342742D01*
X29960914Y-87342742D01*
X30056152Y-87295123D01*
X30103771Y-87247504D01*
X30151390Y-87152266D01*
X30151390Y-86771314D01*
X29627580Y-87676076D02*
X29627580Y-88295123D01*
X30008533Y-87961790D01*
X30008533Y-88104647D01*
X30056152Y-88199885D01*
X30103771Y-88247504D01*
X30199009Y-88295123D01*
X30437104Y-88295123D01*
X30532342Y-88247504D01*
X30579961Y-88199885D01*
X30627580Y-88104647D01*
X30627580Y-87818933D01*
X30579961Y-87723695D01*
X30532342Y-87676076D01*
X29627580Y-89152266D02*
X29627580Y-88961790D01*
X29675200Y-88866552D01*
X29722819Y-88818933D01*
X29865676Y-88723695D01*
X30056152Y-88676076D01*
X30437104Y-88676076D01*
X30532342Y-88723695D01*
X30579961Y-88771314D01*
X30627580Y-88866552D01*
X30627580Y-89057028D01*
X30579961Y-89152266D01*
X30532342Y-89199885D01*
X30437104Y-89247504D01*
X30199009Y-89247504D01*
X30103771Y-89199885D01*
X30056152Y-89152266D01*
X30008533Y-89057028D01*
X30008533Y-88866552D01*
X30056152Y-88771314D01*
X30103771Y-88723695D01*
X30199009Y-88676076D01*
%TO.C,R24*%
X12028257Y-93033180D02*
X12361590Y-92556990D01*
X12599685Y-93033180D02*
X12599685Y-92033180D01*
X12218733Y-92033180D01*
X12123495Y-92080800D01*
X12075876Y-92128419D01*
X12028257Y-92223657D01*
X12028257Y-92366514D01*
X12075876Y-92461752D01*
X12123495Y-92509371D01*
X12218733Y-92556990D01*
X12599685Y-92556990D01*
X11647304Y-92128419D02*
X11599685Y-92080800D01*
X11504447Y-92033180D01*
X11266352Y-92033180D01*
X11171114Y-92080800D01*
X11123495Y-92128419D01*
X11075876Y-92223657D01*
X11075876Y-92318895D01*
X11123495Y-92461752D01*
X11694923Y-93033180D01*
X11075876Y-93033180D01*
X10218733Y-92366514D02*
X10218733Y-93033180D01*
X10456828Y-91985561D02*
X10694923Y-92699847D01*
X10075876Y-92699847D01*
%TO.C,U2*%
X14825580Y-100886695D02*
X15635104Y-100886695D01*
X15730342Y-100934314D01*
X15777961Y-100981933D01*
X15825580Y-101077171D01*
X15825580Y-101267647D01*
X15777961Y-101362885D01*
X15730342Y-101410504D01*
X15635104Y-101458123D01*
X14825580Y-101458123D01*
X14920819Y-101886695D02*
X14873200Y-101934314D01*
X14825580Y-102029552D01*
X14825580Y-102267647D01*
X14873200Y-102362885D01*
X14920819Y-102410504D01*
X15016057Y-102458123D01*
X15111295Y-102458123D01*
X15254152Y-102410504D01*
X15825580Y-101839076D01*
X15825580Y-102458123D01*
%TO.C,R2*%
X32318057Y-102153980D02*
X32794247Y-102153980D01*
X32794247Y-101153980D01*
X31984723Y-102153980D02*
X31984723Y-101153980D01*
X31508533Y-102153980D02*
X31508533Y-101153980D01*
X30937104Y-102153980D01*
X30937104Y-101153980D01*
X29937104Y-102153980D02*
X30508533Y-102153980D01*
X30222819Y-102153980D02*
X30222819Y-101153980D01*
X30318057Y-101296838D01*
X30413295Y-101392076D01*
X30508533Y-101439695D01*
X29508533Y-102058742D02*
X29460914Y-102106361D01*
X29508533Y-102153980D01*
X29556152Y-102106361D01*
X29508533Y-102058742D01*
X29508533Y-102153980D01*
X28556152Y-101153980D02*
X29032342Y-101153980D01*
X29079961Y-101630171D01*
X29032342Y-101582552D01*
X28937104Y-101534933D01*
X28699009Y-101534933D01*
X28603771Y-101582552D01*
X28556152Y-101630171D01*
X28508533Y-101725409D01*
X28508533Y-101963504D01*
X28556152Y-102058742D01*
X28603771Y-102106361D01*
X28699009Y-102153980D01*
X28937104Y-102153980D01*
X29032342Y-102106361D01*
X29079961Y-102058742D01*
X28079961Y-102153980D02*
X28079961Y-101153980D01*
X27508533Y-102153980D02*
X27937104Y-101582552D01*
X27508533Y-101153980D02*
X28079961Y-101725409D01*
%TO.C,J6*%
X37628580Y-63471466D02*
X38342866Y-63471466D01*
X38485723Y-63423847D01*
X38580961Y-63328609D01*
X38628580Y-63185752D01*
X38628580Y-63090514D01*
X37628580Y-64376228D02*
X37628580Y-64185752D01*
X37676200Y-64090514D01*
X37723819Y-64042895D01*
X37866676Y-63947657D01*
X38057152Y-63900038D01*
X38438104Y-63900038D01*
X38533342Y-63947657D01*
X38580961Y-63995276D01*
X38628580Y-64090514D01*
X38628580Y-64280990D01*
X38580961Y-64376228D01*
X38533342Y-64423847D01*
X38438104Y-64471466D01*
X38200009Y-64471466D01*
X38104771Y-64423847D01*
X38057152Y-64376228D01*
X38009533Y-64280990D01*
X38009533Y-64090514D01*
X38057152Y-63995276D01*
X38104771Y-63947657D01*
X38200009Y-63900038D01*
%TO.C,R25*%
X9970857Y-102837580D02*
X10304190Y-102361390D01*
X10542285Y-102837580D02*
X10542285Y-101837580D01*
X10161333Y-101837580D01*
X10066095Y-101885200D01*
X10018476Y-101932819D01*
X9970857Y-102028057D01*
X9970857Y-102170914D01*
X10018476Y-102266152D01*
X10066095Y-102313771D01*
X10161333Y-102361390D01*
X10542285Y-102361390D01*
X9589904Y-101932819D02*
X9542285Y-101885200D01*
X9447047Y-101837580D01*
X9208952Y-101837580D01*
X9113714Y-101885200D01*
X9066095Y-101932819D01*
X9018476Y-102028057D01*
X9018476Y-102123295D01*
X9066095Y-102266152D01*
X9637523Y-102837580D01*
X9018476Y-102837580D01*
X8113714Y-101837580D02*
X8589904Y-101837580D01*
X8637523Y-102313771D01*
X8589904Y-102266152D01*
X8494666Y-102218533D01*
X8256571Y-102218533D01*
X8161333Y-102266152D01*
X8113714Y-102313771D01*
X8066095Y-102409009D01*
X8066095Y-102647104D01*
X8113714Y-102742342D01*
X8161333Y-102789961D01*
X8256571Y-102837580D01*
X8494666Y-102837580D01*
X8589904Y-102789961D01*
X8637523Y-102742342D01*
%TO.C,R33*%
X1525380Y-103596542D02*
X1049190Y-103263209D01*
X1525380Y-103025114D02*
X525380Y-103025114D01*
X525380Y-103406066D01*
X573000Y-103501304D01*
X620619Y-103548923D01*
X715857Y-103596542D01*
X858714Y-103596542D01*
X953952Y-103548923D01*
X1001571Y-103501304D01*
X1049190Y-103406066D01*
X1049190Y-103025114D01*
X525380Y-103929876D02*
X525380Y-104548923D01*
X906333Y-104215590D01*
X906333Y-104358447D01*
X953952Y-104453685D01*
X1001571Y-104501304D01*
X1096809Y-104548923D01*
X1334904Y-104548923D01*
X1430142Y-104501304D01*
X1477761Y-104453685D01*
X1525380Y-104358447D01*
X1525380Y-104072733D01*
X1477761Y-103977495D01*
X1430142Y-103929876D01*
X525380Y-104882257D02*
X525380Y-105501304D01*
X906333Y-105167971D01*
X906333Y-105310828D01*
X953952Y-105406066D01*
X1001571Y-105453685D01*
X1096809Y-105501304D01*
X1334904Y-105501304D01*
X1430142Y-105453685D01*
X1477761Y-105406066D01*
X1525380Y-105310828D01*
X1525380Y-105025114D01*
X1477761Y-104929876D01*
X1430142Y-104882257D01*
%TO.C,R26*%
X6237057Y-91483780D02*
X6570390Y-91007590D01*
X6808485Y-91483780D02*
X6808485Y-90483780D01*
X6427533Y-90483780D01*
X6332295Y-90531400D01*
X6284676Y-90579019D01*
X6237057Y-90674257D01*
X6237057Y-90817114D01*
X6284676Y-90912352D01*
X6332295Y-90959971D01*
X6427533Y-91007590D01*
X6808485Y-91007590D01*
X5856104Y-90579019D02*
X5808485Y-90531400D01*
X5713247Y-90483780D01*
X5475152Y-90483780D01*
X5379914Y-90531400D01*
X5332295Y-90579019D01*
X5284676Y-90674257D01*
X5284676Y-90769495D01*
X5332295Y-90912352D01*
X5903723Y-91483780D01*
X5284676Y-91483780D01*
X4427533Y-90483780D02*
X4618009Y-90483780D01*
X4713247Y-90531400D01*
X4760866Y-90579019D01*
X4856104Y-90721876D01*
X4903723Y-90912352D01*
X4903723Y-91293304D01*
X4856104Y-91388542D01*
X4808485Y-91436161D01*
X4713247Y-91483780D01*
X4522771Y-91483780D01*
X4427533Y-91436161D01*
X4379914Y-91388542D01*
X4332295Y-91293304D01*
X4332295Y-91055209D01*
X4379914Y-90959971D01*
X4427533Y-90912352D01*
X4522771Y-90864733D01*
X4713247Y-90864733D01*
X4808485Y-90912352D01*
X4856104Y-90959971D01*
X4903723Y-91055209D01*
%TO.C,R38*%
X26842857Y-67949380D02*
X27176190Y-67473190D01*
X27414285Y-67949380D02*
X27414285Y-66949380D01*
X27033333Y-66949380D01*
X26938095Y-66997000D01*
X26890476Y-67044619D01*
X26842857Y-67139857D01*
X26842857Y-67282714D01*
X26890476Y-67377952D01*
X26938095Y-67425571D01*
X27033333Y-67473190D01*
X27414285Y-67473190D01*
X26509523Y-66949380D02*
X25890476Y-66949380D01*
X26223809Y-67330333D01*
X26080952Y-67330333D01*
X25985714Y-67377952D01*
X25938095Y-67425571D01*
X25890476Y-67520809D01*
X25890476Y-67758904D01*
X25938095Y-67854142D01*
X25985714Y-67901761D01*
X26080952Y-67949380D01*
X26366666Y-67949380D01*
X26461904Y-67901761D01*
X26509523Y-67854142D01*
X25319047Y-67377952D02*
X25414285Y-67330333D01*
X25461904Y-67282714D01*
X25509523Y-67187476D01*
X25509523Y-67139857D01*
X25461904Y-67044619D01*
X25414285Y-66997000D01*
X25319047Y-66949380D01*
X25128571Y-66949380D01*
X25033333Y-66997000D01*
X24985714Y-67044619D01*
X24938095Y-67139857D01*
X24938095Y-67187476D01*
X24985714Y-67282714D01*
X25033333Y-67330333D01*
X25128571Y-67377952D01*
X25319047Y-67377952D01*
X25414285Y-67425571D01*
X25461904Y-67473190D01*
X25509523Y-67568428D01*
X25509523Y-67758904D01*
X25461904Y-67854142D01*
X25414285Y-67901761D01*
X25319047Y-67949380D01*
X25128571Y-67949380D01*
X25033333Y-67901761D01*
X24985714Y-67854142D01*
X24938095Y-67758904D01*
X24938095Y-67568428D01*
X24985714Y-67473190D01*
X25033333Y-67425571D01*
X25128571Y-67377952D01*
%TO.C,R3*%
X24499866Y-21414980D02*
X24833200Y-20938790D01*
X25071295Y-21414980D02*
X25071295Y-20414980D01*
X24690342Y-20414980D01*
X24595104Y-20462600D01*
X24547485Y-20510219D01*
X24499866Y-20605457D01*
X24499866Y-20748314D01*
X24547485Y-20843552D01*
X24595104Y-20891171D01*
X24690342Y-20938790D01*
X25071295Y-20938790D01*
X24166533Y-20414980D02*
X23547485Y-20414980D01*
X23880819Y-20795933D01*
X23737961Y-20795933D01*
X23642723Y-20843552D01*
X23595104Y-20891171D01*
X23547485Y-20986409D01*
X23547485Y-21224504D01*
X23595104Y-21319742D01*
X23642723Y-21367361D01*
X23737961Y-21414980D01*
X24023676Y-21414980D01*
X24118914Y-21367361D01*
X24166533Y-21319742D01*
%TO.C,R1*%
X25066666Y-7063980D02*
X25400000Y-6587790D01*
X25638095Y-7063980D02*
X25638095Y-6063980D01*
X25257142Y-6063980D01*
X25161904Y-6111600D01*
X25114285Y-6159219D01*
X25066666Y-6254457D01*
X25066666Y-6397314D01*
X25114285Y-6492552D01*
X25161904Y-6540171D01*
X25257142Y-6587790D01*
X25638095Y-6587790D01*
X24114285Y-7063980D02*
X24685714Y-7063980D01*
X24400000Y-7063980D02*
X24400000Y-6063980D01*
X24495238Y-6206838D01*
X24590476Y-6302076D01*
X24685714Y-6349695D01*
%TO.C,R4*%
X37906057Y-91866980D02*
X38382247Y-91866980D01*
X38382247Y-90866980D01*
X37572723Y-91866980D02*
X37572723Y-90866980D01*
X37096533Y-91866980D02*
X37096533Y-90866980D01*
X36525104Y-91866980D01*
X36525104Y-90866980D01*
X35525104Y-91866980D02*
X36096533Y-91866980D01*
X35810819Y-91866980D02*
X35810819Y-90866980D01*
X35906057Y-91009838D01*
X36001295Y-91105076D01*
X36096533Y-91152695D01*
X35096533Y-91771742D02*
X35048914Y-91819361D01*
X35096533Y-91866980D01*
X35144152Y-91819361D01*
X35096533Y-91771742D01*
X35096533Y-91866980D01*
X34144152Y-90866980D02*
X34620342Y-90866980D01*
X34667961Y-91343171D01*
X34620342Y-91295552D01*
X34525104Y-91247933D01*
X34287009Y-91247933D01*
X34191771Y-91295552D01*
X34144152Y-91343171D01*
X34096533Y-91438409D01*
X34096533Y-91676504D01*
X34144152Y-91771742D01*
X34191771Y-91819361D01*
X34287009Y-91866980D01*
X34525104Y-91866980D01*
X34620342Y-91819361D01*
X34667961Y-91771742D01*
X33667961Y-91866980D02*
X33667961Y-90866980D01*
X33096533Y-91866980D02*
X33525104Y-91295552D01*
X33096533Y-90866980D02*
X33667961Y-91438409D01*
D12*
%TO.C,C5*%
X17611252Y-75310000D02*
X16188748Y-75310000D01*
X17611252Y-73490000D02*
X16188748Y-73490000D01*
%TO.C,C6*%
X5611252Y-73990000D02*
X4188748Y-73990000D01*
X5611252Y-75810000D02*
X4188748Y-75810000D01*
%TO.C,C7*%
X26892467Y-74779600D02*
X26599933Y-74779600D01*
X26892467Y-73759600D02*
X26599933Y-73759600D01*
%TO.C,C8*%
X26892467Y-85320600D02*
X26599933Y-85320600D01*
X26892467Y-84300600D02*
X26599933Y-84300600D01*
%TO.C,C9*%
X20179933Y-92455800D02*
X20472467Y-92455800D01*
X20179933Y-91435800D02*
X20472467Y-91435800D01*
%TO.C,C10*%
X12882000Y-100575667D02*
X12882000Y-100283133D01*
X13902000Y-100575667D02*
X13902000Y-100283133D01*
%TO.C,D1*%
X19121200Y-72833600D02*
X15971200Y-72833600D01*
X19121200Y-71133600D02*
X19121200Y-72833600D01*
X19121200Y-71133600D02*
X15971200Y-71133600D01*
%TO.C,D2*%
X6548200Y-72960600D02*
X3398200Y-72960600D01*
X6548200Y-71260600D02*
X6548200Y-72960600D01*
X6548200Y-71260600D02*
X3398200Y-71260600D01*
%TO.C,R17*%
X26045276Y-69422500D02*
X26554724Y-69422500D01*
X26045276Y-68377500D02*
X26554724Y-68377500D01*
%TO.C,R19*%
X34874924Y-59142100D02*
X34365476Y-59142100D01*
X34874924Y-60187100D02*
X34365476Y-60187100D01*
%TO.C,R20*%
X30900900Y-58520876D02*
X30900900Y-59030324D01*
X29855900Y-58520876D02*
X29855900Y-59030324D01*
%TO.C,R21*%
X31063476Y-72506100D02*
X31572924Y-72506100D01*
X31063476Y-71461100D02*
X31572924Y-71461100D01*
%TO.C,R22*%
X36422500Y-73045276D02*
X36422500Y-73554724D01*
X35377500Y-73045276D02*
X35377500Y-73554724D01*
%TO.C,R27*%
X20784124Y-78980900D02*
X20274676Y-78980900D01*
X20784124Y-77935900D02*
X20274676Y-77935900D01*
%TO.C,R28*%
X31444476Y-84288100D02*
X31953924Y-84288100D01*
X31444476Y-85333100D02*
X31953924Y-85333100D01*
%TO.C,R29*%
X13748324Y-79510700D02*
X13238876Y-79510700D01*
X13748324Y-80555700D02*
X13238876Y-80555700D01*
%TO.C,R30*%
X13665924Y-87873100D02*
X13156476Y-87873100D01*
X13665924Y-86828100D02*
X13156476Y-86828100D01*
%TO.C,U1*%
X23200200Y-79476600D02*
X23200200Y-76026600D01*
X23200200Y-79476600D02*
X23200200Y-81426600D01*
X32070200Y-79476600D02*
X32070200Y-81426600D01*
X32070200Y-79476600D02*
X32070200Y-77526600D01*
%TO.C,J12*%
X20115200Y-62820000D02*
X13175200Y-62820000D01*
X13175200Y-62820000D02*
X13175200Y-61510000D01*
X835200Y-61510000D02*
X835200Y-70630000D01*
X20115200Y-69320000D02*
X20115200Y-62820000D01*
X9075200Y-61510000D02*
X9075200Y-62820000D01*
X21415200Y-70630000D02*
X21415200Y-61510000D01*
X9075200Y-62820000D02*
X2135200Y-62820000D01*
X835200Y-70630000D02*
X21415200Y-70630000D01*
X2135200Y-69320000D02*
X20115200Y-69320000D01*
X5545200Y-60120000D02*
X6545200Y-60120000D01*
X21415200Y-61510000D02*
X835200Y-61510000D01*
X6045200Y-61120000D02*
X5545200Y-60120000D01*
X13175200Y-62820000D02*
X13175200Y-62820000D01*
X2135200Y-62820000D02*
X2135200Y-69320000D01*
X6545200Y-60120000D02*
X6045200Y-61120000D01*
%TO.C,R7*%
X24535676Y-44515300D02*
X25045124Y-44515300D01*
X24535676Y-43470300D02*
X25045124Y-43470300D01*
%TO.C,C2*%
X29669000Y-95247852D02*
X29669000Y-93825348D01*
X27849000Y-95247852D02*
X27849000Y-93825348D01*
%TO.C,R34*%
X12995136Y-89461000D02*
X14449264Y-89461000D01*
X12995136Y-91281000D02*
X14449264Y-91281000D01*
%TO.C,C1*%
X25177652Y-94998200D02*
X23755148Y-94998200D01*
X25177652Y-96818200D02*
X23755148Y-96818200D01*
%TO.C,J5*%
X30429200Y-67732600D02*
X29099200Y-67732600D01*
X36839200Y-67732600D02*
X36839200Y-70392600D01*
X29099200Y-67732600D02*
X29099200Y-69062600D01*
X31699200Y-70392600D02*
X36839200Y-70392600D01*
X31699200Y-67732600D02*
X31699200Y-70392600D01*
X31699200Y-67732600D02*
X36839200Y-67732600D01*
%TO.C,R23*%
X5060076Y-102171100D02*
X5569524Y-102171100D01*
X5060076Y-101126100D02*
X5569524Y-101126100D01*
%TO.C,R35*%
X27995464Y-89686800D02*
X27541336Y-89686800D01*
X27995464Y-91156800D02*
X27541336Y-91156800D01*
%TO.C,R5*%
X23824476Y-33869100D02*
X24333924Y-33869100D01*
X23824476Y-34914100D02*
X24333924Y-34914100D01*
%TO.C,R15*%
X19791264Y-103606000D02*
X19337136Y-103606000D01*
X19791264Y-105076000D02*
X19337136Y-105076000D01*
%TO.C,R16*%
X25074400Y-92175936D02*
X25074400Y-92630064D01*
X23604400Y-92175936D02*
X23604400Y-92630064D01*
%TO.C,R36*%
X31218200Y-88847664D02*
X31218200Y-88393536D01*
X32688200Y-88847664D02*
X32688200Y-88393536D01*
%TO.C,R24*%
X14143100Y-93724524D02*
X14143100Y-93215076D01*
X13098100Y-93724524D02*
X13098100Y-93215076D01*
%TO.C,U2*%
X19965200Y-96822600D02*
X19965200Y-94872600D01*
X14845200Y-96822600D02*
X14845200Y-94872600D01*
X14845200Y-96822600D02*
X14845200Y-98772600D01*
X19965200Y-96822600D02*
X19965200Y-100272600D01*
%TO.C,R2*%
X37287200Y-103550600D02*
X37287200Y-103620600D01*
X38657200Y-102180600D02*
G75*
G03*
X38657200Y-102180600I-1370000J0D01*
G01*
%TO.C,J6*%
X31714200Y-62525600D02*
X31714200Y-65185600D01*
X31714200Y-65185600D02*
X36854200Y-65185600D01*
X29114200Y-62525600D02*
X29114200Y-63855600D01*
X31714200Y-62525600D02*
X36854200Y-62525600D01*
X36854200Y-62525600D02*
X36854200Y-65185600D01*
X30444200Y-62525600D02*
X29114200Y-62525600D01*
%TO.C,R25*%
X8692276Y-104304700D02*
X9201724Y-104304700D01*
X8692276Y-103259700D02*
X9201724Y-103259700D01*
%TO.C,R33*%
X3470136Y-105301800D02*
X4924264Y-105301800D01*
X3470136Y-103481800D02*
X4924264Y-103481800D01*
%TO.C,R26*%
X8514476Y-91528500D02*
X9023924Y-91528500D01*
X8514476Y-90483500D02*
X9023924Y-90483500D01*
%TO.C,R38*%
X26045276Y-66622500D02*
X26554724Y-66622500D01*
X26045276Y-65577500D02*
X26554724Y-65577500D01*
%TO.C,R3*%
X24078476Y-20055100D02*
X24587924Y-20055100D01*
X24078476Y-19010100D02*
X24587924Y-19010100D01*
%TO.C,R1*%
X24078476Y-4659100D02*
X24587924Y-4659100D01*
X24078476Y-5704100D02*
X24587924Y-5704100D01*
%TO.C,R4*%
X37287200Y-97566600D02*
X37287200Y-97496600D01*
X38657200Y-98936600D02*
G75*
G03*
X38657200Y-98936600I-1370000J0D01*
G01*
%TD*%
%LPC*%
D13*
%TO.C,J2*%
X5500000Y-28400000D03*
D14*
X1800000Y-24400000D03*
D13*
X5500000Y-20400000D03*
%TD*%
D15*
%TO.C,RV9*%
X27034000Y-53900000D03*
X36966000Y-53900000D03*
D16*
X29500000Y-46900000D03*
X32000000Y-46900000D03*
X34500000Y-46900000D03*
%TD*%
D13*
%TO.C,J1*%
X5500000Y-13400000D03*
D14*
X1800000Y-9400000D03*
D13*
X5500000Y-5400000D03*
%TD*%
%TO.C,J3*%
X5500000Y-43400000D03*
D14*
X1800000Y-39400000D03*
D13*
X5500000Y-35400000D03*
%TD*%
D15*
%TO.C,RV2*%
X13034000Y-8900000D03*
X22966000Y-8900000D03*
D16*
X15500000Y-1900000D03*
X18000000Y-1900000D03*
X20500000Y-1900000D03*
%TD*%
D15*
%TO.C,RV7*%
X36966000Y-23900000D03*
X27034000Y-23900000D03*
D16*
X29500000Y-16900000D03*
X32000000Y-16900000D03*
X34500000Y-16900000D03*
%TD*%
D15*
%TO.C,RV8*%
X27034000Y-38900000D03*
X36966000Y-38900000D03*
D16*
X29500000Y-31900000D03*
X32000000Y-31900000D03*
X34500000Y-31900000D03*
%TD*%
D17*
%TO.C,RV1*%
X36100000Y-87700000D03*
X21100000Y-87700000D03*
D18*
X33600000Y-99200000D03*
X28600000Y-99200000D03*
X23600000Y-99200000D03*
X33600000Y-104200000D03*
X28600000Y-104200000D03*
X23600000Y-104200000D03*
%TD*%
D15*
%TO.C,RV4*%
X22966000Y-38900000D03*
X13034000Y-38900000D03*
D16*
X15500000Y-31900000D03*
X18000000Y-31900000D03*
X20500000Y-31900000D03*
%TD*%
D13*
%TO.C,J13*%
X7500000Y-88000000D03*
D14*
X3800000Y-84000000D03*
D13*
X7500000Y-80000000D03*
%TD*%
D15*
%TO.C,RV3*%
X13034000Y-23900000D03*
X22966000Y-23900000D03*
D16*
X15500000Y-16900000D03*
X18000000Y-16900000D03*
X20500000Y-16900000D03*
%TD*%
D15*
%TO.C,RV5*%
X13034000Y-53900000D03*
X22966000Y-53900000D03*
D16*
X15500000Y-46900000D03*
X18000000Y-46900000D03*
X20500000Y-46900000D03*
%TD*%
D15*
%TO.C,RV6*%
X36966000Y-8900000D03*
X27034000Y-8900000D03*
D16*
X29500000Y-1900000D03*
X32000000Y-1900000D03*
X34500000Y-1900000D03*
%TD*%
D13*
%TO.C,J4*%
X5500000Y-58400000D03*
D14*
X1800000Y-54400000D03*
D13*
X5500000Y-50400000D03*
%TD*%
D14*
%TO.C,J14*%
X11000000Y-95500000D03*
D13*
X7000000Y-99200000D03*
D14*
X3000000Y-95500000D03*
%TD*%
D19*
%TO.C,C5*%
X18462500Y-74400000D03*
X15337500Y-74400000D03*
%TD*%
%TO.C,C6*%
X6462500Y-74900000D03*
X3337500Y-74900000D03*
%TD*%
D20*
%TO.C,C7*%
X27608700Y-74269600D03*
X25883700Y-74269600D03*
%TD*%
%TO.C,C8*%
X27608700Y-84810600D03*
X25883700Y-84810600D03*
%TD*%
D21*
%TO.C,C9*%
X19463700Y-91945800D03*
X21188700Y-91945800D03*
%TD*%
D22*
%TO.C,C10*%
X13392000Y-101291900D03*
X13392000Y-99566900D03*
%TD*%
D23*
%TO.C,D1*%
X18471200Y-71983600D03*
X15971200Y-71983600D03*
%TD*%
%TO.C,D2*%
X5898200Y-72110600D03*
X3398200Y-72110600D03*
%TD*%
D24*
%TO.C,R17*%
X25387500Y-68900000D03*
X27212500Y-68900000D03*
%TD*%
D25*
%TO.C,R19*%
X35532700Y-59664600D03*
X33707700Y-59664600D03*
%TD*%
D26*
%TO.C,R20*%
X30378400Y-57863100D03*
X30378400Y-59688100D03*
%TD*%
D24*
%TO.C,R21*%
X30405700Y-71983600D03*
X32230700Y-71983600D03*
%TD*%
D26*
%TO.C,R22*%
X35900000Y-72387500D03*
X35900000Y-74212500D03*
%TD*%
D25*
%TO.C,R27*%
X21441900Y-78458400D03*
X19616900Y-78458400D03*
%TD*%
D24*
%TO.C,R28*%
X30786700Y-84810600D03*
X32611700Y-84810600D03*
%TD*%
D25*
%TO.C,R29*%
X14406100Y-80033200D03*
X12581100Y-80033200D03*
%TD*%
%TO.C,R30*%
X14323700Y-87350600D03*
X12498700Y-87350600D03*
%TD*%
D27*
%TO.C,U1*%
X23825200Y-77001600D03*
X25095200Y-77001600D03*
X26365200Y-77001600D03*
X27635200Y-77001600D03*
X28905200Y-77001600D03*
X30175200Y-77001600D03*
X31445200Y-77001600D03*
X31445200Y-81951600D03*
X30175200Y-81951600D03*
X28905200Y-81951600D03*
X27635200Y-81951600D03*
X26365200Y-81951600D03*
X25095200Y-81951600D03*
X23825200Y-81951600D03*
%TD*%
D28*
%TO.C,J12*%
X6045200Y-64800000D03*
D29*
X6045200Y-67340000D03*
X8585200Y-64800000D03*
X8585200Y-67340000D03*
X11125200Y-64800000D03*
X11125200Y-67340000D03*
X13665200Y-64800000D03*
X13665200Y-67340000D03*
X16205200Y-64800000D03*
X16205200Y-67340000D03*
%TD*%
D24*
%TO.C,R7*%
X23877900Y-43992800D03*
X25702900Y-43992800D03*
%TD*%
D30*
%TO.C,C2*%
X28759000Y-96099100D03*
X28759000Y-92974100D03*
%TD*%
D31*
%TO.C,R34*%
X12172200Y-90371000D03*
X15272200Y-90371000D03*
%TD*%
D19*
%TO.C,C1*%
X26028900Y-95908200D03*
X22903900Y-95908200D03*
%TD*%
D32*
%TO.C,J5*%
X30429200Y-69062600D03*
D33*
X32969200Y-69062600D03*
X35509200Y-69062600D03*
%TD*%
D24*
%TO.C,R23*%
X4402300Y-101648600D03*
X6227300Y-101648600D03*
%TD*%
D34*
%TO.C,R35*%
X28768400Y-90421800D03*
X26768400Y-90421800D03*
%TD*%
D24*
%TO.C,R5*%
X23166700Y-34391600D03*
X24991700Y-34391600D03*
%TD*%
D34*
%TO.C,R15*%
X20564200Y-104341000D03*
X18564200Y-104341000D03*
%TD*%
D35*
%TO.C,R16*%
X24339400Y-91403000D03*
X24339400Y-93403000D03*
%TD*%
D36*
%TO.C,R36*%
X31953200Y-89620600D03*
X31953200Y-87620600D03*
%TD*%
D37*
%TO.C,R24*%
X13620600Y-94382300D03*
X13620600Y-92557300D03*
%TD*%
D38*
%TO.C,U2*%
X19310200Y-99297600D03*
X18040200Y-99297600D03*
X16770200Y-99297600D03*
X15500200Y-99297600D03*
X15500200Y-94347600D03*
X16770200Y-94347600D03*
X18040200Y-94347600D03*
X19310200Y-94347600D03*
%TD*%
D39*
%TO.C,R2*%
X37287200Y-102180600D03*
D40*
X37287200Y-104720600D03*
%TD*%
D32*
%TO.C,J6*%
X30444200Y-63855600D03*
D33*
X32984200Y-63855600D03*
X35524200Y-63855600D03*
%TD*%
D24*
%TO.C,R25*%
X8034500Y-103782200D03*
X9859500Y-103782200D03*
%TD*%
D31*
%TO.C,R33*%
X2647200Y-104391800D03*
X5747200Y-104391800D03*
%TD*%
D24*
%TO.C,R26*%
X7856700Y-91006000D03*
X9681700Y-91006000D03*
%TD*%
%TO.C,R38*%
X25387500Y-66100000D03*
X27212500Y-66100000D03*
%TD*%
%TO.C,R3*%
X23420700Y-19532600D03*
X25245700Y-19532600D03*
%TD*%
%TO.C,R1*%
X23420700Y-5181600D03*
X25245700Y-5181600D03*
%TD*%
D39*
%TO.C,R4*%
X37287200Y-98936600D03*
D40*
X37287200Y-96396600D03*
%TD*%
M02*
