M48
; DRILL file {KiCad 6.0.5-a6ca702e91~116~ubuntu22.04.1} date Wed 08 Jun 2022 04:41:22 PM
; FORMAT={-:-/ absolute / inch / decimal}
; #@! TF.CreationDate,2022-06-08T16:41:22-07:00
; #@! TF.GenerationSoftware,Kicad,Pcbnew,6.0.5-a6ca702e91~116~ubuntu22.04.1
; #@! TF.FileFunction,NonPlated,1,2,NPTH
FMAT,2
INCH
; #@! TA.AperFunction,NonPlated,NPTH,ComponentDrill
T1C0.0472
; #@! TA.AperFunction,NonPlated,NPTH,ComponentDrill
T2C0.0866
%
G90
G05
T1
G00X0.5131Y-0.3287
M15
G01X0.5131Y-0.372
M16
G05
G00X0.5131Y-0.9193
M15
G01X0.5131Y-0.9626
M16
G05
G00X0.5131Y-1.5098
M15
G01X0.5131Y-1.5531
M16
G05
G00X0.5131Y-2.1004
M15
G01X0.5131Y-2.1437
M16
G05
G00X0.9042Y-0.3287
M15
G01X0.9042Y-0.372
M16
G05
G00X0.9042Y-0.9193
M15
G01X0.9042Y-0.9626
M16
G05
G00X0.9042Y-1.5098
M15
G01X0.9042Y-1.5531
M16
G05
G00X0.9042Y-2.1004
M15
G01X0.9042Y-2.1437
M16
G05
G00X1.0643Y-0.3287
M15
G01X1.0643Y-0.372
M16
G05
G00X1.0643Y-0.9193
M15
G01X1.0643Y-0.9626
M16
G05
G00X1.0643Y-1.5098
M15
G01X1.0643Y-1.5531
M16
G05
G00X1.0643Y-2.1004
M15
G01X1.0643Y-2.1437
M16
G05
G00X1.4554Y-0.3287
M15
G01X1.4554Y-0.372
M16
G05
G00X1.4554Y-0.9193
M15
G01X1.4554Y-0.9626
M16
G05
G00X1.4554Y-1.5098
M15
G01X1.4554Y-1.5531
M16
G05
G00X1.4554Y-2.1004
M15
G01X1.4554Y-2.1437
M16
G05
T2
G00X0.8307Y-3.4764
M15
G01X0.8307Y-3.4291
M16
G05
G00X1.4213Y-3.4764
M15
G01X1.4213Y-3.4291
M16
G05
T0
M30
