M48
; DRILL file {KiCad 6.0.5-a6ca702e91~116~ubuntu22.04.1} date Wed 08 Jun 2022 04:41:22 PM
; FORMAT={-:-/ absolute / inch / decimal}
; #@! TF.CreationDate,2022-06-08T16:41:22-07:00
; #@! TF.GenerationSoftware,Kicad,Pcbnew,6.0.5-a6ca702e91~116~ubuntu22.04.1
; #@! TF.FileFunction,Plated,1,2,PTH
FMAT,2
INCH
; #@! TA.AperFunction,Plated,PTH,ViaDrill
T1C0.0150
; #@! TA.AperFunction,Plated,PTH,ComponentDrill
T2C0.0236
; #@! TA.AperFunction,Plated,PTH,ComponentDrill
T3C0.0315
; #@! TA.AperFunction,Plated,PTH,ComponentDrill
T4C0.0394
; #@! TA.AperFunction,Plated,PTH,ComponentDrill
T5C0.0551
%
G90
G05
T1
X0.5282Y-3.8489
X0.5332Y-3.2959
X0.7102Y-3.6059
X0.723Y-3.009
X0.8402Y-3.2489
X0.984Y-3.1002
X0.9892Y-3.5189
X1.013Y-3.294
X1.058Y-2.409
X1.088Y-3.144
X1.148Y-3.334
X1.468Y-3.189
T3
X1.468Y-3.7951
X1.468Y-3.8951
X1.468Y-4.0229
X1.468Y-4.1229
T4
X0.238Y-2.5512
X0.238Y-2.6512
X0.338Y-2.5512
X0.338Y-2.6512
X0.438Y-2.5512
X0.438Y-2.6512
X0.538Y-2.5512
X0.538Y-2.6512
X0.6102Y-0.0748
X0.6102Y-0.6654
X0.6102Y-1.2559
X0.6102Y-1.8465
X0.638Y-2.5512
X0.638Y-2.6512
X0.7087Y-0.0748
X0.7087Y-0.6654
X0.7087Y-1.2559
X0.7087Y-1.8465
X0.8071Y-0.0748
X0.8071Y-0.6654
X0.8071Y-1.2559
X0.8071Y-1.8465
X1.1614Y-0.0748
X1.1614Y-0.6654
X1.1614Y-1.2559
X1.1614Y-1.8465
X1.198Y-2.719
X1.1986Y-2.514
X1.2598Y-0.0748
X1.2598Y-0.6654
X1.2598Y-1.2559
X1.2598Y-1.8465
X1.298Y-2.719
X1.2986Y-2.514
X1.3583Y-0.0748
X1.3583Y-0.6654
X1.3583Y-1.2559
X1.3583Y-1.8465
X1.398Y-2.719
X1.3986Y-2.514
T5
X0.9291Y-3.9055
X0.9291Y-4.1024
X1.126Y-3.9055
X1.126Y-4.1024
X1.3228Y-3.9055
X1.3228Y-4.1024
T2
G00X0.0709Y-0.3366
M15
G01X0.0709Y-0.4035
M16
G05
G00X0.0709Y-0.9272
M15
G01X0.0709Y-0.9941
M16
G05
G00X0.0709Y-1.5177
M15
G01X0.0709Y-1.5846
M16
G05
G00X0.0709Y-2.1083
M15
G01X0.0709Y-2.1752
M16
G05
G00X0.1181Y-3.7264
M15
G01X0.1181Y-3.7933
M16
G05
G00X0.1496Y-3.2736
M15
G01X0.1496Y-3.3406
M16
G05
G00X0.25Y-0.2126
M15
G01X0.1831Y-0.2126
M16
G05
G00X0.25Y-0.5276
M15
G01X0.1831Y-0.5276
M16
G05
G00X0.25Y-0.8031
M15
G01X0.1831Y-0.8031
M16
G05
G00X0.25Y-1.1181
M15
G01X0.1831Y-1.1181
M16
G05
G00X0.25Y-1.3937
M15
G01X0.1831Y-1.3937
M16
G05
G00X0.25Y-1.7087
M15
G01X0.1831Y-1.7087
M16
G05
G00X0.25Y-1.9843
M15
G01X0.1831Y-1.9843
M16
G05
G00X0.25Y-2.2992
M15
G01X0.1831Y-2.2992
M16
G05
G00X0.2421Y-3.9055
M15
G01X0.3091Y-3.9055
M16
G05
G00X0.3287Y-3.1496
M15
G01X0.2618Y-3.1496
M16
G05
G00X0.3287Y-3.4646
M15
G01X0.2618Y-3.4646
M16
G05
G00X0.4331Y-3.7264
M15
G01X0.4331Y-3.7933
M16
G05
T0
M30
