G04 #@! TF.GenerationSoftware,KiCad,Pcbnew,6.0.5-a6ca702e91~116~ubuntu22.04.1*
G04 #@! TF.CreationDate,2022-06-02T14:51:50-07:00*
G04 #@! TF.ProjectId,HEAR,48454152-2e6b-4696-9361-645f70636258,2.1*
G04 #@! TF.SameCoordinates,Original*
G04 #@! TF.FileFunction,Paste,Bot*
G04 #@! TF.FilePolarity,Positive*
%FSLAX46Y46*%
G04 Gerber Fmt 4.6, Leading zero omitted, Abs format (unit mm)*
G04 Created by KiCad (PCBNEW 6.0.5-a6ca702e91~116~ubuntu22.04.1) date 2022-06-02 14:51:50*
%MOMM*%
%LPD*%
G01*
G04 APERTURE LIST*
G04 Aperture macros list*
%AMRoundRect*
0 Rectangle with rounded corners*
0 $1 Rounding radius*
0 $2 $3 $4 $5 $6 $7 $8 $9 X,Y pos of 4 corners*
0 Add a 4 corners polygon primitive as box body*
4,1,4,$2,$3,$4,$5,$6,$7,$8,$9,$2,$3,0*
0 Add four circle primitives for the rounded corners*
1,1,$1+$1,$2,$3*
1,1,$1+$1,$4,$5*
1,1,$1+$1,$6,$7*
1,1,$1+$1,$8,$9*
0 Add four rect primitives between the rounded corners*
20,1,$1+$1,$2,$3,$4,$5,0*
20,1,$1+$1,$4,$5,$6,$7,0*
20,1,$1+$1,$6,$7,$8,$9,0*
20,1,$1+$1,$8,$9,$2,$3,0*%
G04 Aperture macros list end*
%ADD10R,1.000000X1.000000*%
%ADD11RoundRect,0.250000X0.337500X0.475000X-0.337500X0.475000X-0.337500X-0.475000X0.337500X-0.475000X0*%
%ADD12RoundRect,0.250000X-0.475000X0.337500X-0.475000X-0.337500X0.475000X-0.337500X0.475000X0.337500X0*%
%ADD13RoundRect,0.237500X0.237500X-0.300000X0.237500X0.300000X-0.237500X0.300000X-0.237500X-0.300000X0*%
%ADD14RoundRect,0.237500X-0.300000X-0.237500X0.300000X-0.237500X0.300000X0.237500X-0.300000X0.237500X0*%
%ADD15RoundRect,0.237500X0.300000X0.237500X-0.300000X0.237500X-0.300000X-0.237500X0.300000X-0.237500X0*%
%ADD16RoundRect,0.237500X-0.250000X-0.237500X0.250000X-0.237500X0.250000X0.237500X-0.250000X0.237500X0*%
%ADD17RoundRect,0.237500X-0.237500X0.250000X-0.237500X-0.250000X0.237500X-0.250000X0.237500X0.250000X0*%
%ADD18RoundRect,0.237500X0.237500X-0.250000X0.237500X0.250000X-0.237500X0.250000X-0.237500X-0.250000X0*%
%ADD19RoundRect,0.237500X0.250000X0.237500X-0.250000X0.237500X-0.250000X-0.237500X0.250000X-0.237500X0*%
%ADD20RoundRect,0.150000X-0.150000X0.825000X-0.150000X-0.825000X0.150000X-0.825000X0.150000X0.825000X0*%
%ADD21RoundRect,0.250000X0.412500X0.650000X-0.412500X0.650000X-0.412500X-0.650000X0.412500X-0.650000X0*%
%ADD22RoundRect,0.250000X-0.400000X-0.625000X0.400000X-0.625000X0.400000X0.625000X-0.400000X0.625000X0*%
%ADD23RoundRect,0.250000X0.350000X0.450000X-0.350000X0.450000X-0.350000X-0.450000X0.350000X-0.450000X0*%
%ADD24RoundRect,0.250000X0.450000X-0.350000X0.450000X0.350000X-0.450000X0.350000X-0.450000X-0.350000X0*%
%ADD25RoundRect,0.250000X-0.450000X0.350000X-0.450000X-0.350000X0.450000X-0.350000X0.450000X0.350000X0*%
%ADD26RoundRect,0.150000X0.825000X0.150000X-0.825000X0.150000X-0.825000X-0.150000X0.825000X-0.150000X0*%
%ADD27RoundRect,0.250000X0.400000X0.625000X-0.400000X0.625000X-0.400000X-0.625000X0.400000X-0.625000X0*%
G04 APERTURE END LIST*
D10*
X17526000Y-100350000D03*
X17526000Y-102850000D03*
X27071000Y-99441000D03*
X29571000Y-99441000D03*
D11*
X28215500Y-102108000D03*
X26140500Y-102108000D03*
D12*
X20320000Y-101705500D03*
X20320000Y-103780500D03*
D13*
X33782000Y-100938500D03*
X33782000Y-99213500D03*
D14*
X30887500Y-113030000D03*
X32612500Y-113030000D03*
D15*
X28929500Y-123317000D03*
X27204500Y-123317000D03*
X37235300Y-129336800D03*
X35510300Y-129336800D03*
D16*
X37441500Y-98425000D03*
X39266500Y-98425000D03*
D17*
X48006000Y-83415500D03*
X48006000Y-85240500D03*
X44653200Y-83415500D03*
X44653200Y-85240500D03*
X39751000Y-100433500D03*
X39751000Y-102258500D03*
D16*
X42521500Y-101092000D03*
X44346500Y-101092000D03*
D18*
X26416000Y-109497500D03*
X26416000Y-107672500D03*
D16*
X34647500Y-113284000D03*
X36472500Y-113284000D03*
D17*
X24130000Y-107672500D03*
X24130000Y-109497500D03*
D19*
X34948500Y-116332000D03*
X33123500Y-116332000D03*
D20*
X28829000Y-105348000D03*
X30099000Y-105348000D03*
X31369000Y-105348000D03*
X32639000Y-105348000D03*
X33909000Y-105348000D03*
X35179000Y-105348000D03*
X36449000Y-105348000D03*
X36449000Y-110298000D03*
X35179000Y-110298000D03*
X33909000Y-110298000D03*
X32639000Y-110298000D03*
X31369000Y-110298000D03*
X30099000Y-110298000D03*
X28829000Y-110298000D03*
D16*
X38152700Y-69545200D03*
X39977700Y-69545200D03*
D21*
X46012500Y-111404400D03*
X42887500Y-111404400D03*
D22*
X25780400Y-125730000D03*
X28880400Y-125730000D03*
D21*
X46012500Y-114554000D03*
X42887500Y-114554000D03*
D18*
X39268400Y-128471300D03*
X39268400Y-126646300D03*
D23*
X51292000Y-118618000D03*
X49292000Y-118618000D03*
D16*
X37441500Y-59944000D03*
X39266500Y-59944000D03*
D24*
X37211000Y-120481600D03*
X37211000Y-118481600D03*
D25*
X39420800Y-111014000D03*
X39420800Y-113014000D03*
D23*
X51546000Y-103124000D03*
X49546000Y-103124000D03*
D17*
X32893000Y-119483500D03*
X32893000Y-121308500D03*
D26*
X36612600Y-123418600D03*
X36612600Y-124688600D03*
X36612600Y-125958600D03*
X36612600Y-127228600D03*
X31662600Y-127228600D03*
X31662600Y-125958600D03*
X31662600Y-124688600D03*
X31662600Y-123418600D03*
D19*
X41298500Y-124714000D03*
X39473500Y-124714000D03*
D27*
X42647200Y-121412000D03*
X39547200Y-121412000D03*
D16*
X26900500Y-128981200D03*
X28725500Y-128981200D03*
X37441500Y-95504000D03*
X39266500Y-95504000D03*
X37695500Y-45085000D03*
X39520500Y-45085000D03*
X37695500Y-30734000D03*
X39520500Y-30734000D03*
M02*
