G04 #@! TF.GenerationSoftware,KiCad,Pcbnew,6.0.5-a6ca702e91~116~ubuntu22.04.1*
G04 #@! TF.CreationDate,2022-06-02T14:51:50-07:00*
G04 #@! TF.ProjectId,HEAR,48454152-2e6b-4696-9361-645f70636258,2.1*
G04 #@! TF.SameCoordinates,Original*
G04 #@! TF.FileFunction,Legend,Bot*
G04 #@! TF.FilePolarity,Positive*
%FSLAX46Y46*%
G04 Gerber Fmt 4.6, Leading zero omitted, Abs format (unit mm)*
G04 Created by KiCad (PCBNEW 6.0.5-a6ca702e91~116~ubuntu22.04.1) date 2022-06-02 14:51:50*
%MOMM*%
%LPD*%
G01*
G04 APERTURE LIST*
G04 Aperture macros list*
%AMRoundRect*
0 Rectangle with rounded corners*
0 $1 Rounding radius*
0 $2 $3 $4 $5 $6 $7 $8 $9 X,Y pos of 4 corners*
0 Add a 4 corners polygon primitive as box body*
4,1,4,$2,$3,$4,$5,$6,$7,$8,$9,$2,$3,0*
0 Add four circle primitives for the rounded corners*
1,1,$1+$1,$2,$3*
1,1,$1+$1,$4,$5*
1,1,$1+$1,$6,$7*
1,1,$1+$1,$8,$9*
0 Add four rect primitives between the rounded corners*
20,1,$1+$1,$2,$3,$4,$5,0*
20,1,$1+$1,$4,$5,$6,$7,0*
20,1,$1+$1,$6,$7,$8,$9,0*
20,1,$1+$1,$8,$9,$2,$3,0*%
G04 Aperture macros list end*
%ADD10C,0.150000*%
%ADD11C,0.200000*%
%ADD12C,0.120000*%
%ADD13R,1.000000X1.000000*%
%ADD14O,3.300000X2.000000*%
%ADD15O,2.000000X3.300000*%
%ADD16C,4.000000*%
%ADD17C,1.800000*%
%ADD18O,3.240000X2.720000*%
%ADD19R,1.800000X1.800000*%
%ADD20RoundRect,0.250000X0.337500X0.475000X-0.337500X0.475000X-0.337500X-0.475000X0.337500X-0.475000X0*%
%ADD21RoundRect,0.250000X-0.475000X0.337500X-0.475000X-0.337500X0.475000X-0.337500X0.475000X0.337500X0*%
%ADD22RoundRect,0.237500X0.237500X-0.300000X0.237500X0.300000X-0.237500X0.300000X-0.237500X-0.300000X0*%
%ADD23RoundRect,0.237500X-0.300000X-0.237500X0.300000X-0.237500X0.300000X0.237500X-0.300000X0.237500X0*%
%ADD24RoundRect,0.237500X0.300000X0.237500X-0.300000X0.237500X-0.300000X-0.237500X0.300000X-0.237500X0*%
%ADD25RoundRect,0.237500X-0.250000X-0.237500X0.250000X-0.237500X0.250000X0.237500X-0.250000X0.237500X0*%
%ADD26RoundRect,0.237500X-0.237500X0.250000X-0.237500X-0.250000X0.237500X-0.250000X0.237500X0.250000X0*%
%ADD27RoundRect,0.237500X0.237500X-0.250000X0.237500X0.250000X-0.237500X0.250000X-0.237500X-0.250000X0*%
%ADD28RoundRect,0.237500X0.250000X0.237500X-0.250000X0.237500X-0.250000X-0.237500X0.250000X-0.237500X0*%
%ADD29RoundRect,0.150000X-0.150000X0.825000X-0.150000X-0.825000X0.150000X-0.825000X0.150000X0.825000X0*%
%ADD30RoundRect,0.250000X-0.600000X0.600000X-0.600000X-0.600000X0.600000X-0.600000X0.600000X0.600000X0*%
%ADD31C,1.700000*%
%ADD32RoundRect,0.250000X0.412500X0.650000X-0.412500X0.650000X-0.412500X-0.650000X0.412500X-0.650000X0*%
%ADD33RoundRect,0.250000X-0.400000X-0.625000X0.400000X-0.625000X0.400000X0.625000X-0.400000X0.625000X0*%
%ADD34R,1.700000X1.700000*%
%ADD35O,1.700000X1.700000*%
%ADD36RoundRect,0.250000X0.350000X0.450000X-0.350000X0.450000X-0.350000X-0.450000X0.350000X-0.450000X0*%
%ADD37RoundRect,0.250000X0.450000X-0.350000X0.450000X0.350000X-0.450000X0.350000X-0.450000X-0.350000X0*%
%ADD38RoundRect,0.250000X-0.450000X0.350000X-0.450000X-0.350000X0.450000X-0.350000X0.450000X0.350000X0*%
%ADD39RoundRect,0.150000X0.825000X0.150000X-0.825000X0.150000X-0.825000X-0.150000X0.825000X-0.150000X0*%
%ADD40C,1.600000*%
%ADD41O,1.600000X1.600000*%
%ADD42RoundRect,0.250000X0.400000X0.625000X-0.400000X0.625000X-0.400000X-0.625000X0.400000X-0.625000X0*%
G04 APERTURE END LIST*
D10*
X46736000Y-100330000D02*
X46990000Y-100838000D01*
X46482000Y-101346000D02*
X47244000Y-101346000D01*
X46228000Y-104394000D02*
X46482000Y-103886000D01*
X46736000Y-100330000D02*
X46228000Y-100838000D01*
D11*
X40259000Y-94488000D02*
X36576000Y-94488000D01*
X36576000Y-94488000D02*
X36576000Y-99568000D01*
X36576000Y-99568000D02*
X40259000Y-99568000D01*
X40259000Y-99568000D02*
X40259000Y-94488000D01*
D10*
X46482000Y-101346000D02*
X46736000Y-100330000D01*
X46482000Y-101346000D02*
X46228000Y-104394000D01*
X46228000Y-104394000D02*
X45974000Y-103886000D01*
D11*
X45961504Y-39365180D02*
X45961504Y-38365180D01*
X45961504Y-38841371D02*
X45390076Y-38841371D01*
X45390076Y-39365180D02*
X45390076Y-38365180D01*
X44913885Y-38841371D02*
X44580552Y-38841371D01*
X44437695Y-39365180D02*
X44913885Y-39365180D01*
X44913885Y-38365180D01*
X44437695Y-38365180D01*
X44056742Y-39079466D02*
X43580552Y-39079466D01*
X44151980Y-39365180D02*
X43818647Y-38365180D01*
X43485314Y-39365180D01*
X42580552Y-39365180D02*
X42913885Y-38888990D01*
X43151980Y-39365180D02*
X43151980Y-38365180D01*
X42771028Y-38365180D01*
X42675790Y-38412800D01*
X42628171Y-38460419D01*
X42580552Y-38555657D01*
X42580552Y-38698514D01*
X42628171Y-38793752D01*
X42675790Y-38841371D01*
X42771028Y-38888990D01*
X43151980Y-38888990D01*
X41390076Y-39365180D02*
X41390076Y-38365180D01*
X41390076Y-38746133D02*
X41294838Y-38698514D01*
X41104361Y-38698514D01*
X41009123Y-38746133D01*
X40961504Y-38793752D01*
X40913885Y-38888990D01*
X40913885Y-39174704D01*
X40961504Y-39269942D01*
X41009123Y-39317561D01*
X41104361Y-39365180D01*
X41294838Y-39365180D01*
X41390076Y-39317561D01*
X40580552Y-38698514D02*
X40342457Y-39365180D01*
X40104361Y-38698514D02*
X40342457Y-39365180D01*
X40437695Y-39603276D01*
X40485314Y-39650895D01*
X40580552Y-39698514D01*
X38390076Y-39269942D02*
X38437695Y-39317561D01*
X38580552Y-39365180D01*
X38675790Y-39365180D01*
X38818647Y-39317561D01*
X38913885Y-39222323D01*
X38961504Y-39127085D01*
X39009123Y-38936609D01*
X39009123Y-38793752D01*
X38961504Y-38603276D01*
X38913885Y-38508038D01*
X38818647Y-38412800D01*
X38675790Y-38365180D01*
X38580552Y-38365180D01*
X38437695Y-38412800D01*
X38390076Y-38460419D01*
X37961504Y-39365180D02*
X37961504Y-38698514D01*
X37961504Y-38888990D02*
X37913885Y-38793752D01*
X37866266Y-38746133D01*
X37771028Y-38698514D01*
X37675790Y-38698514D01*
X37199600Y-39365180D02*
X37294838Y-39317561D01*
X37342457Y-39269942D01*
X37390076Y-39174704D01*
X37390076Y-38888990D01*
X37342457Y-38793752D01*
X37294838Y-38746133D01*
X37199600Y-38698514D01*
X37056742Y-38698514D01*
X36961504Y-38746133D01*
X36913885Y-38793752D01*
X36866266Y-38888990D01*
X36866266Y-39174704D01*
X36913885Y-39269942D01*
X36961504Y-39317561D01*
X37056742Y-39365180D01*
X37199600Y-39365180D01*
X36532933Y-38698514D02*
X36342457Y-39365180D01*
X36151980Y-38888990D01*
X35961504Y-39365180D01*
X35771028Y-38698514D01*
X35437695Y-39317561D02*
X35342457Y-39365180D01*
X35151980Y-39365180D01*
X35056742Y-39317561D01*
X35009123Y-39222323D01*
X35009123Y-39174704D01*
X35056742Y-39079466D01*
X35151980Y-39031847D01*
X35294838Y-39031847D01*
X35390076Y-38984228D01*
X35437695Y-38888990D01*
X35437695Y-38841371D01*
X35390076Y-38746133D01*
X35294838Y-38698514D01*
X35151980Y-38698514D01*
X35056742Y-38746133D01*
X33818647Y-38841371D02*
X33485314Y-38841371D01*
X33342457Y-39365180D02*
X33818647Y-39365180D01*
X33818647Y-38365180D01*
X33342457Y-38365180D01*
X32771028Y-39365180D02*
X32866266Y-39317561D01*
X32913885Y-39222323D01*
X32913885Y-38365180D01*
X32009123Y-39317561D02*
X32104361Y-39365180D01*
X32294838Y-39365180D01*
X32390076Y-39317561D01*
X32437695Y-39222323D01*
X32437695Y-38841371D01*
X32390076Y-38746133D01*
X32294838Y-38698514D01*
X32104361Y-38698514D01*
X32009123Y-38746133D01*
X31961504Y-38841371D01*
X31961504Y-38936609D01*
X32437695Y-39031847D01*
X31104361Y-39317561D02*
X31199600Y-39365180D01*
X31390076Y-39365180D01*
X31485314Y-39317561D01*
X31532933Y-39269942D01*
X31580552Y-39174704D01*
X31580552Y-38888990D01*
X31532933Y-38793752D01*
X31485314Y-38746133D01*
X31390076Y-38698514D01*
X31199600Y-38698514D01*
X31104361Y-38746133D01*
X30818647Y-38698514D02*
X30437695Y-38698514D01*
X30675790Y-38365180D02*
X30675790Y-39222323D01*
X30628171Y-39317561D01*
X30532933Y-39365180D01*
X30437695Y-39365180D01*
X30104361Y-39365180D02*
X30104361Y-38698514D01*
X30104361Y-38888990D02*
X30056742Y-38793752D01*
X30009123Y-38746133D01*
X29913885Y-38698514D01*
X29818647Y-38698514D01*
X29342457Y-39365180D02*
X29437695Y-39317561D01*
X29485314Y-39269942D01*
X29532933Y-39174704D01*
X29532933Y-38888990D01*
X29485314Y-38793752D01*
X29437695Y-38746133D01*
X29342457Y-38698514D01*
X29199600Y-38698514D01*
X29104361Y-38746133D01*
X29056742Y-38793752D01*
X29009123Y-38888990D01*
X29009123Y-39174704D01*
X29056742Y-39269942D01*
X29104361Y-39317561D01*
X29199600Y-39365180D01*
X29342457Y-39365180D01*
X28580552Y-39365180D02*
X28580552Y-38698514D01*
X28580552Y-38793752D02*
X28532933Y-38746133D01*
X28437695Y-38698514D01*
X28294838Y-38698514D01*
X28199600Y-38746133D01*
X28151980Y-38841371D01*
X28151980Y-39365180D01*
X28151980Y-38841371D02*
X28104361Y-38746133D01*
X28009123Y-38698514D01*
X27866266Y-38698514D01*
X27771028Y-38746133D01*
X27723409Y-38841371D01*
X27723409Y-39365180D01*
X26818647Y-38698514D02*
X26818647Y-39365180D01*
X27247219Y-38698514D02*
X27247219Y-39222323D01*
X27199600Y-39317561D01*
X27104361Y-39365180D01*
X26961504Y-39365180D01*
X26866266Y-39317561D01*
X26818647Y-39269942D01*
X26390076Y-39317561D02*
X26294838Y-39365180D01*
X26104361Y-39365180D01*
X26009123Y-39317561D01*
X25961504Y-39222323D01*
X25961504Y-39174704D01*
X26009123Y-39079466D01*
X26104361Y-39031847D01*
X26247219Y-39031847D01*
X26342457Y-38984228D01*
X26390076Y-38888990D01*
X26390076Y-38841371D01*
X26342457Y-38746133D01*
X26247219Y-38698514D01*
X26104361Y-38698514D01*
X26009123Y-38746133D01*
X25532933Y-39365180D02*
X25532933Y-38698514D01*
X25532933Y-38365180D02*
X25580552Y-38412800D01*
X25532933Y-38460419D01*
X25485314Y-38412800D01*
X25532933Y-38365180D01*
X25532933Y-38460419D01*
X24628171Y-39317561D02*
X24723409Y-39365180D01*
X24913885Y-39365180D01*
X25009123Y-39317561D01*
X25056742Y-39269942D01*
X25104361Y-39174704D01*
X25104361Y-38888990D01*
X25056742Y-38793752D01*
X25009123Y-38746133D01*
X24913885Y-38698514D01*
X24723409Y-38698514D01*
X24628171Y-38746133D01*
D10*
X44847871Y-53022371D02*
X44705014Y-53069990D01*
X44657395Y-53117609D01*
X44609776Y-53212847D01*
X44609776Y-53355704D01*
X44657395Y-53450942D01*
X44705014Y-53498561D01*
X44800252Y-53546180D01*
X45181204Y-53546180D01*
X45181204Y-52546180D01*
X44847871Y-52546180D01*
X44752633Y-52593800D01*
X44705014Y-52641419D01*
X44657395Y-52736657D01*
X44657395Y-52831895D01*
X44705014Y-52927133D01*
X44752633Y-52974752D01*
X44847871Y-53022371D01*
X45181204Y-53022371D01*
X43752633Y-53546180D02*
X43752633Y-53022371D01*
X43800252Y-52927133D01*
X43895490Y-52879514D01*
X44085966Y-52879514D01*
X44181204Y-52927133D01*
X43752633Y-53498561D02*
X43847871Y-53546180D01*
X44085966Y-53546180D01*
X44181204Y-53498561D01*
X44228823Y-53403323D01*
X44228823Y-53308085D01*
X44181204Y-53212847D01*
X44085966Y-53165228D01*
X43847871Y-53165228D01*
X43752633Y-53117609D01*
X43324061Y-53498561D02*
X43228823Y-53546180D01*
X43038347Y-53546180D01*
X42943109Y-53498561D01*
X42895490Y-53403323D01*
X42895490Y-53355704D01*
X42943109Y-53260466D01*
X43038347Y-53212847D01*
X43181204Y-53212847D01*
X43276442Y-53165228D01*
X43324061Y-53069990D01*
X43324061Y-53022371D01*
X43276442Y-52927133D01*
X43181204Y-52879514D01*
X43038347Y-52879514D01*
X42943109Y-52927133D01*
X42085966Y-53498561D02*
X42181204Y-53546180D01*
X42371680Y-53546180D01*
X42466919Y-53498561D01*
X42514538Y-53403323D01*
X42514538Y-53022371D01*
X42466919Y-52927133D01*
X42371680Y-52879514D01*
X42181204Y-52879514D01*
X42085966Y-52927133D01*
X42038347Y-53022371D01*
X42038347Y-53117609D01*
X42514538Y-53212847D01*
X41181204Y-53546180D02*
X41181204Y-52546180D01*
X41181204Y-53498561D02*
X41276442Y-53546180D01*
X41466919Y-53546180D01*
X41562157Y-53498561D01*
X41609776Y-53450942D01*
X41657395Y-53355704D01*
X41657395Y-53069990D01*
X41609776Y-52974752D01*
X41562157Y-52927133D01*
X41466919Y-52879514D01*
X41276442Y-52879514D01*
X41181204Y-52927133D01*
X39800252Y-53546180D02*
X39895490Y-53498561D01*
X39943109Y-53450942D01*
X39990728Y-53355704D01*
X39990728Y-53069990D01*
X39943109Y-52974752D01*
X39895490Y-52927133D01*
X39800252Y-52879514D01*
X39657395Y-52879514D01*
X39562157Y-52927133D01*
X39514538Y-52974752D01*
X39466919Y-53069990D01*
X39466919Y-53355704D01*
X39514538Y-53450942D01*
X39562157Y-53498561D01*
X39657395Y-53546180D01*
X39800252Y-53546180D01*
X39038347Y-52879514D02*
X39038347Y-53546180D01*
X39038347Y-52974752D02*
X38990728Y-52927133D01*
X38895490Y-52879514D01*
X38752633Y-52879514D01*
X38657395Y-52927133D01*
X38609776Y-53022371D01*
X38609776Y-53546180D01*
X37371680Y-53546180D02*
X37371680Y-52879514D01*
X37371680Y-53069990D02*
X37324061Y-52974752D01*
X37276442Y-52927133D01*
X37181204Y-52879514D01*
X37085966Y-52879514D01*
X36324061Y-53546180D02*
X36324061Y-53022371D01*
X36371680Y-52927133D01*
X36466919Y-52879514D01*
X36657395Y-52879514D01*
X36752633Y-52927133D01*
X36324061Y-53498561D02*
X36419300Y-53546180D01*
X36657395Y-53546180D01*
X36752633Y-53498561D01*
X36800252Y-53403323D01*
X36800252Y-53308085D01*
X36752633Y-53212847D01*
X36657395Y-53165228D01*
X36419300Y-53165228D01*
X36324061Y-53117609D01*
X35847871Y-53546180D02*
X35847871Y-52879514D01*
X35847871Y-52974752D02*
X35800252Y-52927133D01*
X35705014Y-52879514D01*
X35562157Y-52879514D01*
X35466919Y-52927133D01*
X35419300Y-53022371D01*
X35419300Y-53546180D01*
X35419300Y-53022371D02*
X35371680Y-52927133D01*
X35276442Y-52879514D01*
X35133585Y-52879514D01*
X35038347Y-52927133D01*
X34990728Y-53022371D01*
X34990728Y-53546180D01*
X34514538Y-52879514D02*
X34514538Y-53879514D01*
X34514538Y-52927133D02*
X34419300Y-52879514D01*
X34228823Y-52879514D01*
X34133585Y-52927133D01*
X34085966Y-52974752D01*
X34038347Y-53069990D01*
X34038347Y-53355704D01*
X34085966Y-53450942D01*
X34133585Y-53498561D01*
X34228823Y-53546180D01*
X34419300Y-53546180D01*
X34514538Y-53498561D01*
X33609776Y-53546180D02*
X33609776Y-52546180D01*
X33181204Y-53546180D02*
X33181204Y-53022371D01*
X33228823Y-52927133D01*
X33324061Y-52879514D01*
X33466919Y-52879514D01*
X33562157Y-52927133D01*
X33609776Y-52974752D01*
X32276442Y-53546180D02*
X32276442Y-53022371D01*
X32324061Y-52927133D01*
X32419300Y-52879514D01*
X32609776Y-52879514D01*
X32705014Y-52927133D01*
X32276442Y-53498561D02*
X32371680Y-53546180D01*
X32609776Y-53546180D01*
X32705014Y-53498561D01*
X32752633Y-53403323D01*
X32752633Y-53308085D01*
X32705014Y-53212847D01*
X32609776Y-53165228D01*
X32371680Y-53165228D01*
X32276442Y-53117609D01*
X31800252Y-52879514D02*
X31800252Y-53546180D01*
X31800252Y-52974752D02*
X31752633Y-52927133D01*
X31657395Y-52879514D01*
X31514538Y-52879514D01*
X31419300Y-52927133D01*
X31371680Y-53022371D01*
X31371680Y-53546180D01*
X30466919Y-53546180D02*
X30466919Y-52546180D01*
X30466919Y-53498561D02*
X30562157Y-53546180D01*
X30752633Y-53546180D01*
X30847871Y-53498561D01*
X30895490Y-53450942D01*
X30943109Y-53355704D01*
X30943109Y-53069990D01*
X30895490Y-52974752D01*
X30847871Y-52927133D01*
X30752633Y-52879514D01*
X30562157Y-52879514D01*
X30466919Y-52927133D01*
X30038347Y-53498561D02*
X29943109Y-53546180D01*
X29752633Y-53546180D01*
X29657395Y-53498561D01*
X29609776Y-53403323D01*
X29609776Y-53355704D01*
X29657395Y-53260466D01*
X29752633Y-53212847D01*
X29895490Y-53212847D01*
X29990728Y-53165228D01*
X30038347Y-53069990D01*
X30038347Y-53022371D01*
X29990728Y-52927133D01*
X29895490Y-52879514D01*
X29752633Y-52879514D01*
X29657395Y-52927133D01*
X28466919Y-52498561D02*
X29324061Y-53784276D01*
X28133585Y-53022371D02*
X27800252Y-53022371D01*
X27657395Y-53546180D02*
X28133585Y-53546180D01*
X28133585Y-52546180D01*
X27657395Y-52546180D01*
X27324061Y-53546180D02*
X26800252Y-52879514D01*
X27324061Y-52879514D02*
X26800252Y-53546180D01*
X26419300Y-53546180D02*
X26419300Y-52879514D01*
X26419300Y-52546180D02*
X26466919Y-52593800D01*
X26419300Y-52641419D01*
X26371680Y-52593800D01*
X26419300Y-52546180D01*
X26419300Y-52641419D01*
X26085966Y-52879514D02*
X25705014Y-52879514D01*
X25943109Y-52546180D02*
X25943109Y-53403323D01*
X25895490Y-53498561D01*
X25800252Y-53546180D01*
X25705014Y-53546180D01*
X25419300Y-53498561D02*
X25324061Y-53546180D01*
X25133585Y-53546180D01*
X25038347Y-53498561D01*
X24990728Y-53403323D01*
X24990728Y-53355704D01*
X25038347Y-53260466D01*
X25133585Y-53212847D01*
X25276442Y-53212847D01*
X25371680Y-53165228D01*
X25419300Y-53069990D01*
X25419300Y-53022371D01*
X25371680Y-52927133D01*
X25276442Y-52879514D01*
X25133585Y-52879514D01*
X25038347Y-52927133D01*
X38276442Y-55156180D02*
X38324061Y-55156180D01*
X38419300Y-55108561D01*
X38562157Y-54965704D01*
X38800252Y-54679990D01*
X38895490Y-54537133D01*
X38943109Y-54394276D01*
X38943109Y-54299038D01*
X38895490Y-54203800D01*
X38800252Y-54156180D01*
X38752633Y-54156180D01*
X38657395Y-54203800D01*
X38609776Y-54299038D01*
X38609776Y-54346657D01*
X38657395Y-54441895D01*
X38705014Y-54489514D01*
X38990728Y-54679990D01*
X39038347Y-54727609D01*
X39085966Y-54822847D01*
X39085966Y-54965704D01*
X39038347Y-55060942D01*
X38990728Y-55108561D01*
X38895490Y-55156180D01*
X38752633Y-55156180D01*
X38657395Y-55108561D01*
X38609776Y-55060942D01*
X38466919Y-54870466D01*
X38419300Y-54727609D01*
X38419300Y-54632371D01*
X37133585Y-55108561D02*
X37038347Y-55156180D01*
X36847871Y-55156180D01*
X36752633Y-55108561D01*
X36705014Y-55013323D01*
X36705014Y-54965704D01*
X36752633Y-54870466D01*
X36847871Y-54822847D01*
X36990728Y-54822847D01*
X37085966Y-54775228D01*
X37133585Y-54679990D01*
X37133585Y-54632371D01*
X37085966Y-54537133D01*
X36990728Y-54489514D01*
X36847871Y-54489514D01*
X36752633Y-54537133D01*
X35847871Y-55156180D02*
X35847871Y-54632371D01*
X35895490Y-54537133D01*
X35990728Y-54489514D01*
X36181204Y-54489514D01*
X36276442Y-54537133D01*
X35847871Y-55108561D02*
X35943109Y-55156180D01*
X36181204Y-55156180D01*
X36276442Y-55108561D01*
X36324061Y-55013323D01*
X36324061Y-54918085D01*
X36276442Y-54822847D01*
X36181204Y-54775228D01*
X35943109Y-54775228D01*
X35847871Y-54727609D01*
X35371680Y-55156180D02*
X35371680Y-54489514D01*
X35371680Y-54679990D02*
X35324061Y-54584752D01*
X35276442Y-54537133D01*
X35181204Y-54489514D01*
X35085966Y-54489514D01*
X34752633Y-54489514D02*
X34752633Y-55156180D01*
X34752633Y-54584752D02*
X34705014Y-54537133D01*
X34609776Y-54489514D01*
X34466919Y-54489514D01*
X34371680Y-54537133D01*
X34324061Y-54632371D01*
X34324061Y-55156180D01*
X33466919Y-55108561D02*
X33562157Y-55156180D01*
X33752633Y-55156180D01*
X33847871Y-55108561D01*
X33895490Y-55013323D01*
X33895490Y-54632371D01*
X33847871Y-54537133D01*
X33752633Y-54489514D01*
X33562157Y-54489514D01*
X33466919Y-54537133D01*
X33419300Y-54632371D01*
X33419300Y-54727609D01*
X33895490Y-54822847D01*
X33038347Y-55108561D02*
X32943109Y-55156180D01*
X32752633Y-55156180D01*
X32657395Y-55108561D01*
X32609776Y-55013323D01*
X32609776Y-54965704D01*
X32657395Y-54870466D01*
X32752633Y-54822847D01*
X32895490Y-54822847D01*
X32990728Y-54775228D01*
X33038347Y-54679990D01*
X33038347Y-54632371D01*
X32990728Y-54537133D01*
X32895490Y-54489514D01*
X32752633Y-54489514D01*
X32657395Y-54537133D01*
X32181204Y-54489514D02*
X32181204Y-55346657D01*
X32228823Y-55441895D01*
X32324061Y-55489514D01*
X32371680Y-55489514D01*
X32181204Y-54156180D02*
X32228823Y-54203800D01*
X32181204Y-54251419D01*
X32133585Y-54203800D01*
X32181204Y-54156180D01*
X32181204Y-54251419D01*
X31562157Y-55156180D02*
X31657395Y-55108561D01*
X31705014Y-55060942D01*
X31752633Y-54965704D01*
X31752633Y-54679990D01*
X31705014Y-54584752D01*
X31657395Y-54537133D01*
X31562157Y-54489514D01*
X31419300Y-54489514D01*
X31324061Y-54537133D01*
X31276442Y-54584752D01*
X31228823Y-54679990D01*
X31228823Y-54965704D01*
X31276442Y-55060942D01*
X31324061Y-55108561D01*
X31419300Y-55156180D01*
X31562157Y-55156180D01*
X30085966Y-54108561D02*
X30943109Y-55394276D01*
X29752633Y-54489514D02*
X29752633Y-55156180D01*
X29752633Y-54584752D02*
X29705014Y-54537133D01*
X29609776Y-54489514D01*
X29466919Y-54489514D01*
X29371680Y-54537133D01*
X29324061Y-54632371D01*
X29324061Y-55156180D01*
X28466919Y-55108561D02*
X28562157Y-55156180D01*
X28752633Y-55156180D01*
X28847871Y-55108561D01*
X28895490Y-55013323D01*
X28895490Y-54632371D01*
X28847871Y-54537133D01*
X28752633Y-54489514D01*
X28562157Y-54489514D01*
X28466919Y-54537133D01*
X28419300Y-54632371D01*
X28419300Y-54727609D01*
X28895490Y-54822847D01*
X27562157Y-55156180D02*
X27562157Y-54632371D01*
X27609776Y-54537133D01*
X27705014Y-54489514D01*
X27895490Y-54489514D01*
X27990728Y-54537133D01*
X27562157Y-55108561D02*
X27657395Y-55156180D01*
X27895490Y-55156180D01*
X27990728Y-55108561D01*
X28038347Y-55013323D01*
X28038347Y-54918085D01*
X27990728Y-54822847D01*
X27895490Y-54775228D01*
X27657395Y-54775228D01*
X27562157Y-54727609D01*
X27085966Y-55156180D02*
X27085966Y-54489514D01*
X27085966Y-54679990D02*
X27038347Y-54584752D01*
X26990728Y-54537133D01*
X26895490Y-54489514D01*
X26800252Y-54489514D01*
X26466919Y-54489514D02*
X26466919Y-55156180D01*
X26466919Y-54584752D02*
X26419300Y-54537133D01*
X26324061Y-54489514D01*
X26181204Y-54489514D01*
X26085966Y-54537133D01*
X26038347Y-54632371D01*
X26038347Y-55156180D01*
X25181204Y-55108561D02*
X25276442Y-55156180D01*
X25466919Y-55156180D01*
X25562157Y-55108561D01*
X25609776Y-55013323D01*
X25609776Y-54632371D01*
X25562157Y-54537133D01*
X25466919Y-54489514D01*
X25276442Y-54489514D01*
X25181204Y-54537133D01*
X25133585Y-54632371D01*
X25133585Y-54727609D01*
X25609776Y-54822847D01*
X24752633Y-55108561D02*
X24657395Y-55156180D01*
X24466919Y-55156180D01*
X24371680Y-55108561D01*
X24324061Y-55013323D01*
X24324061Y-54965704D01*
X24371680Y-54870466D01*
X24466919Y-54822847D01*
X24609776Y-54822847D01*
X24705014Y-54775228D01*
X24752633Y-54679990D01*
X24752633Y-54632371D01*
X24705014Y-54537133D01*
X24609776Y-54489514D01*
X24466919Y-54489514D01*
X24371680Y-54537133D01*
X23943109Y-55108561D02*
X23847871Y-55156180D01*
X23657395Y-55156180D01*
X23562157Y-55108561D01*
X23514538Y-55013323D01*
X23514538Y-54965704D01*
X23562157Y-54870466D01*
X23657395Y-54822847D01*
X23800252Y-54822847D01*
X23895490Y-54775228D01*
X23943109Y-54679990D01*
X23943109Y-54632371D01*
X23895490Y-54537133D01*
X23800252Y-54489514D01*
X23657395Y-54489514D01*
X23562157Y-54537133D01*
X18478285Y-87142628D02*
X17716380Y-87142628D01*
X16716380Y-87523580D02*
X17287809Y-87523580D01*
X17002095Y-87523580D02*
X17002095Y-86523580D01*
X17097333Y-86666438D01*
X17192571Y-86761676D01*
X17287809Y-86809295D01*
X16335428Y-86618819D02*
X16287809Y-86571200D01*
X16192571Y-86523580D01*
X15954476Y-86523580D01*
X15859238Y-86571200D01*
X15811619Y-86618819D01*
X15764000Y-86714057D01*
X15764000Y-86809295D01*
X15811619Y-86952152D01*
X16383047Y-87523580D01*
X15764000Y-87523580D01*
X15430666Y-86856914D02*
X15192571Y-87523580D01*
X14954476Y-86856914D01*
X51363142Y-86415619D02*
X51315523Y-86368000D01*
X51220285Y-86320380D01*
X50982190Y-86320380D01*
X50886952Y-86368000D01*
X50839333Y-86415619D01*
X50791714Y-86510857D01*
X50791714Y-86606095D01*
X50839333Y-86748952D01*
X51410761Y-87320380D01*
X50791714Y-87320380D01*
X49648857Y-86272761D02*
X50506000Y-87558476D01*
X49410761Y-86320380D02*
X48791714Y-86320380D01*
X49125047Y-86701333D01*
X48982190Y-86701333D01*
X48886952Y-86748952D01*
X48839333Y-86796571D01*
X48791714Y-86891809D01*
X48791714Y-87129904D01*
X48839333Y-87225142D01*
X48886952Y-87272761D01*
X48982190Y-87320380D01*
X49267904Y-87320380D01*
X49363142Y-87272761D01*
X49410761Y-87225142D01*
X47077428Y-86368000D02*
X47172666Y-86320380D01*
X47315523Y-86320380D01*
X47458380Y-86368000D01*
X47553619Y-86463238D01*
X47601238Y-86558476D01*
X47648857Y-86748952D01*
X47648857Y-86891809D01*
X47601238Y-87082285D01*
X47553619Y-87177523D01*
X47458380Y-87272761D01*
X47315523Y-87320380D01*
X47220285Y-87320380D01*
X47077428Y-87272761D01*
X47029809Y-87225142D01*
X47029809Y-86891809D01*
X47220285Y-86891809D01*
X46648857Y-87034666D02*
X46172666Y-87034666D01*
X46744095Y-87320380D02*
X46410761Y-86320380D01*
X46077428Y-87320380D01*
X45744095Y-87320380D02*
X45744095Y-86320380D01*
X45267904Y-87320380D02*
X45267904Y-86320380D01*
X44696476Y-87320380D01*
X44696476Y-86320380D01*
X35623333Y-87193428D02*
X34861428Y-87193428D01*
X35242380Y-87574380D02*
X35242380Y-86812476D01*
X33861428Y-87574380D02*
X34432857Y-87574380D01*
X34147142Y-87574380D02*
X34147142Y-86574380D01*
X34242380Y-86717238D01*
X34337619Y-86812476D01*
X34432857Y-86860095D01*
X33480476Y-86669619D02*
X33432857Y-86622000D01*
X33337619Y-86574380D01*
X33099523Y-86574380D01*
X33004285Y-86622000D01*
X32956666Y-86669619D01*
X32909047Y-86764857D01*
X32909047Y-86860095D01*
X32956666Y-87002952D01*
X33528095Y-87574380D01*
X32909047Y-87574380D01*
X39277594Y-40495173D02*
X40080280Y-40361656D01*
X39563308Y-40990044D01*
X39008058Y-40980704D02*
X38348229Y-41361656D01*
X39282571Y-93226000D02*
X39377809Y-93178380D01*
X39520666Y-93178380D01*
X39663523Y-93226000D01*
X39758761Y-93321238D01*
X39806380Y-93416476D01*
X39854000Y-93606952D01*
X39854000Y-93749809D01*
X39806380Y-93940285D01*
X39758761Y-94035523D01*
X39663523Y-94130761D01*
X39520666Y-94178380D01*
X39425428Y-94178380D01*
X39282571Y-94130761D01*
X39234952Y-94083142D01*
X39234952Y-93749809D01*
X39425428Y-93749809D01*
X38854000Y-93892666D02*
X38377809Y-93892666D01*
X38949238Y-94178380D02*
X38615904Y-93178380D01*
X38282571Y-94178380D01*
X37949238Y-94178380D02*
X37949238Y-93178380D01*
X37473047Y-94178380D02*
X37473047Y-93178380D01*
X36901619Y-94178380D01*
X36901619Y-93178380D01*
X37707691Y-42619825D02*
X37774942Y-42616300D01*
X37905920Y-42542000D01*
X37969647Y-42471224D01*
X38029849Y-42333197D01*
X38022800Y-42198695D01*
X37983888Y-42099580D01*
X37874200Y-41936739D01*
X37768036Y-41841149D01*
X37594621Y-41749084D01*
X37491982Y-41720745D01*
X37357480Y-41727794D01*
X37226502Y-41802094D01*
X37162775Y-41872869D01*
X37102573Y-42010896D01*
X37106098Y-42078148D01*
X37038560Y-43362970D02*
X37105812Y-43359445D01*
X37236790Y-43285145D01*
X37300516Y-43214369D01*
X37360718Y-43076342D01*
X37353670Y-42941840D01*
X37314757Y-42842725D01*
X37205069Y-42679884D01*
X37098906Y-42584294D01*
X36925491Y-42492228D01*
X36822852Y-42463889D01*
X36688349Y-42470938D01*
X36557371Y-42545239D01*
X36493645Y-42616014D01*
X36433442Y-42754041D01*
X36436967Y-42821292D01*
X35700442Y-44208610D02*
X35640240Y-44346637D01*
X35643764Y-44413889D01*
X35682677Y-44513003D01*
X35788840Y-44608593D01*
X35891479Y-44636932D01*
X35958731Y-44633408D01*
X36057845Y-44594495D01*
X36312752Y-44311393D01*
X35569607Y-43642262D01*
X35346564Y-43889977D01*
X35318225Y-43992616D01*
X35321749Y-44059867D01*
X35360662Y-44158982D01*
X35431437Y-44222708D01*
X35534076Y-44251047D01*
X35601328Y-44247523D01*
X35700442Y-44208610D01*
X35923486Y-43960896D01*
X35162289Y-44877455D02*
X35516168Y-45196089D01*
X34996067Y-44279243D02*
X35162289Y-44877455D01*
X34549980Y-44774673D01*
X34786978Y-45436612D02*
X34277164Y-46002817D01*
X34238109Y-46544352D02*
X34177907Y-46682378D01*
X34018590Y-46859318D01*
X33919475Y-46898230D01*
X33852224Y-46901754D01*
X33749585Y-46873416D01*
X33678809Y-46809689D01*
X33639897Y-46710574D01*
X33636373Y-46643323D01*
X33664711Y-46540684D01*
X33756777Y-46367269D01*
X33785116Y-46264630D01*
X33781591Y-46197379D01*
X33742679Y-46098264D01*
X33671903Y-46034538D01*
X33569264Y-46006199D01*
X33502013Y-46009723D01*
X33402899Y-46048636D01*
X33243582Y-46225575D01*
X33183380Y-46363602D01*
X33423902Y-47092792D02*
X33105269Y-47446670D01*
X33699956Y-47213196D02*
X32733768Y-46791780D01*
X33253869Y-47708626D01*
X31738812Y-48394950D02*
X32234242Y-48841037D01*
X31615026Y-47963104D02*
X32305160Y-48264115D01*
X31890937Y-48724157D01*
X31812969Y-49166577D02*
X31816493Y-49233828D01*
X31883745Y-49230304D01*
X31880220Y-49163052D01*
X31812969Y-49166577D01*
X31883745Y-49230304D01*
X30694513Y-49056603D02*
X30630786Y-49127379D01*
X30602447Y-49230018D01*
X30605972Y-49297269D01*
X30644884Y-49396383D01*
X30754572Y-49559225D01*
X30931511Y-49718541D01*
X31104926Y-49810607D01*
X31207565Y-49838946D01*
X31274816Y-49835421D01*
X31373931Y-49796509D01*
X31437658Y-49725733D01*
X31465996Y-49623094D01*
X31462472Y-49555843D01*
X31423560Y-49456729D01*
X31313872Y-49293887D01*
X31136932Y-49134570D01*
X30963518Y-49042505D01*
X30860879Y-49014166D01*
X30793627Y-49017690D01*
X30694513Y-49056603D01*
D11*
X50180523Y-91527380D02*
X49561476Y-91527380D01*
X49894809Y-91908333D01*
X49751952Y-91908333D01*
X49656714Y-91955952D01*
X49609095Y-92003571D01*
X49561476Y-92098809D01*
X49561476Y-92336904D01*
X49609095Y-92432142D01*
X49656714Y-92479761D01*
X49751952Y-92527380D01*
X50037666Y-92527380D01*
X50132904Y-92479761D01*
X50180523Y-92432142D01*
X47656714Y-91622619D02*
X47609095Y-91575000D01*
X47513857Y-91527380D01*
X47275761Y-91527380D01*
X47180523Y-91575000D01*
X47132904Y-91622619D01*
X47085285Y-91717857D01*
X47085285Y-91813095D01*
X47132904Y-91955952D01*
X47704333Y-92527380D01*
X47085285Y-92527380D01*
X44609095Y-92527380D02*
X45180523Y-92527380D01*
X44894809Y-92527380D02*
X44894809Y-91527380D01*
X44990047Y-91670238D01*
X45085285Y-91765476D01*
X45180523Y-91813095D01*
D10*
X16128380Y-100861904D02*
X15128380Y-100861904D01*
X15128380Y-101100000D01*
X15176000Y-101242857D01*
X15271238Y-101338095D01*
X15366476Y-101385714D01*
X15556952Y-101433333D01*
X15699809Y-101433333D01*
X15890285Y-101385714D01*
X15985523Y-101338095D01*
X16080761Y-101242857D01*
X16128380Y-101100000D01*
X16128380Y-100861904D01*
X15223619Y-101814285D02*
X15176000Y-101861904D01*
X15128380Y-101957142D01*
X15128380Y-102195238D01*
X15176000Y-102290476D01*
X15223619Y-102338095D01*
X15318857Y-102385714D01*
X15414095Y-102385714D01*
X15556952Y-102338095D01*
X16128380Y-101766666D01*
X16128380Y-102385714D01*
X25884095Y-99043380D02*
X25884095Y-98043380D01*
X25646000Y-98043380D01*
X25503142Y-98091000D01*
X25407904Y-98186238D01*
X25360285Y-98281476D01*
X25312666Y-98471952D01*
X25312666Y-98614809D01*
X25360285Y-98805285D01*
X25407904Y-98900523D01*
X25503142Y-98995761D01*
X25646000Y-99043380D01*
X25884095Y-99043380D01*
X24360285Y-99043380D02*
X24931714Y-99043380D01*
X24646000Y-99043380D02*
X24646000Y-98043380D01*
X24741238Y-98186238D01*
X24836476Y-98281476D01*
X24931714Y-98329095D01*
X24868142Y-101941333D02*
X24915761Y-101893714D01*
X24963380Y-101750857D01*
X24963380Y-101655619D01*
X24915761Y-101512761D01*
X24820523Y-101417523D01*
X24725285Y-101369904D01*
X24534809Y-101322285D01*
X24391952Y-101322285D01*
X24201476Y-101369904D01*
X24106238Y-101417523D01*
X24011000Y-101512761D01*
X23963380Y-101655619D01*
X23963380Y-101750857D01*
X24011000Y-101893714D01*
X24058619Y-101941333D01*
X23963380Y-102846095D02*
X23963380Y-102369904D01*
X24439571Y-102322285D01*
X24391952Y-102369904D01*
X24344333Y-102465142D01*
X24344333Y-102703238D01*
X24391952Y-102798476D01*
X24439571Y-102846095D01*
X24534809Y-102893714D01*
X24772904Y-102893714D01*
X24868142Y-102846095D01*
X24915761Y-102798476D01*
X24963380Y-102703238D01*
X24963380Y-102465142D01*
X24915761Y-102369904D01*
X24868142Y-102322285D01*
X20677142Y-99401333D02*
X20724761Y-99353714D01*
X20772380Y-99210857D01*
X20772380Y-99115619D01*
X20724761Y-98972761D01*
X20629523Y-98877523D01*
X20534285Y-98829904D01*
X20343809Y-98782285D01*
X20200952Y-98782285D01*
X20010476Y-98829904D01*
X19915238Y-98877523D01*
X19820000Y-98972761D01*
X19772380Y-99115619D01*
X19772380Y-99210857D01*
X19820000Y-99353714D01*
X19867619Y-99401333D01*
X19772380Y-100258476D02*
X19772380Y-100068000D01*
X19820000Y-99972761D01*
X19867619Y-99925142D01*
X20010476Y-99829904D01*
X20200952Y-99782285D01*
X20581904Y-99782285D01*
X20677142Y-99829904D01*
X20724761Y-99877523D01*
X20772380Y-99972761D01*
X20772380Y-100163238D01*
X20724761Y-100258476D01*
X20677142Y-100306095D01*
X20581904Y-100353714D01*
X20343809Y-100353714D01*
X20248571Y-100306095D01*
X20200952Y-100258476D01*
X20153333Y-100163238D01*
X20153333Y-99972761D01*
X20200952Y-99877523D01*
X20248571Y-99829904D01*
X20343809Y-99782285D01*
X35569142Y-99909333D02*
X35616761Y-99861714D01*
X35664380Y-99718857D01*
X35664380Y-99623619D01*
X35616761Y-99480761D01*
X35521523Y-99385523D01*
X35426285Y-99337904D01*
X35235809Y-99290285D01*
X35092952Y-99290285D01*
X34902476Y-99337904D01*
X34807238Y-99385523D01*
X34712000Y-99480761D01*
X34664380Y-99623619D01*
X34664380Y-99718857D01*
X34712000Y-99861714D01*
X34759619Y-99909333D01*
X34664380Y-100242666D02*
X34664380Y-100909333D01*
X35664380Y-100480761D01*
X31916666Y-114817142D02*
X31964285Y-114864761D01*
X32107142Y-114912380D01*
X32202380Y-114912380D01*
X32345238Y-114864761D01*
X32440476Y-114769523D01*
X32488095Y-114674285D01*
X32535714Y-114483809D01*
X32535714Y-114340952D01*
X32488095Y-114150476D01*
X32440476Y-114055238D01*
X32345238Y-113960000D01*
X32202380Y-113912380D01*
X32107142Y-113912380D01*
X31964285Y-113960000D01*
X31916666Y-114007619D01*
X31345238Y-114340952D02*
X31440476Y-114293333D01*
X31488095Y-114245714D01*
X31535714Y-114150476D01*
X31535714Y-114102857D01*
X31488095Y-114007619D01*
X31440476Y-113960000D01*
X31345238Y-113912380D01*
X31154761Y-113912380D01*
X31059523Y-113960000D01*
X31011904Y-114007619D01*
X30964285Y-114102857D01*
X30964285Y-114150476D01*
X31011904Y-114245714D01*
X31059523Y-114293333D01*
X31154761Y-114340952D01*
X31345238Y-114340952D01*
X31440476Y-114388571D01*
X31488095Y-114436190D01*
X31535714Y-114531428D01*
X31535714Y-114721904D01*
X31488095Y-114817142D01*
X31440476Y-114864761D01*
X31345238Y-114912380D01*
X31154761Y-114912380D01*
X31059523Y-114864761D01*
X31011904Y-114817142D01*
X30964285Y-114721904D01*
X30964285Y-114531428D01*
X31011904Y-114436190D01*
X31059523Y-114388571D01*
X31154761Y-114340952D01*
X28233666Y-122244142D02*
X28281285Y-122291761D01*
X28424142Y-122339380D01*
X28519380Y-122339380D01*
X28662238Y-122291761D01*
X28757476Y-122196523D01*
X28805095Y-122101285D01*
X28852714Y-121910809D01*
X28852714Y-121767952D01*
X28805095Y-121577476D01*
X28757476Y-121482238D01*
X28662238Y-121387000D01*
X28519380Y-121339380D01*
X28424142Y-121339380D01*
X28281285Y-121387000D01*
X28233666Y-121434619D01*
X27757476Y-122339380D02*
X27567000Y-122339380D01*
X27471761Y-122291761D01*
X27424142Y-122244142D01*
X27328904Y-122101285D01*
X27281285Y-121910809D01*
X27281285Y-121529857D01*
X27328904Y-121434619D01*
X27376523Y-121387000D01*
X27471761Y-121339380D01*
X27662238Y-121339380D01*
X27757476Y-121387000D01*
X27805095Y-121434619D01*
X27852714Y-121529857D01*
X27852714Y-121767952D01*
X27805095Y-121863190D01*
X27757476Y-121910809D01*
X27662238Y-121958428D01*
X27471761Y-121958428D01*
X27376523Y-121910809D01*
X27328904Y-121863190D01*
X27281285Y-121767952D01*
X36964857Y-131167142D02*
X37012476Y-131214761D01*
X37155333Y-131262380D01*
X37250571Y-131262380D01*
X37393428Y-131214761D01*
X37488666Y-131119523D01*
X37536285Y-131024285D01*
X37583904Y-130833809D01*
X37583904Y-130690952D01*
X37536285Y-130500476D01*
X37488666Y-130405238D01*
X37393428Y-130310000D01*
X37250571Y-130262380D01*
X37155333Y-130262380D01*
X37012476Y-130310000D01*
X36964857Y-130357619D01*
X36012476Y-131262380D02*
X36583904Y-131262380D01*
X36298190Y-131262380D02*
X36298190Y-130262380D01*
X36393428Y-130405238D01*
X36488666Y-130500476D01*
X36583904Y-130548095D01*
X35393428Y-130262380D02*
X35298190Y-130262380D01*
X35202952Y-130310000D01*
X35155333Y-130357619D01*
X35107714Y-130452857D01*
X35060095Y-130643333D01*
X35060095Y-130881428D01*
X35107714Y-131071904D01*
X35155333Y-131167142D01*
X35202952Y-131214761D01*
X35298190Y-131262380D01*
X35393428Y-131262380D01*
X35488666Y-131214761D01*
X35536285Y-131167142D01*
X35583904Y-131071904D01*
X35631523Y-130881428D01*
X35631523Y-130643333D01*
X35583904Y-130452857D01*
X35536285Y-130357619D01*
X35488666Y-130310000D01*
X35393428Y-130262380D01*
X35694857Y-99258380D02*
X36028190Y-98782190D01*
X36266285Y-99258380D02*
X36266285Y-98258380D01*
X35885333Y-98258380D01*
X35790095Y-98306000D01*
X35742476Y-98353619D01*
X35694857Y-98448857D01*
X35694857Y-98591714D01*
X35742476Y-98686952D01*
X35790095Y-98734571D01*
X35885333Y-98782190D01*
X36266285Y-98782190D01*
X34742476Y-99258380D02*
X35313904Y-99258380D01*
X35028190Y-99258380D02*
X35028190Y-98258380D01*
X35123428Y-98401238D01*
X35218666Y-98496476D01*
X35313904Y-98544095D01*
X34409142Y-98258380D02*
X33742476Y-98258380D01*
X34171047Y-99258380D01*
X47028380Y-83939142D02*
X46552190Y-83605809D01*
X47028380Y-83367714D02*
X46028380Y-83367714D01*
X46028380Y-83748666D01*
X46076000Y-83843904D01*
X46123619Y-83891523D01*
X46218857Y-83939142D01*
X46361714Y-83939142D01*
X46456952Y-83891523D01*
X46504571Y-83843904D01*
X46552190Y-83748666D01*
X46552190Y-83367714D01*
X47028380Y-84891523D02*
X47028380Y-84320095D01*
X47028380Y-84605809D02*
X46028380Y-84605809D01*
X46171238Y-84510571D01*
X46266476Y-84415333D01*
X46314095Y-84320095D01*
X47028380Y-85367714D02*
X47028380Y-85558190D01*
X46980761Y-85653428D01*
X46933142Y-85701047D01*
X46790285Y-85796285D01*
X46599809Y-85843904D01*
X46218857Y-85843904D01*
X46123619Y-85796285D01*
X46076000Y-85748666D01*
X46028380Y-85653428D01*
X46028380Y-85462952D01*
X46076000Y-85367714D01*
X46123619Y-85320095D01*
X46218857Y-85272476D01*
X46456952Y-85272476D01*
X46552190Y-85320095D01*
X46599809Y-85367714D01*
X46647428Y-85462952D01*
X46647428Y-85653428D01*
X46599809Y-85748666D01*
X46552190Y-85796285D01*
X46456952Y-85843904D01*
X43675580Y-83685142D02*
X43199390Y-83351809D01*
X43675580Y-83113714D02*
X42675580Y-83113714D01*
X42675580Y-83494666D01*
X42723200Y-83589904D01*
X42770819Y-83637523D01*
X42866057Y-83685142D01*
X43008914Y-83685142D01*
X43104152Y-83637523D01*
X43151771Y-83589904D01*
X43199390Y-83494666D01*
X43199390Y-83113714D01*
X42770819Y-84066095D02*
X42723200Y-84113714D01*
X42675580Y-84208952D01*
X42675580Y-84447047D01*
X42723200Y-84542285D01*
X42770819Y-84589904D01*
X42866057Y-84637523D01*
X42961295Y-84637523D01*
X43104152Y-84589904D01*
X43675580Y-84018476D01*
X43675580Y-84637523D01*
X42675580Y-85256571D02*
X42675580Y-85351809D01*
X42723200Y-85447047D01*
X42770819Y-85494666D01*
X42866057Y-85542285D01*
X43056533Y-85589904D01*
X43294628Y-85589904D01*
X43485104Y-85542285D01*
X43580342Y-85494666D01*
X43627961Y-85447047D01*
X43675580Y-85351809D01*
X43675580Y-85256571D01*
X43627961Y-85161333D01*
X43580342Y-85113714D01*
X43485104Y-85066095D01*
X43294628Y-85018476D01*
X43056533Y-85018476D01*
X42866057Y-85066095D01*
X42770819Y-85113714D01*
X42723200Y-85161333D01*
X42675580Y-85256571D01*
X38773380Y-100703142D02*
X38297190Y-100369809D01*
X38773380Y-100131714D02*
X37773380Y-100131714D01*
X37773380Y-100512666D01*
X37821000Y-100607904D01*
X37868619Y-100655523D01*
X37963857Y-100703142D01*
X38106714Y-100703142D01*
X38201952Y-100655523D01*
X38249571Y-100607904D01*
X38297190Y-100512666D01*
X38297190Y-100131714D01*
X37868619Y-101084095D02*
X37821000Y-101131714D01*
X37773380Y-101226952D01*
X37773380Y-101465047D01*
X37821000Y-101560285D01*
X37868619Y-101607904D01*
X37963857Y-101655523D01*
X38059095Y-101655523D01*
X38201952Y-101607904D01*
X38773380Y-101036476D01*
X38773380Y-101655523D01*
X38773380Y-102607904D02*
X38773380Y-102036476D01*
X38773380Y-102322190D02*
X37773380Y-102322190D01*
X37916238Y-102226952D01*
X38011476Y-102131714D01*
X38059095Y-102036476D01*
X44076857Y-102974380D02*
X44410190Y-102498190D01*
X44648285Y-102974380D02*
X44648285Y-101974380D01*
X44267333Y-101974380D01*
X44172095Y-102022000D01*
X44124476Y-102069619D01*
X44076857Y-102164857D01*
X44076857Y-102307714D01*
X44124476Y-102402952D01*
X44172095Y-102450571D01*
X44267333Y-102498190D01*
X44648285Y-102498190D01*
X43695904Y-102069619D02*
X43648285Y-102022000D01*
X43553047Y-101974380D01*
X43314952Y-101974380D01*
X43219714Y-102022000D01*
X43172095Y-102069619D01*
X43124476Y-102164857D01*
X43124476Y-102260095D01*
X43172095Y-102402952D01*
X43743523Y-102974380D01*
X43124476Y-102974380D01*
X42743523Y-102069619D02*
X42695904Y-102022000D01*
X42600666Y-101974380D01*
X42362571Y-101974380D01*
X42267333Y-102022000D01*
X42219714Y-102069619D01*
X42172095Y-102164857D01*
X42172095Y-102260095D01*
X42219714Y-102402952D01*
X42791142Y-102974380D01*
X42172095Y-102974380D01*
X26868380Y-104767142D02*
X26392190Y-104433809D01*
X26868380Y-104195714D02*
X25868380Y-104195714D01*
X25868380Y-104576666D01*
X25916000Y-104671904D01*
X25963619Y-104719523D01*
X26058857Y-104767142D01*
X26201714Y-104767142D01*
X26296952Y-104719523D01*
X26344571Y-104671904D01*
X26392190Y-104576666D01*
X26392190Y-104195714D01*
X25963619Y-105148095D02*
X25916000Y-105195714D01*
X25868380Y-105290952D01*
X25868380Y-105529047D01*
X25916000Y-105624285D01*
X25963619Y-105671904D01*
X26058857Y-105719523D01*
X26154095Y-105719523D01*
X26296952Y-105671904D01*
X26868380Y-105100476D01*
X26868380Y-105719523D01*
X25868380Y-106052857D02*
X25868380Y-106719523D01*
X26868380Y-106290952D01*
X36202857Y-115260380D02*
X36536190Y-114784190D01*
X36774285Y-115260380D02*
X36774285Y-114260380D01*
X36393333Y-114260380D01*
X36298095Y-114308000D01*
X36250476Y-114355619D01*
X36202857Y-114450857D01*
X36202857Y-114593714D01*
X36250476Y-114688952D01*
X36298095Y-114736571D01*
X36393333Y-114784190D01*
X36774285Y-114784190D01*
X35821904Y-114355619D02*
X35774285Y-114308000D01*
X35679047Y-114260380D01*
X35440952Y-114260380D01*
X35345714Y-114308000D01*
X35298095Y-114355619D01*
X35250476Y-114450857D01*
X35250476Y-114546095D01*
X35298095Y-114688952D01*
X35869523Y-115260380D01*
X35250476Y-115260380D01*
X34679047Y-114688952D02*
X34774285Y-114641333D01*
X34821904Y-114593714D01*
X34869523Y-114498476D01*
X34869523Y-114450857D01*
X34821904Y-114355619D01*
X34774285Y-114308000D01*
X34679047Y-114260380D01*
X34488571Y-114260380D01*
X34393333Y-114308000D01*
X34345714Y-114355619D01*
X34298095Y-114450857D01*
X34298095Y-114498476D01*
X34345714Y-114593714D01*
X34393333Y-114641333D01*
X34488571Y-114688952D01*
X34679047Y-114688952D01*
X34774285Y-114736571D01*
X34821904Y-114784190D01*
X34869523Y-114879428D01*
X34869523Y-115069904D01*
X34821904Y-115165142D01*
X34774285Y-115212761D01*
X34679047Y-115260380D01*
X34488571Y-115260380D01*
X34393333Y-115212761D01*
X34345714Y-115165142D01*
X34298095Y-115069904D01*
X34298095Y-114879428D01*
X34345714Y-114784190D01*
X34393333Y-114736571D01*
X34488571Y-114688952D01*
X23058380Y-106799142D02*
X22582190Y-106465809D01*
X23058380Y-106227714D02*
X22058380Y-106227714D01*
X22058380Y-106608666D01*
X22106000Y-106703904D01*
X22153619Y-106751523D01*
X22248857Y-106799142D01*
X22391714Y-106799142D01*
X22486952Y-106751523D01*
X22534571Y-106703904D01*
X22582190Y-106608666D01*
X22582190Y-106227714D01*
X22153619Y-107180095D02*
X22106000Y-107227714D01*
X22058380Y-107322952D01*
X22058380Y-107561047D01*
X22106000Y-107656285D01*
X22153619Y-107703904D01*
X22248857Y-107751523D01*
X22344095Y-107751523D01*
X22486952Y-107703904D01*
X23058380Y-107132476D01*
X23058380Y-107751523D01*
X23058380Y-108227714D02*
X23058380Y-108418190D01*
X23010761Y-108513428D01*
X22963142Y-108561047D01*
X22820285Y-108656285D01*
X22629809Y-108703904D01*
X22248857Y-108703904D01*
X22153619Y-108656285D01*
X22106000Y-108608666D01*
X22058380Y-108513428D01*
X22058380Y-108322952D01*
X22106000Y-108227714D01*
X22153619Y-108180095D01*
X22248857Y-108132476D01*
X22486952Y-108132476D01*
X22582190Y-108180095D01*
X22629809Y-108227714D01*
X22677428Y-108322952D01*
X22677428Y-108513428D01*
X22629809Y-108608666D01*
X22582190Y-108656285D01*
X22486952Y-108703904D01*
X31376857Y-116784380D02*
X31710190Y-116308190D01*
X31948285Y-116784380D02*
X31948285Y-115784380D01*
X31567333Y-115784380D01*
X31472095Y-115832000D01*
X31424476Y-115879619D01*
X31376857Y-115974857D01*
X31376857Y-116117714D01*
X31424476Y-116212952D01*
X31472095Y-116260571D01*
X31567333Y-116308190D01*
X31948285Y-116308190D01*
X31043523Y-115784380D02*
X30424476Y-115784380D01*
X30757809Y-116165333D01*
X30614952Y-116165333D01*
X30519714Y-116212952D01*
X30472095Y-116260571D01*
X30424476Y-116355809D01*
X30424476Y-116593904D01*
X30472095Y-116689142D01*
X30519714Y-116736761D01*
X30614952Y-116784380D01*
X30900666Y-116784380D01*
X30995904Y-116736761D01*
X31043523Y-116689142D01*
X29805428Y-115784380D02*
X29710190Y-115784380D01*
X29614952Y-115832000D01*
X29567333Y-115879619D01*
X29519714Y-115974857D01*
X29472095Y-116165333D01*
X29472095Y-116403428D01*
X29519714Y-116593904D01*
X29567333Y-116689142D01*
X29614952Y-116736761D01*
X29710190Y-116784380D01*
X29805428Y-116784380D01*
X29900666Y-116736761D01*
X29948285Y-116689142D01*
X29995904Y-116593904D01*
X30043523Y-116403428D01*
X30043523Y-116165333D01*
X29995904Y-115974857D01*
X29948285Y-115879619D01*
X29900666Y-115832000D01*
X29805428Y-115784380D01*
X36982304Y-102677980D02*
X36982304Y-103487504D01*
X36934685Y-103582742D01*
X36887066Y-103630361D01*
X36791828Y-103677980D01*
X36601352Y-103677980D01*
X36506114Y-103630361D01*
X36458495Y-103582742D01*
X36410876Y-103487504D01*
X36410876Y-102677980D01*
X35410876Y-103677980D02*
X35982304Y-103677980D01*
X35696590Y-103677980D02*
X35696590Y-102677980D01*
X35791828Y-102820838D01*
X35887066Y-102916076D01*
X35982304Y-102963695D01*
X39231866Y-71427580D02*
X39565200Y-70951390D01*
X39803295Y-71427580D02*
X39803295Y-70427580D01*
X39422342Y-70427580D01*
X39327104Y-70475200D01*
X39279485Y-70522819D01*
X39231866Y-70618057D01*
X39231866Y-70760914D01*
X39279485Y-70856152D01*
X39327104Y-70903771D01*
X39422342Y-70951390D01*
X39803295Y-70951390D01*
X38898533Y-70427580D02*
X38231866Y-70427580D01*
X38660438Y-71427580D01*
X44616666Y-109911542D02*
X44664285Y-109959161D01*
X44807142Y-110006780D01*
X44902380Y-110006780D01*
X45045238Y-109959161D01*
X45140476Y-109863923D01*
X45188095Y-109768685D01*
X45235714Y-109578209D01*
X45235714Y-109435352D01*
X45188095Y-109244876D01*
X45140476Y-109149638D01*
X45045238Y-109054400D01*
X44902380Y-109006780D01*
X44807142Y-109006780D01*
X44664285Y-109054400D01*
X44616666Y-109102019D01*
X44235714Y-109102019D02*
X44188095Y-109054400D01*
X44092857Y-109006780D01*
X43854761Y-109006780D01*
X43759523Y-109054400D01*
X43711904Y-109102019D01*
X43664285Y-109197257D01*
X43664285Y-109292495D01*
X43711904Y-109435352D01*
X44283333Y-110006780D01*
X43664285Y-110006780D01*
X27973257Y-128002380D02*
X28306590Y-127526190D01*
X28544685Y-128002380D02*
X28544685Y-127002380D01*
X28163733Y-127002380D01*
X28068495Y-127050000D01*
X28020876Y-127097619D01*
X27973257Y-127192857D01*
X27973257Y-127335714D01*
X28020876Y-127430952D01*
X28068495Y-127478571D01*
X28163733Y-127526190D01*
X28544685Y-127526190D01*
X27639923Y-127002380D02*
X27020876Y-127002380D01*
X27354209Y-127383333D01*
X27211352Y-127383333D01*
X27116114Y-127430952D01*
X27068495Y-127478571D01*
X27020876Y-127573809D01*
X27020876Y-127811904D01*
X27068495Y-127907142D01*
X27116114Y-127954761D01*
X27211352Y-128002380D01*
X27497066Y-128002380D01*
X27592304Y-127954761D01*
X27639923Y-127907142D01*
X26163733Y-127335714D02*
X26163733Y-128002380D01*
X26401828Y-126954761D02*
X26639923Y-127669047D01*
X26020876Y-127669047D01*
X44616666Y-116943142D02*
X44664285Y-116990761D01*
X44807142Y-117038380D01*
X44902380Y-117038380D01*
X45045238Y-116990761D01*
X45140476Y-116895523D01*
X45188095Y-116800285D01*
X45235714Y-116609809D01*
X45235714Y-116466952D01*
X45188095Y-116276476D01*
X45140476Y-116181238D01*
X45045238Y-116086000D01*
X44902380Y-116038380D01*
X44807142Y-116038380D01*
X44664285Y-116086000D01*
X44616666Y-116133619D01*
X43664285Y-117038380D02*
X44235714Y-117038380D01*
X43950000Y-117038380D02*
X43950000Y-116038380D01*
X44045238Y-116181238D01*
X44140476Y-116276476D01*
X44235714Y-116324095D01*
X52030380Y-94281666D02*
X52744666Y-94281666D01*
X52887523Y-94234047D01*
X52982761Y-94138809D01*
X53030380Y-93995952D01*
X53030380Y-93900714D01*
X52030380Y-95234047D02*
X52030380Y-94757857D01*
X52506571Y-94710238D01*
X52458952Y-94757857D01*
X52411333Y-94853095D01*
X52411333Y-95091190D01*
X52458952Y-95186428D01*
X52506571Y-95234047D01*
X52601809Y-95281666D01*
X52839904Y-95281666D01*
X52935142Y-95234047D01*
X52982761Y-95186428D01*
X53030380Y-95091190D01*
X53030380Y-94853095D01*
X52982761Y-94757857D01*
X52935142Y-94710238D01*
X41150780Y-126915942D02*
X40674590Y-126582609D01*
X41150780Y-126344514D02*
X40150780Y-126344514D01*
X40150780Y-126725466D01*
X40198400Y-126820704D01*
X40246019Y-126868323D01*
X40341257Y-126915942D01*
X40484114Y-126915942D01*
X40579352Y-126868323D01*
X40626971Y-126820704D01*
X40674590Y-126725466D01*
X40674590Y-126344514D01*
X40246019Y-127296895D02*
X40198400Y-127344514D01*
X40150780Y-127439752D01*
X40150780Y-127677847D01*
X40198400Y-127773085D01*
X40246019Y-127820704D01*
X40341257Y-127868323D01*
X40436495Y-127868323D01*
X40579352Y-127820704D01*
X41150780Y-127249276D01*
X41150780Y-127868323D01*
X40150780Y-128201657D02*
X40150780Y-128820704D01*
X40531733Y-128487371D01*
X40531733Y-128630228D01*
X40579352Y-128725466D01*
X40626971Y-128773085D01*
X40722209Y-128820704D01*
X40960304Y-128820704D01*
X41055542Y-128773085D01*
X41103161Y-128725466D01*
X41150780Y-128630228D01*
X41150780Y-128344514D01*
X41103161Y-128249276D01*
X41055542Y-128201657D01*
X51696857Y-120848380D02*
X52030190Y-120372190D01*
X52268285Y-120848380D02*
X52268285Y-119848380D01*
X51887333Y-119848380D01*
X51792095Y-119896000D01*
X51744476Y-119943619D01*
X51696857Y-120038857D01*
X51696857Y-120181714D01*
X51744476Y-120276952D01*
X51792095Y-120324571D01*
X51887333Y-120372190D01*
X52268285Y-120372190D01*
X51363523Y-119848380D02*
X50744476Y-119848380D01*
X51077809Y-120229333D01*
X50934952Y-120229333D01*
X50839714Y-120276952D01*
X50792095Y-120324571D01*
X50744476Y-120419809D01*
X50744476Y-120657904D01*
X50792095Y-120753142D01*
X50839714Y-120800761D01*
X50934952Y-120848380D01*
X51220666Y-120848380D01*
X51315904Y-120800761D01*
X51363523Y-120753142D01*
X49839714Y-119848380D02*
X50315904Y-119848380D01*
X50363523Y-120324571D01*
X50315904Y-120276952D01*
X50220666Y-120229333D01*
X49982571Y-120229333D01*
X49887333Y-120276952D01*
X49839714Y-120324571D01*
X49792095Y-120419809D01*
X49792095Y-120657904D01*
X49839714Y-120753142D01*
X49887333Y-120800761D01*
X49982571Y-120848380D01*
X50220666Y-120848380D01*
X50315904Y-120800761D01*
X50363523Y-120753142D01*
X38520666Y-61826380D02*
X38854000Y-61350190D01*
X39092095Y-61826380D02*
X39092095Y-60826380D01*
X38711142Y-60826380D01*
X38615904Y-60874000D01*
X38568285Y-60921619D01*
X38520666Y-61016857D01*
X38520666Y-61159714D01*
X38568285Y-61254952D01*
X38615904Y-61302571D01*
X38711142Y-61350190D01*
X39092095Y-61350190D01*
X37615904Y-60826380D02*
X38092095Y-60826380D01*
X38139714Y-61302571D01*
X38092095Y-61254952D01*
X37996857Y-61207333D01*
X37758761Y-61207333D01*
X37663523Y-61254952D01*
X37615904Y-61302571D01*
X37568285Y-61397809D01*
X37568285Y-61635904D01*
X37615904Y-61731142D01*
X37663523Y-61778761D01*
X37758761Y-61826380D01*
X37996857Y-61826380D01*
X38092095Y-61778761D01*
X38139714Y-61731142D01*
X39314380Y-118229142D02*
X38838190Y-117895809D01*
X39314380Y-117657714D02*
X38314380Y-117657714D01*
X38314380Y-118038666D01*
X38362000Y-118133904D01*
X38409619Y-118181523D01*
X38504857Y-118229142D01*
X38647714Y-118229142D01*
X38742952Y-118181523D01*
X38790571Y-118133904D01*
X38838190Y-118038666D01*
X38838190Y-117657714D01*
X39314380Y-119181523D02*
X39314380Y-118610095D01*
X39314380Y-118895809D02*
X38314380Y-118895809D01*
X38457238Y-118800571D01*
X38552476Y-118705333D01*
X38600095Y-118610095D01*
X38314380Y-120086285D02*
X38314380Y-119610095D01*
X38790571Y-119562476D01*
X38742952Y-119610095D01*
X38695333Y-119705333D01*
X38695333Y-119943428D01*
X38742952Y-120038666D01*
X38790571Y-120086285D01*
X38885809Y-120133904D01*
X39123904Y-120133904D01*
X39219142Y-120086285D01*
X39266761Y-120038666D01*
X39314380Y-119943428D01*
X39314380Y-119705333D01*
X39266761Y-119610095D01*
X39219142Y-119562476D01*
X38298380Y-111117142D02*
X37822190Y-110783809D01*
X38298380Y-110545714D02*
X37298380Y-110545714D01*
X37298380Y-110926666D01*
X37346000Y-111021904D01*
X37393619Y-111069523D01*
X37488857Y-111117142D01*
X37631714Y-111117142D01*
X37726952Y-111069523D01*
X37774571Y-111021904D01*
X37822190Y-110926666D01*
X37822190Y-110545714D01*
X38298380Y-112069523D02*
X38298380Y-111498095D01*
X38298380Y-111783809D02*
X37298380Y-111783809D01*
X37441238Y-111688571D01*
X37536476Y-111593333D01*
X37584095Y-111498095D01*
X37298380Y-112926666D02*
X37298380Y-112736190D01*
X37346000Y-112640952D01*
X37393619Y-112593333D01*
X37536476Y-112498095D01*
X37726952Y-112450476D01*
X38107904Y-112450476D01*
X38203142Y-112498095D01*
X38250761Y-112545714D01*
X38298380Y-112640952D01*
X38298380Y-112831428D01*
X38250761Y-112926666D01*
X38203142Y-112974285D01*
X38107904Y-113021904D01*
X37869809Y-113021904D01*
X37774571Y-112974285D01*
X37726952Y-112926666D01*
X37679333Y-112831428D01*
X37679333Y-112640952D01*
X37726952Y-112545714D01*
X37774571Y-112498095D01*
X37869809Y-112450476D01*
X52204857Y-105354380D02*
X52538190Y-104878190D01*
X52776285Y-105354380D02*
X52776285Y-104354380D01*
X52395333Y-104354380D01*
X52300095Y-104402000D01*
X52252476Y-104449619D01*
X52204857Y-104544857D01*
X52204857Y-104687714D01*
X52252476Y-104782952D01*
X52300095Y-104830571D01*
X52395333Y-104878190D01*
X52776285Y-104878190D01*
X51871523Y-104354380D02*
X51252476Y-104354380D01*
X51585809Y-104735333D01*
X51442952Y-104735333D01*
X51347714Y-104782952D01*
X51300095Y-104830571D01*
X51252476Y-104925809D01*
X51252476Y-105163904D01*
X51300095Y-105259142D01*
X51347714Y-105306761D01*
X51442952Y-105354380D01*
X51728666Y-105354380D01*
X51823904Y-105306761D01*
X51871523Y-105259142D01*
X50395333Y-104354380D02*
X50585809Y-104354380D01*
X50681047Y-104402000D01*
X50728666Y-104449619D01*
X50823904Y-104592476D01*
X50871523Y-104782952D01*
X50871523Y-105163904D01*
X50823904Y-105259142D01*
X50776285Y-105306761D01*
X50681047Y-105354380D01*
X50490571Y-105354380D01*
X50395333Y-105306761D01*
X50347714Y-105259142D01*
X50300095Y-105163904D01*
X50300095Y-104925809D01*
X50347714Y-104830571D01*
X50395333Y-104782952D01*
X50490571Y-104735333D01*
X50681047Y-104735333D01*
X50776285Y-104782952D01*
X50823904Y-104830571D01*
X50871523Y-104925809D01*
X34742380Y-119499142D02*
X34266190Y-119165809D01*
X34742380Y-118927714D02*
X33742380Y-118927714D01*
X33742380Y-119308666D01*
X33790000Y-119403904D01*
X33837619Y-119451523D01*
X33932857Y-119499142D01*
X34075714Y-119499142D01*
X34170952Y-119451523D01*
X34218571Y-119403904D01*
X34266190Y-119308666D01*
X34266190Y-118927714D01*
X33837619Y-119880095D02*
X33790000Y-119927714D01*
X33742380Y-120022952D01*
X33742380Y-120261047D01*
X33790000Y-120356285D01*
X33837619Y-120403904D01*
X33932857Y-120451523D01*
X34028095Y-120451523D01*
X34170952Y-120403904D01*
X34742380Y-119832476D01*
X34742380Y-120451523D01*
X34075714Y-121308666D02*
X34742380Y-121308666D01*
X33694761Y-121070571D02*
X34409047Y-120832476D01*
X34409047Y-121451523D01*
X32054704Y-128433580D02*
X32054704Y-129243104D01*
X32007085Y-129338342D01*
X31959466Y-129385961D01*
X31864228Y-129433580D01*
X31673752Y-129433580D01*
X31578514Y-129385961D01*
X31530895Y-129338342D01*
X31483276Y-129243104D01*
X31483276Y-128433580D01*
X31054704Y-128528819D02*
X31007085Y-128481200D01*
X30911847Y-128433580D01*
X30673752Y-128433580D01*
X30578514Y-128481200D01*
X30530895Y-128528819D01*
X30483276Y-128624057D01*
X30483276Y-128719295D01*
X30530895Y-128862152D01*
X31102323Y-129433580D01*
X30483276Y-129433580D01*
X47664666Y-104338380D02*
X47998000Y-103862190D01*
X48236095Y-104338380D02*
X48236095Y-103338380D01*
X47855142Y-103338380D01*
X47759904Y-103386000D01*
X47712285Y-103433619D01*
X47664666Y-103528857D01*
X47664666Y-103671714D01*
X47712285Y-103766952D01*
X47759904Y-103814571D01*
X47855142Y-103862190D01*
X48236095Y-103862190D01*
X47283714Y-103433619D02*
X47236095Y-103386000D01*
X47140857Y-103338380D01*
X46902761Y-103338380D01*
X46807523Y-103386000D01*
X46759904Y-103433619D01*
X46712285Y-103528857D01*
X46712285Y-103624095D01*
X46759904Y-103766952D01*
X47331333Y-104338380D01*
X46712285Y-104338380D01*
X51903380Y-89023866D02*
X52617666Y-89023866D01*
X52760523Y-88976247D01*
X52855761Y-88881009D01*
X52903380Y-88738152D01*
X52903380Y-88642914D01*
X51903380Y-89928628D02*
X51903380Y-89738152D01*
X51951000Y-89642914D01*
X51998619Y-89595295D01*
X52141476Y-89500057D01*
X52331952Y-89452438D01*
X52712904Y-89452438D01*
X52808142Y-89500057D01*
X52855761Y-89547676D01*
X52903380Y-89642914D01*
X52903380Y-89833390D01*
X52855761Y-89928628D01*
X52808142Y-89976247D01*
X52712904Y-90023866D01*
X52474809Y-90023866D01*
X52379571Y-89976247D01*
X52331952Y-89928628D01*
X52284333Y-89833390D01*
X52284333Y-89642914D01*
X52331952Y-89547676D01*
X52379571Y-89500057D01*
X52474809Y-89452438D01*
X41536857Y-123896380D02*
X41870190Y-123420190D01*
X42108285Y-123896380D02*
X42108285Y-122896380D01*
X41727333Y-122896380D01*
X41632095Y-122944000D01*
X41584476Y-122991619D01*
X41536857Y-123086857D01*
X41536857Y-123229714D01*
X41584476Y-123324952D01*
X41632095Y-123372571D01*
X41727333Y-123420190D01*
X42108285Y-123420190D01*
X41155904Y-122991619D02*
X41108285Y-122944000D01*
X41013047Y-122896380D01*
X40774952Y-122896380D01*
X40679714Y-122944000D01*
X40632095Y-122991619D01*
X40584476Y-123086857D01*
X40584476Y-123182095D01*
X40632095Y-123324952D01*
X41203523Y-123896380D01*
X40584476Y-123896380D01*
X39679714Y-122896380D02*
X40155904Y-122896380D01*
X40203523Y-123372571D01*
X40155904Y-123324952D01*
X40060666Y-123277333D01*
X39822571Y-123277333D01*
X39727333Y-123324952D01*
X39679714Y-123372571D01*
X39632095Y-123467809D01*
X39632095Y-123705904D01*
X39679714Y-123801142D01*
X39727333Y-123848761D01*
X39822571Y-123896380D01*
X40060666Y-123896380D01*
X40155904Y-123848761D01*
X40203523Y-123801142D01*
X44902380Y-120769142D02*
X44426190Y-120435809D01*
X44902380Y-120197714D02*
X43902380Y-120197714D01*
X43902380Y-120578666D01*
X43950000Y-120673904D01*
X43997619Y-120721523D01*
X44092857Y-120769142D01*
X44235714Y-120769142D01*
X44330952Y-120721523D01*
X44378571Y-120673904D01*
X44426190Y-120578666D01*
X44426190Y-120197714D01*
X43902380Y-121102476D02*
X43902380Y-121721523D01*
X44283333Y-121388190D01*
X44283333Y-121531047D01*
X44330952Y-121626285D01*
X44378571Y-121673904D01*
X44473809Y-121721523D01*
X44711904Y-121721523D01*
X44807142Y-121673904D01*
X44854761Y-121626285D01*
X44902380Y-121531047D01*
X44902380Y-121245333D01*
X44854761Y-121150095D01*
X44807142Y-121102476D01*
X43902380Y-122054857D02*
X43902380Y-122673904D01*
X44283333Y-122340571D01*
X44283333Y-122483428D01*
X44330952Y-122578666D01*
X44378571Y-122626285D01*
X44473809Y-122673904D01*
X44711904Y-122673904D01*
X44807142Y-122626285D01*
X44854761Y-122578666D01*
X44902380Y-122483428D01*
X44902380Y-122197714D01*
X44854761Y-122102476D01*
X44807142Y-122054857D01*
X28455857Y-130863580D02*
X28789190Y-130387390D01*
X29027285Y-130863580D02*
X29027285Y-129863580D01*
X28646333Y-129863580D01*
X28551095Y-129911200D01*
X28503476Y-129958819D01*
X28455857Y-130054057D01*
X28455857Y-130196914D01*
X28503476Y-130292152D01*
X28551095Y-130339771D01*
X28646333Y-130387390D01*
X29027285Y-130387390D01*
X28074904Y-129958819D02*
X28027285Y-129911200D01*
X27932047Y-129863580D01*
X27693952Y-129863580D01*
X27598714Y-129911200D01*
X27551095Y-129958819D01*
X27503476Y-130054057D01*
X27503476Y-130149295D01*
X27551095Y-130292152D01*
X28122523Y-130863580D01*
X27503476Y-130863580D01*
X26646333Y-129863580D02*
X26836809Y-129863580D01*
X26932047Y-129911200D01*
X26979666Y-129958819D01*
X27074904Y-130101676D01*
X27122523Y-130292152D01*
X27122523Y-130673104D01*
X27074904Y-130768342D01*
X27027285Y-130815961D01*
X26932047Y-130863580D01*
X26741571Y-130863580D01*
X26646333Y-130815961D01*
X26598714Y-130768342D01*
X26551095Y-130673104D01*
X26551095Y-130435009D01*
X26598714Y-130339771D01*
X26646333Y-130292152D01*
X26741571Y-130244533D01*
X26932047Y-130244533D01*
X27027285Y-130292152D01*
X27074904Y-130339771D01*
X27122523Y-130435009D01*
X38996857Y-97386380D02*
X39330190Y-96910190D01*
X39568285Y-97386380D02*
X39568285Y-96386380D01*
X39187333Y-96386380D01*
X39092095Y-96434000D01*
X39044476Y-96481619D01*
X38996857Y-96576857D01*
X38996857Y-96719714D01*
X39044476Y-96814952D01*
X39092095Y-96862571D01*
X39187333Y-96910190D01*
X39568285Y-96910190D01*
X38663523Y-96386380D02*
X38044476Y-96386380D01*
X38377809Y-96767333D01*
X38234952Y-96767333D01*
X38139714Y-96814952D01*
X38092095Y-96862571D01*
X38044476Y-96957809D01*
X38044476Y-97195904D01*
X38092095Y-97291142D01*
X38139714Y-97338761D01*
X38234952Y-97386380D01*
X38520666Y-97386380D01*
X38615904Y-97338761D01*
X38663523Y-97291142D01*
X37473047Y-96814952D02*
X37568285Y-96767333D01*
X37615904Y-96719714D01*
X37663523Y-96624476D01*
X37663523Y-96576857D01*
X37615904Y-96481619D01*
X37568285Y-96434000D01*
X37473047Y-96386380D01*
X37282571Y-96386380D01*
X37187333Y-96434000D01*
X37139714Y-96481619D01*
X37092095Y-96576857D01*
X37092095Y-96624476D01*
X37139714Y-96719714D01*
X37187333Y-96767333D01*
X37282571Y-96814952D01*
X37473047Y-96814952D01*
X37568285Y-96862571D01*
X37615904Y-96910190D01*
X37663523Y-97005428D01*
X37663523Y-97195904D01*
X37615904Y-97291142D01*
X37568285Y-97338761D01*
X37473047Y-97386380D01*
X37282571Y-97386380D01*
X37187333Y-97338761D01*
X37139714Y-97291142D01*
X37092095Y-97195904D01*
X37092095Y-97005428D01*
X37139714Y-96910190D01*
X37187333Y-96862571D01*
X37282571Y-96814952D01*
X38774666Y-46967380D02*
X39108000Y-46491190D01*
X39346095Y-46967380D02*
X39346095Y-45967380D01*
X38965142Y-45967380D01*
X38869904Y-46015000D01*
X38822285Y-46062619D01*
X38774666Y-46157857D01*
X38774666Y-46300714D01*
X38822285Y-46395952D01*
X38869904Y-46443571D01*
X38965142Y-46491190D01*
X39346095Y-46491190D01*
X38441333Y-45967380D02*
X37822285Y-45967380D01*
X38155619Y-46348333D01*
X38012761Y-46348333D01*
X37917523Y-46395952D01*
X37869904Y-46443571D01*
X37822285Y-46538809D01*
X37822285Y-46776904D01*
X37869904Y-46872142D01*
X37917523Y-46919761D01*
X38012761Y-46967380D01*
X38298476Y-46967380D01*
X38393714Y-46919761D01*
X38441333Y-46872142D01*
X38774666Y-32616380D02*
X39108000Y-32140190D01*
X39346095Y-32616380D02*
X39346095Y-31616380D01*
X38965142Y-31616380D01*
X38869904Y-31664000D01*
X38822285Y-31711619D01*
X38774666Y-31806857D01*
X38774666Y-31949714D01*
X38822285Y-32044952D01*
X38869904Y-32092571D01*
X38965142Y-32140190D01*
X39346095Y-32140190D01*
X37822285Y-32616380D02*
X38393714Y-32616380D01*
X38108000Y-32616380D02*
X38108000Y-31616380D01*
X38203238Y-31759238D01*
X38298476Y-31854476D01*
X38393714Y-31902095D01*
X52522380Y-98639333D02*
X52046190Y-98306000D01*
X52522380Y-98067904D02*
X51522380Y-98067904D01*
X51522380Y-98448857D01*
X51570000Y-98544095D01*
X51617619Y-98591714D01*
X51712857Y-98639333D01*
X51855714Y-98639333D01*
X51950952Y-98591714D01*
X51998571Y-98544095D01*
X52046190Y-98448857D01*
X52046190Y-98067904D01*
X51855714Y-99496476D02*
X52522380Y-99496476D01*
X51474761Y-99258380D02*
X52189047Y-99020285D01*
X52189047Y-99639333D01*
X52434857Y-101798380D02*
X52911047Y-101798380D01*
X52911047Y-100798380D01*
X52101523Y-101798380D02*
X52101523Y-100798380D01*
X51625333Y-101798380D02*
X51625333Y-100798380D01*
X51053904Y-101798380D01*
X51053904Y-100798380D01*
X50053904Y-101798380D02*
X50625333Y-101798380D01*
X50339619Y-101798380D02*
X50339619Y-100798380D01*
X50434857Y-100941238D01*
X50530095Y-101036476D01*
X50625333Y-101084095D01*
X49625333Y-101703142D02*
X49577714Y-101750761D01*
X49625333Y-101798380D01*
X49672952Y-101750761D01*
X49625333Y-101703142D01*
X49625333Y-101798380D01*
X48672952Y-100798380D02*
X49149142Y-100798380D01*
X49196761Y-101274571D01*
X49149142Y-101226952D01*
X49053904Y-101179333D01*
X48815809Y-101179333D01*
X48720571Y-101226952D01*
X48672952Y-101274571D01*
X48625333Y-101369809D01*
X48625333Y-101607904D01*
X48672952Y-101703142D01*
X48720571Y-101750761D01*
X48815809Y-101798380D01*
X49053904Y-101798380D01*
X49149142Y-101750761D01*
X49196761Y-101703142D01*
X48196761Y-101798380D02*
X48196761Y-100798380D01*
X47625333Y-101798380D02*
X48053904Y-101226952D01*
X47625333Y-100798380D02*
X48196761Y-101369809D01*
D12*
X18376000Y-99700000D02*
X18376000Y-102850000D01*
X16676000Y-99700000D02*
X16676000Y-102850000D01*
X16676000Y-99700000D02*
X18376000Y-99700000D01*
X26421000Y-98591000D02*
X29571000Y-98591000D01*
X26421000Y-100291000D02*
X29571000Y-100291000D01*
X26421000Y-100291000D02*
X26421000Y-98591000D01*
X27439252Y-101373000D02*
X26916748Y-101373000D01*
X27439252Y-102843000D02*
X26916748Y-102843000D01*
X21055000Y-102481748D02*
X21055000Y-103004252D01*
X19585000Y-102481748D02*
X19585000Y-103004252D01*
X33272000Y-100222267D02*
X33272000Y-99929733D01*
X34292000Y-100222267D02*
X34292000Y-99929733D01*
X31603733Y-112520000D02*
X31896267Y-112520000D01*
X31603733Y-113540000D02*
X31896267Y-113540000D01*
X28213267Y-122807000D02*
X27920733Y-122807000D01*
X28213267Y-123827000D02*
X27920733Y-123827000D01*
X36519067Y-129846800D02*
X36226533Y-129846800D01*
X36519067Y-128826800D02*
X36226533Y-128826800D01*
X38099276Y-98947500D02*
X38608724Y-98947500D01*
X38099276Y-97902500D02*
X38608724Y-97902500D01*
X47483500Y-84073276D02*
X47483500Y-84582724D01*
X48528500Y-84073276D02*
X48528500Y-84582724D01*
X45175700Y-84073276D02*
X45175700Y-84582724D01*
X44130700Y-84073276D02*
X44130700Y-84582724D01*
X39228500Y-101091276D02*
X39228500Y-101600724D01*
X40273500Y-101091276D02*
X40273500Y-101600724D01*
X43179276Y-100569500D02*
X43688724Y-100569500D01*
X43179276Y-101614500D02*
X43688724Y-101614500D01*
X25893500Y-108839724D02*
X25893500Y-108330276D01*
X26938500Y-108839724D02*
X26938500Y-108330276D01*
X35305276Y-112761500D02*
X35814724Y-112761500D01*
X35305276Y-113806500D02*
X35814724Y-113806500D01*
X23607500Y-108330276D02*
X23607500Y-108839724D01*
X24652500Y-108330276D02*
X24652500Y-108839724D01*
X34290724Y-116854500D02*
X33781276Y-116854500D01*
X34290724Y-115809500D02*
X33781276Y-115809500D01*
X28204000Y-107823000D02*
X28204000Y-104373000D01*
X28204000Y-107823000D02*
X28204000Y-109773000D01*
X37074000Y-107823000D02*
X37074000Y-109773000D01*
X37074000Y-107823000D02*
X37074000Y-105873000D01*
X34034400Y-89714000D02*
X27094400Y-89714000D01*
X27094400Y-89714000D02*
X27094400Y-88404000D01*
X14754400Y-88404000D02*
X14754400Y-97524000D01*
X34034400Y-96214000D02*
X34034400Y-89714000D01*
X22994400Y-88404000D02*
X22994400Y-89714000D01*
X35334400Y-97524000D02*
X35334400Y-88404000D01*
X22994400Y-89714000D02*
X16054400Y-89714000D01*
X14754400Y-97524000D02*
X35334400Y-97524000D01*
X16054400Y-96214000D02*
X34034400Y-96214000D01*
X19464400Y-87014000D02*
X20464400Y-87014000D01*
X35334400Y-88404000D02*
X14754400Y-88404000D01*
X19964400Y-88014000D02*
X19464400Y-87014000D01*
X27094400Y-89714000D02*
X27094400Y-89714000D01*
X16054400Y-89714000D02*
X16054400Y-96214000D01*
X20464400Y-87014000D02*
X19964400Y-88014000D01*
X38810476Y-70067700D02*
X39319924Y-70067700D01*
X38810476Y-69022700D02*
X39319924Y-69022700D01*
X45161252Y-110494400D02*
X43738748Y-110494400D01*
X45161252Y-112314400D02*
X43738748Y-112314400D01*
X26603336Y-124820000D02*
X28057464Y-124820000D01*
X26603336Y-126640000D02*
X28057464Y-126640000D01*
X45161252Y-113644000D02*
X43738748Y-113644000D01*
X45161252Y-115464000D02*
X43738748Y-115464000D01*
X44704000Y-93285000D02*
X43374000Y-93285000D01*
X51114000Y-93285000D02*
X51114000Y-95945000D01*
X43374000Y-93285000D02*
X43374000Y-94615000D01*
X45974000Y-95945000D02*
X51114000Y-95945000D01*
X45974000Y-93285000D02*
X45974000Y-95945000D01*
X45974000Y-93285000D02*
X51114000Y-93285000D01*
X39790900Y-127813524D02*
X39790900Y-127304076D01*
X38745900Y-127813524D02*
X38745900Y-127304076D01*
X50519064Y-117883000D02*
X50064936Y-117883000D01*
X50519064Y-119353000D02*
X50064936Y-119353000D01*
X38099276Y-59421500D02*
X38608724Y-59421500D01*
X38099276Y-60466500D02*
X38608724Y-60466500D01*
X37946000Y-119708664D02*
X37946000Y-119254536D01*
X36476000Y-119708664D02*
X36476000Y-119254536D01*
X40155800Y-111786936D02*
X40155800Y-112241064D01*
X38685800Y-111786936D02*
X38685800Y-112241064D01*
X50773064Y-103859000D02*
X50318936Y-103859000D01*
X50773064Y-102389000D02*
X50318936Y-102389000D01*
X32370500Y-120141276D02*
X32370500Y-120650724D01*
X33415500Y-120141276D02*
X33415500Y-120650724D01*
X34137600Y-122763600D02*
X32187600Y-122763600D01*
X34137600Y-127883600D02*
X32187600Y-127883600D01*
X34137600Y-127883600D02*
X36087600Y-127883600D01*
X34137600Y-122763600D02*
X37587600Y-122763600D01*
X47852000Y-105918000D02*
X47922000Y-105918000D01*
X47852000Y-105918000D02*
G75*
G03*
X47852000Y-105918000I-1370000J0D01*
G01*
X45989000Y-88078000D02*
X45989000Y-90738000D01*
X45989000Y-90738000D02*
X51129000Y-90738000D01*
X43389000Y-88078000D02*
X43389000Y-89408000D01*
X45989000Y-88078000D02*
X51129000Y-88078000D01*
X51129000Y-88078000D02*
X51129000Y-90738000D01*
X44719000Y-88078000D02*
X43389000Y-88078000D01*
X40640724Y-124191500D02*
X40131276Y-124191500D01*
X40640724Y-125236500D02*
X40131276Y-125236500D01*
X41824264Y-120502000D02*
X40370136Y-120502000D01*
X41824264Y-122322000D02*
X40370136Y-122322000D01*
X27558276Y-129503700D02*
X28067724Y-129503700D01*
X27558276Y-128458700D02*
X28067724Y-128458700D01*
X38099276Y-96026500D02*
X38608724Y-96026500D01*
X38099276Y-94981500D02*
X38608724Y-94981500D01*
X38353276Y-45607500D02*
X38862724Y-45607500D01*
X38353276Y-44562500D02*
X38862724Y-44562500D01*
X38353276Y-30211500D02*
X38862724Y-30211500D01*
X38353276Y-31256500D02*
X38862724Y-31256500D01*
X48189000Y-99060000D02*
X48119000Y-99060000D01*
X50929000Y-99060000D02*
G75*
G03*
X50929000Y-99060000I-1370000J0D01*
G01*
%LPC*%
D13*
X17526000Y-100350000D03*
X17526000Y-102850000D03*
X27071000Y-99441000D03*
X29571000Y-99441000D03*
D14*
X19685000Y-53911000D03*
D15*
X15985000Y-49911000D03*
D14*
X19685000Y-45911000D03*
D16*
X41600000Y-79400000D03*
X50400000Y-79400000D03*
D17*
X43500000Y-72400000D03*
X46000000Y-72400000D03*
X48500000Y-72400000D03*
D14*
X19685000Y-38925000D03*
D15*
X15985000Y-34925000D03*
D14*
X19685000Y-30925000D03*
X19685000Y-68897000D03*
D15*
X15985000Y-64897000D03*
D14*
X19685000Y-60897000D03*
D16*
X27100000Y-34400000D03*
X35900000Y-34400000D03*
D17*
X29000000Y-27400000D03*
X31500000Y-27400000D03*
X34000000Y-27400000D03*
D16*
X41600000Y-49400000D03*
X50400000Y-49400000D03*
D17*
X43500000Y-42400000D03*
X46000000Y-42400000D03*
X48500000Y-42400000D03*
D16*
X50400000Y-64400000D03*
X41600000Y-64400000D03*
D17*
X43500000Y-57400000D03*
X46000000Y-57400000D03*
X48500000Y-57400000D03*
D18*
X41503600Y-117616800D03*
X41503600Y-108116800D03*
D19*
X49003600Y-115366800D03*
D17*
X49003600Y-112866800D03*
X49003600Y-110366800D03*
X51503600Y-115366800D03*
X51503600Y-112866800D03*
X51503600Y-110366800D03*
D16*
X35900000Y-64400000D03*
X27100000Y-64400000D03*
D17*
X29000000Y-57400000D03*
X31500000Y-57400000D03*
X34000000Y-57400000D03*
D14*
X21971000Y-122110000D03*
D15*
X18271000Y-118110000D03*
D14*
X21971000Y-114110000D03*
D16*
X27100000Y-49400000D03*
X35900000Y-49400000D03*
D17*
X29000000Y-42400000D03*
X31500000Y-42400000D03*
X34000000Y-42400000D03*
D16*
X27100000Y-79400000D03*
X35900000Y-79400000D03*
D17*
X29000000Y-72400000D03*
X31500000Y-72400000D03*
X34000000Y-72400000D03*
D16*
X50400000Y-34400000D03*
X41600000Y-34400000D03*
D17*
X43500000Y-27400000D03*
X46000000Y-27400000D03*
X48500000Y-27400000D03*
D14*
X19685000Y-83883000D03*
D15*
X15985000Y-79883000D03*
D14*
X19685000Y-75883000D03*
X47498000Y-129222000D03*
D15*
X43798000Y-125222000D03*
D14*
X47498000Y-121222000D03*
D20*
X28215500Y-102108000D03*
X26140500Y-102108000D03*
D21*
X20320000Y-101705500D03*
X20320000Y-103780500D03*
D22*
X33782000Y-100938500D03*
X33782000Y-99213500D03*
D23*
X30887500Y-113030000D03*
X32612500Y-113030000D03*
D24*
X28929500Y-123317000D03*
X27204500Y-123317000D03*
X37235300Y-129336800D03*
X35510300Y-129336800D03*
D25*
X37441500Y-98425000D03*
X39266500Y-98425000D03*
D26*
X48006000Y-83415500D03*
X48006000Y-85240500D03*
X44653200Y-83415500D03*
X44653200Y-85240500D03*
X39751000Y-100433500D03*
X39751000Y-102258500D03*
D25*
X42521500Y-101092000D03*
X44346500Y-101092000D03*
D27*
X26416000Y-109497500D03*
X26416000Y-107672500D03*
D25*
X34647500Y-113284000D03*
X36472500Y-113284000D03*
D26*
X24130000Y-107672500D03*
X24130000Y-109497500D03*
D28*
X34948500Y-116332000D03*
X33123500Y-116332000D03*
D29*
X28829000Y-105348000D03*
X30099000Y-105348000D03*
X31369000Y-105348000D03*
X32639000Y-105348000D03*
X33909000Y-105348000D03*
X35179000Y-105348000D03*
X36449000Y-105348000D03*
X36449000Y-110298000D03*
X35179000Y-110298000D03*
X33909000Y-110298000D03*
X32639000Y-110298000D03*
X31369000Y-110298000D03*
X30099000Y-110298000D03*
X28829000Y-110298000D03*
D30*
X19964400Y-91694000D03*
D31*
X19964400Y-94234000D03*
X22504400Y-91694000D03*
X22504400Y-94234000D03*
X25044400Y-91694000D03*
X25044400Y-94234000D03*
X27584400Y-91694000D03*
X27584400Y-94234000D03*
X30124400Y-91694000D03*
X30124400Y-94234000D03*
D25*
X38152700Y-69545200D03*
X39977700Y-69545200D03*
D32*
X46012500Y-111404400D03*
X42887500Y-111404400D03*
D33*
X25780400Y-125730000D03*
X28880400Y-125730000D03*
D32*
X46012500Y-114554000D03*
X42887500Y-114554000D03*
D34*
X44704000Y-94615000D03*
D35*
X47244000Y-94615000D03*
X49784000Y-94615000D03*
D27*
X39268400Y-128471300D03*
X39268400Y-126646300D03*
D36*
X51292000Y-118618000D03*
X49292000Y-118618000D03*
D25*
X37441500Y-59944000D03*
X39266500Y-59944000D03*
D37*
X37211000Y-120481600D03*
X37211000Y-118481600D03*
D38*
X39420800Y-111014000D03*
X39420800Y-113014000D03*
D36*
X51546000Y-103124000D03*
X49546000Y-103124000D03*
D26*
X32893000Y-119483500D03*
X32893000Y-121308500D03*
D39*
X36612600Y-123418600D03*
X36612600Y-124688600D03*
X36612600Y-125958600D03*
X36612600Y-127228600D03*
X31662600Y-127228600D03*
X31662600Y-125958600D03*
X31662600Y-124688600D03*
X31662600Y-123418600D03*
D40*
X46482000Y-105918000D03*
D41*
X49022000Y-105918000D03*
D34*
X44719000Y-89408000D03*
D35*
X47259000Y-89408000D03*
X49799000Y-89408000D03*
D28*
X41298500Y-124714000D03*
X39473500Y-124714000D03*
D42*
X42647200Y-121412000D03*
X39547200Y-121412000D03*
D25*
X26900500Y-128981200D03*
X28725500Y-128981200D03*
X37441500Y-95504000D03*
X39266500Y-95504000D03*
X37695500Y-45085000D03*
X39520500Y-45085000D03*
X37695500Y-30734000D03*
X39520500Y-30734000D03*
D40*
X49559000Y-99060000D03*
D41*
X47019000Y-99060000D03*
M02*
