M48
; DRILL file {KiCad 6.0.5-a6ca702e91~116~ubuntu22.04.1} date Thu 02 Jun 2022 02:51:54 PM
; FORMAT={-:-/ absolute / metric / decimal}
; #@! TF.CreationDate,2022-06-02T14:51:54-07:00
; #@! TF.GenerationSoftware,Kicad,Pcbnew,6.0.5-a6ca702e91~116~ubuntu22.04.1
; #@! TF.FileFunction,Plated,1,2,PTH
FMAT,2
METRIC
; #@! TA.AperFunction,Plated,PTH,ViaDrill
T1C0.381
; #@! TA.AperFunction,Plated,PTH,ComponentDrill
T2C0.600
; #@! TA.AperFunction,Plated,PTH,ComponentDrill
T3C0.800
; #@! TA.AperFunction,Plated,PTH,ComponentDrill
T4C1.000
; #@! TA.AperFunction,Plated,PTH,ComponentDrill
T5C1.100
%
G90
G05
T1
X17.526Y-106.426
X25.146Y-117.094
X26.924Y-127.508
X27.686Y-114.554
X28.956Y-112.268
X29.921Y-118.415
X31.09Y-119.583
X31.496Y-102.108
X34.798Y-108.458
X39.878Y-86.614
X39.878Y-91.948
X42.418Y-99.314
X44.45Y-119.38
X51.664Y-106.426
T3
X46.482Y-105.918
X47.019Y-99.06
X49.022Y-105.918
X49.559Y-99.06
T4
X19.964Y-91.694
X19.964Y-94.234
X22.504Y-91.694
X22.504Y-94.234
X25.044Y-91.694
X25.044Y-94.234
X27.584Y-91.694
X27.584Y-94.234
X29.0Y-27.4
X29.0Y-42.4
X29.0Y-57.4
X29.0Y-72.4
X30.124Y-91.694
X30.124Y-94.234
X31.5Y-27.4
X31.5Y-42.4
X31.5Y-57.4
X31.5Y-72.4
X34.0Y-27.4
X34.0Y-42.4
X34.0Y-57.4
X34.0Y-72.4
X43.5Y-27.4
X43.5Y-42.4
X43.5Y-57.4
X43.5Y-72.4
X44.704Y-94.615
X44.719Y-89.408
X46.0Y-27.4
X46.0Y-42.4
X46.0Y-57.4
X46.0Y-72.4
X47.244Y-94.615
X47.259Y-89.408
X48.5Y-27.4
X48.5Y-42.4
X48.5Y-57.4
X48.5Y-72.4
X49.004Y-110.367
X49.004Y-112.867
X49.004Y-115.367
X49.784Y-94.615
X49.799Y-89.408
X51.504Y-110.367
X51.504Y-112.867
X51.504Y-115.367
T2
X15.985Y-34.075G85X15.985Y-35.775
G05
X15.985Y-49.061G85X15.985Y-50.761
G05
X15.985Y-64.047G85X15.985Y-65.747
G05
X15.985Y-79.033G85X15.985Y-80.733
G05
X18.271Y-117.26G85X18.271Y-118.96
G05
X20.535Y-30.925G85X18.835Y-30.925
G05
X20.535Y-38.925G85X18.835Y-38.925
G05
X20.535Y-45.911G85X18.835Y-45.911
G05
X20.535Y-53.911G85X18.835Y-53.911
G05
X20.535Y-60.897G85X18.835Y-60.897
G05
X20.535Y-68.897G85X18.835Y-68.897
G05
X20.535Y-75.883G85X18.835Y-75.883
G05
X20.535Y-83.883G85X18.835Y-83.883
G05
X22.821Y-114.11G85X21.121Y-114.11
G05
X22.821Y-122.11G85X21.121Y-122.11
G05
X43.798Y-124.372G85X43.798Y-126.072
G05
X48.348Y-121.222G85X46.648Y-121.222
G05
X48.348Y-129.222G85X46.648Y-129.222
G05
T5
X41.854Y-108.117G85X41.154Y-108.117
G05
X41.854Y-117.617G85X41.154Y-117.617
G05
T0
M30
