999
Created by JSCAD
  0
SECTION
  2
HEADER
  9
$ACADVER
  1
AC1027
  9
$ACADMAINTVER
 70
8
  9
$DWGCODEPAGE
  3
ANSI_1252
  9
$LASTSAVEDBY
  1
unknown
  9
$REQUIREDVERSIONS
160
0
  9
$INSBASE
 10
0.0
 20
0.0
 30
0.0
  9
$EXTMIN
 10
1e+20
 20
1e+20
 30
1e+20
  9
$EXTMAX
 10
-1e+20
 20
-1e+20
 30
-1e+20
  9
$LIMMIN
 10
0.0
 20
0.0
  9
$LIMMAX
 10
12.0
 20
9.0
  9
$ORTHOMODE
 70
0
  9
$REGENMODE
 70
1
  9
$FILLMODE
 70
1
  9
$QTEXTMODE
 70
0
  9
$MIRRTEXT
 70
0
  9
$LTSCALE
 40
1.0
  9
$ATTMODE
 70
1
  9
$TEXTSIZE
 40
0.2
  9
$TRACEWID
 40
0.05
  9
$TEXTSTYLE
  7
Notes
  9
$CLAYER
  8
0
  9
$CELTYPE
  6
ByLayer
  9
$CECOLOR
 62
256
  9
$CELTSCALE
 40
1.0
  9
$DISPSILH
 70
0
  9
$DIMSCALE
 40
1.0
  9
$DIMASZ
 40
3.0
  9
$DIMEXO
 40
1.5
  9
$DIMDLI
 40
6.0
  9
$DIMRND
 40
0.0
  9
$DIMDLE
 40
0.0
  9
$DIMEXE
 40
3.0
  9
$DIMTP
 40
0.0
  9
$DIMTM
 40
0.0
  9
$DIMTXT
 40
3.0
  9
$DIMCEN
 40
3.0
  9
$DIMTSZ
 40
0.0
  9
$DIMTOL
 70
0
  9
$DIMLIM
 70
0
  9
$DIMTIH
 70
0
  9
$DIMTOH
 70
0
  9
$DIMSE1
 70
0
  9
$DIMSE2
 70
0
  9
$DIMTAD
 70
1
  9
$DIMZIN
 70
3
  9
$DIMBLK
  1

  9
$DIMASO
 70
1
  9
$DIMSHO
 70
1
  9
$DIMPOST
  1

  9
$DIMAPOST
  1

  9
$DIMALT
 70
0
  9
$DIMALTD
 70
2
  9
$DIMALTF
 40
25.4
  9
$DIMLFAC
 40
1.0
  9
$DIMTOFL
 70
0
  9
$DIMTVP
 40
0.0
  9
$DIMTIX
 70
0
  9
$DIMSOXD
 70
0
  9
$DIMSAH
 70
0
  9
$DIMBLK1
  1

  9
$DIMBLK2
  1

  9
$DIMSTYLE
  2
Civil-Metric
  9
$DIMCLRD
 70
0
  9
$DIMCLRE
 70
0
  9
$DIMCLRT
 70
0
  9
$DIMTFAC
 40
1.0
  9
$DIMGAP
 40
2.0
  9
$DIMJUST
 70
0
  9
$DIMSD1
 70
0
  9
$DIMSD2
 70
0
  9
$DIMTOLJ
 70
1
  9
$DIMTZIN
 70
0
  9
$DIMALTZ
 70
0
  9
$DIMALTTZ
 70
0
  9
$DIMUPT
 70
0
  9
$DIMDEC
 70
2
  9
$DIMTDEC
 70
2
  9
$DIMALTU
 70
2
  9
$DIMALTTD
 70
2
  9
$DIMTXSTY
  7
Standard
  9
$DIMAUNIT
 70
0
  9
$DIMADEC
 70
2
  9
$DIMALTRND
 40
0.0
  9
$DIMAZIN
 70
2
  9
$DIMDSEP
 70
46
  9
$DIMATFIT
 70
3
  9
$DIMFRAC
 70
1
  9
$DIMLDRBLK
  1

  9
$DIMLUNIT
 70
2
  9
$DIMLWD
 70
-2
  9
$DIMLWE
 70
-2
  9
$DIMTMOVE
 70
0
  9
$DIMFXL
 40
1.0
  9
$DIMFXLON
 70
0
  9
$DIMJOGANG
 40
0.785398163397
  9
$DIMTFILL
 70
0
  9
$DIMTFILLCLR
 70
0
  9
$DIMARCSYM
 70
0
  9
$DIMLTYPE
  6

  9
$DIMLTEX1
  6

  9
$DIMLTEX2
  6

  9
$DIMTXTDIRECTION
 70
0
  9
$LUNITS
 70
2
  9
$LUPREC
 70
4
  9
$SKETCHINC
 40
0.1
  9
$FILLETRAD
 40
0.0
  9
$AUNITS
 70
4
  9
$AUPREC
 70
5
  9
$MENU
  1
.
  9
$ELEVATION
 40
0.0
  9
$PELEVATION
 40
0.0
  9
$THICKNESS
 40
0.0
  9
$LIMCHECK
 70
0
  9
$CHAMFERA
 40
0.0
  9
$CHAMFERB
 40
0.0
  9
$CHAMFERC
 40
0.0
  9
$CHAMFERD
 40
0.0
  9
$SKPOLY
 70
0
  9
$TDCREATE
 40
2457986.69756
  9
$TDUCREATE
 40
2455631.2632
  9
$TDUPDATE
 40
2457986.69756
  9
$TDUUPDATE
 40
2456436.43179
  9
$TDINDWG
 40
0.0003490741
  9
$TDUSRTIMER
 40
0.0003487153
  9
$USRTIMER
 70
1
  9
$ANGBASE
 50
0.0
  9
$ANGDIR
 70
0
  9
$PDMODE
 70
0
  9
$PDSIZE
 40
0.0
  9
$PLINEWID
 40
0.0
  9
$SPLFRAME
 70
0
  9
$SPLINETYPE
 70
6
  9
$SPLINESEGS
 70
8
  9
$HANDSEED
  5
5C7
  9
$SURFTAB1
 70
6
  9
$SURFTAB2
 70
6
  9
$SURFTYPE
 70
6
  9
$SURFU
 70
6
  9
$SURFV
 70
6
  9
$UCSBASE
  2

  9
$UCSNAME
  2

  9
$UCSORG
 10
0.0
 20
0.0
 30
0.0
  9
$UCSXDIR
 10
1.0
 20
0.0
 30
0.0
  9
$UCSYDIR
 10
0.0
 20
1.0
 30
0.0
  9
$UCSORTHOREF
  2

  9
$UCSORTHOVIEW
 70
0
  9
$UCSORGTOP
 10
0.0
 20
0.0
 30
0.0
  9
$UCSORGBOTTOM
 10
0.0
 20
0.0
 30
0.0
  9
$UCSORGLEFT
 10
0.0
 20
0.0
 30
0.0
  9
$UCSORGRIGHT
 10
0.0
 20
0.0
 30
0.0
  9
$UCSORGFRONT
 10
0.0
 20
0.0
 30
0.0
  9
$UCSORGBACK
 10
0.0
 20
0.0
 30
0.0
  9
$PUCSBASE
  2

  9
$PUCSNAME
  2

  9
$PUCSORG
 10
0.0
 20
0.0
 30
0.0
  9
$PUCSXDIR
 10
1.0
 20
0.0
 30
0.0
  9
$PUCSYDIR
 10
0.0
 20
1.0
 30
0.0
  9
$PUCSORTHOREF
  2

  9
$PUCSORTHOVIEW
 70
0
  9
$PUCSORGTOP
 10
0.0
 20
0.0
 30
0.0
  9
$PUCSORGBOTTOM
 10
0.0
 20
0.0
 30
0.0
  9
$PUCSORGLEFT
 10
0.0
 20
0.0
 30
0.0
  9
$PUCSORGRIGHT
 10
0.0
 20
0.0
 30
0.0
  9
$PUCSORGFRONT
 10
0.0
 20
0.0
 30
0.0
  9
$PUCSORGBACK
 10
0.0
 20
0.0
 30
0.0
  9
$USERI1
 70
0
  9
$USERI2
 70
0
  9
$USERI3
 70
0
  9
$USERI4
 70
0
  9
$USERI5
 70
0
  9
$USERR1
 40
0.0
  9
$USERR2
 40
0.0
  9
$USERR3
 40
0.0
  9
$USERR4
 40
0.0
  9
$USERR5
 40
0.0
  9
$WORLDVIEW
 70
1
  9
$SHADEDGE
 70
3
  9
$SHADEDIF
 70
70
  9
$TILEMODE
 70
1
  9
$MAXACTVP
 70
64
  9
$PINSBASE
 10
0.0
 20
0.0
 30
0.0
  9
$PLIMCHECK
 70
0
  9
$PEXTMIN
 10
0.628866766397
 20
0.799999952316
 30
0.0
  9
$PEXTMAX
 10
9.02886638493
 20
7.19999957085
 30
0.0
  9
$PLIMMIN
 10
-0.700541819174
 20
-0.228100386192
  9
$PLIMMAX
 10
10.2994579405
 20
8.27189937351
  9
$UNITMODE
 70
0
  9
$VISRETAIN
 70
1
  9
$PLINEGEN
 70
0
  9
$PSLTSCALE
 70
1
  9
$TREEDEPTH
 70
3020
  9
$CMLSTYLE
  2
Standard
  9
$CMLJUST
 70
0
  9
$CMLSCALE
 40
1.0
  9
$PROXYGRAPHICS
 70
1
  9
$MEASUREMENT
 70
1
  9
$CELWEIGHT
370
-1
  9
$ENDCAPS
280
0
  9
$JOINSTYLE
280
0
  9
$LWDISPLAY
290
0
  9
$INSUNITS
 70
4
  9
$HYPERLINKBASE
  1

  9
$STYLESHEET
  1

  9
$XEDIT
290
1
  9
$CEPSNTYPE
380
0
  9
$PSTYLEMODE
290
1
  9
$FINGERPRINTGUID
  2
{39DB1BDD-BC6C-46D3-A333-DFCC0DC4782D}
  9
$VERSIONGUID
  2
{69EEBB2D-7039-498F-9366-3F994E4A07E7}
  9
$EXTNAMES
290
1
  9
$PSVPSCALE
 40
0.0
  9
$OLESTARTUP
290
0
  9
$SORTENTS
280
127
  9
$INDEXCTL
280
0
  9
$HIDETEXT
280
1
  9
$XCLIPFRAME
280
0
  9
$HALOGAP
280
0
  9
$OBSCOLOR
 70
257
  9
$OBSLTYPE
280
0
  9
$INTERSECTIONDISPLAY
280
0
  9
$INTERSECTIONCOLOR
 70
257
  9
$DIMASSOC
280
2
  9
$PROJECTNAME
  1

  9
$CAMERADISPLAY
290
0
  9
$LENSLENGTH
 40
50.0
  9
$CAMERAHEIGHT
 40
0.0
  9
$STEPSPERSEC
 40
2.0
  9
$STEPSIZE
 40
6.0
  9
$3DDWFPREC
 40
2.0
  9
$PSOLWIDTH
 40
0.25
  9
$PSOLHEIGHT
 40
4.0
  9
$LOFTANG1
 40
1.57079632679
  9
$LOFTANG2
 40
1.57079632679
  9
$LOFTMAG1
 40
0.0
  9
$LOFTMAG2
 40
0.0
  9
$LOFTPARAM
 70
7
  9
$LOFTNORMALS
280
1
  9
$LATITUDE
 40
37.795
  9
$LONGITUDE
 40
-122.394
  9
$NORTHDIRECTION
 40
0.0
  9
$TIMEZONE
 70
-8000
  9
$LIGHTGLYPHDISPLAY
280
1
  9
$TILEMODELIGHTSYNCH
280
1
  9
$CMATERIAL
347
96
  9
$SOLIDHIST
280
1
  9
$SHOWHIST
280
1
  9
$DWFFRAME
280
2
  9
$DGNFRAME
280
0
  9
$REALWORLDSCALE
290
1
  9
$INTERFERECOLOR
 62
1
  9
$INTERFEREOBJVS
345
A3
  9
$INTERFEREVPVS
346
A0
  9
$CSHADOW
280
0
  9
$SHADOWPLANELOCATION
 40
0.0
  0
ENDSEC
  0
SECTION
  2
CLASSES
  0
CLASS
  1
ACDBDICTIONARYWDFLT
  2
AcDbDictionaryWithDefault
  3
ObjectDBX Classes
 90
0
 91
1
280
0
281
0
  0
CLASS
  1
DICTIONARYVAR
  2
AcDbDictionaryVar
  3
ObjectDBX Classes
 90
0
 91
15
280
0
281
0
  0
CLASS
  1
TABLESTYLE
  2
AcDbTableStyle
  3
ObjectDBX Classes
 90
4095
 91
1
280
0
281
0
  0
CLASS
  1
MATERIAL
  2
AcDbMaterial
  3
ObjectDBX Classes
 90
1153
 91
3
280
0
281
0
  0
CLASS
  1
VISUALSTYLE
  2
AcDbVisualStyle
  3
ObjectDBX Classes
 90
4095
 91
26
280
0
281
0
  0
CLASS
  1
SCALE
  2
AcDbScale
  3
ObjectDBX Classes
 90
1153
 91
17
280
0
281
0
  0
CLASS
  1
MLEADERSTYLE
  2
AcDbMLeaderStyle
  3
ACDB_MLEADERSTYLE_CLASS
 90
4095
 91
3
280
0
281
0
  0
CLASS
  1
CELLSTYLEMAP
  2
AcDbCellStyleMap
  3
ObjectDBX Classes
 90
1152
 91
2
280
0
281
0
  0
CLASS
  1
EXACXREFPANELOBJECT
  2
ExAcXREFPanelObject
  3
EXAC_ESW
 90
1025
 91
0
280
0
281
0
  0
CLASS
  1
NPOCOLLECTION
  2
AcDbImpNonPersistentObjectsCollection
  3
ObjectDBX Classes
 90
1153
 91
0
280
0
281
0
  0
CLASS
  1
LAYER_INDEX
  2
AcDbLayerIndex
  3
ObjectDBX Classes
 90
0
 91
0
280
0
281
0
  0
CLASS
  1
SPATIAL_INDEX
  2
AcDbSpatialIndex
  3
ObjectDBX Classes
 90
0
 91
0
280
0
281
0
  0
CLASS
  1
IDBUFFER
  2
AcDbIdBuffer
  3
ObjectDBX Classes
 90
0
 91
0
280
0
281
0
  0
CLASS
  1
DIMASSOC
  2
AcDbDimAssoc
  3
"AcDbDimAssoc|Product Desc:     AcDim ARX App For Dimension|Company:          Autodesk, Inc.|WEB Address:      www.autodesk.com"
 90
0
 91
0
280
0
281
0
  0
CLASS
  1
ACDBSECTIONVIEWSTYLE
  2
AcDbSectionViewStyle
  3
ObjectDBX Classes
 90
1025
 91
1
280
0
281
0
  0
CLASS
  1
ACDBDETAILVIEWSTYLE
  2
AcDbDetailViewStyle
  3
ObjectDBX Classes
 90
1025
 91
1
280
0
281
0
  0
CLASS
  1
IMAGEDEF
  2
AcDbRasterImageDef
  3
ISM
 90
0
 91
1
280
0
281
0
  0
CLASS
  1
RASTERVARIABLES
  2
AcDbRasterVariables
  3
ISM
 90
0
 91
1
280
0
281
0
  0
CLASS
  1
IMAGEDEF_REACTOR
  2
AcDbRasterImageDefReactor
  3
ISM
 90
1
 91
1
280
0
281
0
  0
CLASS
  1
IMAGE
  2
AcDbRasterImage
  3
ISM
 90
2175
 91
1
280
0
281
1
  0
CLASS
  1
PDFDEFINITION
  2
AcDbPdfDefinition
  3
ObjectDBX Classes
 90
1153
 91
1
280
0
281
0
  0
CLASS
  1
PDFUNDERLAY
  2
AcDbPdfReference
  3
ObjectDBX Classes
 90
4095
 91
1
280
0
281
1
  0
CLASS
  1
DWFDEFINITION
  2
AcDbDwfDefinition
  3
ObjectDBX Classes
 90
1153
 91
2
280
0
281
0
  0
CLASS
  1
DWFUNDERLAY
  2
AcDbDwfReference
  3
ObjectDBX Classes
 90
1153
 91
1
280
0
281
1
  0
CLASS
  1
DGNDEFINITION
  2
AcDbDgnDefinition
  3
ObjectDBX Classes
 90
1153
 91
2
280
0
281
0
  0
CLASS
  1
DGNUNDERLAY
  2
AcDbDgnReference
  3
ObjectDBX Classes
 90
1153
 91
1
280
0
281
1
  0
ENDSEC
  0
SECTION
  2
TABLES
  0
TABLE
  2
VPORT
  5
8
330
0
100
AcDbSymbolTable
 70
0
  0
ENDTAB
  0
TABLE
  2
LTYPE
  5
5F
330
0
100
AcDbSymbolTable
 70
7
  0
LTYPE
  5
14
330
5F
100
AcDbSymbolTableRecord
100
AcDbLinetypeTableRecord
  2
ByBlock
 70
0
  3

 72
65
 73
0
 40
0.0
  0
LTYPE
  5
15
330
5F
100
AcDbSymbolTableRecord
100
AcDbLinetypeTableRecord
  2
ByLayer
 70
0
  3

 72
65
 73
0
 40
0.0
  0
LTYPE
  5
16
330
5F
100
AcDbSymbolTableRecord
100
AcDbLinetypeTableRecord
  2
Continuous
 70
0
  3
Solid line
 72
65
 73
0
 40
0.0
  0
LTYPE
  5
1B1
330
5F
100
AcDbSymbolTableRecord
100
AcDbLinetypeTableRecord
  2
CENTER
 70
0
  3
Center ____ _ ____ _ ____ _ ____ _ ____ _ ____
 72
65
 73
4
 40
2.0
 49
1.25
 74
0
 49
-0.25
 74
0
 49
0.25
 74
0
 49
-0.25
 74
0
  0
LTYPE
  5
1B2
330
5F
100
AcDbSymbolTableRecord
100
AcDbLinetypeTableRecord
  2
DASHED
 70
0
  3
Dashed __ __ __ __ __ __ __ __ __ __ __ __ __ _
 72
65
 73
2
 40
0.75
 49
0.5
 74
0
 49
-0.25
 74
0
  0
LTYPE
  5
1B3
330
5F
100
AcDbSymbolTableRecord
100
AcDbLinetypeTableRecord
  2
PHANTOM
 70
0
  3
Phantom ______  __  __  ______  __  __  ______
 72
65
 73
6
 40
2.5
 49
1.25
 74
0
 49
-0.25
 74
0
 49
0.25
 74
0
 49
-0.25
 74
0
 49
0.25
 74
0
 49
-0.25
 74
0
  0
LTYPE
  5
39E
330
5F
100
AcDbSymbolTableRecord
100
AcDbLinetypeTableRecord
  2
HIDDEN
 70
0
  3
Hidden __ __ __ __ __ __ __ __ __ __ __ __ __ __
 72
65
 73
2
 40
9.525
 49
6.35
 74
0
 49
-3.175
 74
0
  0
ENDTAB
  0
TABLE
  2
LAYER
  5
2
330
0
100
AcDbSymbolTable
 70
3
  0
LAYER
  5
10
330
2
100
AcDbSymbolTableRecord
100
AcDbLayerTableRecord
  2
0
 70
0
  6
Continuous
370
-3
390
F
347
98
348
0
  0
LAYER
  5
1B4
330
2
100
AcDbSymbolTableRecord
100
AcDbLayerTableRecord
  2
View Port
 70
0
  6
Continuous
290
0
370
-3
390
F
347
98
348
0
  0
LAYER
  5
21D
330
2
100
AcDbSymbolTableRecord
100
AcDbLayerTableRecord
  2
Defpoints
 70
0
  6
Continuous
290
0
370
-3
390
F
347
98
348
0
  0
ENDTAB
  0
TABLE
  2
STYLE
  5
3
330
0
100
AcDbSymbolTable
 70
3
  0
STYLE
  5
11
330
3
100
AcDbSymbolTableRecord
100
AcDbTextStyleTableRecord
  2
Standard
 70
0
 40
0.0
 41
1.0
 50
0.0
 71
0
 42
0.2
  3
arial.ttf
  4

  0
STYLE
  5
DC
330
3
100
AcDbSymbolTableRecord
100
AcDbTextStyleTableRecord
  2
Annotative
 70
0
 40
0.0
 41
1.0
 50
0.0
 71
0
 42
0.2
  3
arial.ttf
  4

  0
STYLE
  5
178
330
3
100
AcDbSymbolTableRecord
100
AcDbTextStyleTableRecord
  2
Notes
 70
0
 40
3.0
 41
1.0
 50
0.0
 71
0
 42
0.2
  3
arial.ttf
  4

  0
ENDTAB
  0
TABLE
  2
VIEW
  5
6
330
0
100
AcDbSymbolTable
 70
0
  0
ENDTAB
  0
TABLE
  2
UCS
  5
7
330
0
100
AcDbSymbolTable
 70
0
  0
ENDTAB
  0
TABLE
  2
APPID
  5
9
330
0
100
AcDbSymbolTable
 70
12
  0
APPID
  5
12
330
9
100
AcDbSymbolTableRecord
100
AcDbRegAppTableRecord
  2
ACAD
 70
0
  0
APPID
  5
DD
330
9
100
AcDbSymbolTableRecord
100
AcDbRegAppTableRecord
  2
AcadAnnoPO
 70
0
  0
APPID
  5
DE
330
9
100
AcDbSymbolTableRecord
100
AcDbRegAppTableRecord
  2
AcadAnnotative
 70
0
  0
APPID
  5
DF
330
9
100
AcDbSymbolTableRecord
100
AcDbRegAppTableRecord
  2
ACAD_DSTYLE_DIMJAG
 70
0
  0
APPID
  5
E0
330
9
100
AcDbSymbolTableRecord
100
AcDbRegAppTableRecord
  2
ACAD_DSTYLE_DIMTALN
 70
0
  0
APPID
  5
107
330
9
100
AcDbSymbolTableRecord
100
AcDbRegAppTableRecord
  2
ACAD_MLEADERVER
 70
0
  0
APPID
  5
1B5
330
9
100
AcDbSymbolTableRecord
100
AcDbRegAppTableRecord
  2
AcAecLayerStandard
 70
0
  0
APPID
  5
1BA
330
9
100
AcDbSymbolTableRecord
100
AcDbRegAppTableRecord
  2
ACAD_EXEMPT_FROM_CAD_STANDARDS
 70
0
  0
APPID
  5
237
330
9
100
AcDbSymbolTableRecord
100
AcDbRegAppTableRecord
  2
ACAD_DSTYLE_DIMBREAK
 70
0
  0
APPID
  5
28E
330
9
100
AcDbSymbolTableRecord
100
AcDbRegAppTableRecord
  2
ACAD_PSEXT
 70
0
  0
APPID
  5
4B0
330
9
100
AcDbSymbolTableRecord
100
AcDbRegAppTableRecord
  2
ACAD_NAV_VCDISPLAY
 70
0
  0
APPID
  5
4E3
330
9
100
AcDbSymbolTableRecord
100
AcDbRegAppTableRecord
  2
HATCHBACKGROUNDCOLOR
 70
0
  0
ENDTAB
  0
TABLE
  2
DIMSTYLE
  5
A
330
0
100
AcDbSymbolTable
 70
3
100
AcDbDimStyleTable
 71
3
340
242
340
27
340
E1
  0
DIMSTYLE
105
27
330
A
100
AcDbSymbolTableRecord
100
AcDbDimStyleTableRecord
  2
Standard
 70
0
 41
3.0
 42
2.0
 43
9.0
 44
5.0
140
3.0
141
2.0
147
2.0
340
11
1001
ACAD_DSTYLE_DIMJAG
1070
388
1040
38.0
1001
ACAD_DSTYLE_DIMBREAK
1070
391
1040
90.0
1001
ACAD_DSTYLE_DIMTALN
1070
392
1070
0
  0
DIMSTYLE
105
E1
330
A
100
AcDbSymbolTableRecord
100
AcDbDimStyleTableRecord
  2
Annotative
 70
0
 40
0.0
 41
3.0
 42
2.5
 43
10.0
 44
5.0
140
3.0
141
2.0
147
2.0
340
11
1001
AcadAnnotative
1000
AnnotativeData
1002
{
1070
1
1070
1
1002
}
1001
ACAD_DSTYLE_DIMJAG
1070
388
1040
38.0
1001
ACAD_DSTYLE_DIMBREAK
1070
391
1040
90.0
1001
ACAD_DSTYLE_DIMTALN
1070
392
1070
0
  0
DIMSTYLE
105
242
330
A
100
AcDbSymbolTableRecord
100
AcDbDimStyleTableRecord
  2
Civil-Metric
 70
0
 41
3.0
 42
1.5
 43
6.0
 44
3.0
 73
0
 74
0
 77
1
 78
3
 79
2
140
3.0
141
3.0
147
2.0
179
2
271
2
272
2
276
1
340
11
1001
ACAD_DSTYLE_DIMBREAK
1070
391
1040
3.0
1001
ACAD_DSTYLE_DIMJAG
1070
388
1040
38.0
1001
ACAD_DSTYLE_DIMTALN
1070
392
1070
0
  0
ENDTAB
  0
TABLE
  2
BLOCK_RECORD
  5
1
330
0
100
AcDbSymbolTable
 70
4
  0
BLOCK_RECORD
  5
1F
330
1
100
AcDbSymbolTableRecord
100
AcDbBlockTableRecord
  2
*Model_Space
340
530
 70
0
280
1
281
0
  0
BLOCK_RECORD
  5
58
330
1
100
AcDbSymbolTableRecord
100
AcDbBlockTableRecord
  2
*Paper_Space
340
531
 70
0
280
1
281
0
  0
BLOCK_RECORD
  5
238
330
1
100
AcDbSymbolTableRecord
100
AcDbBlockTableRecord
  2
_ArchTick
340
0
 70
0
280
1
281
0
  0
BLOCK_RECORD
  5
23C
330
1
100
AcDbSymbolTableRecord
100
AcDbBlockTableRecord
  2
_Open30
340
0
 70
0
280
1
281
0
  0
ENDTAB
  0
ENDSEC
  0
SECTION
  2
BLOCKS
  0
BLOCK
  5
23A
330
238
100
AcDbEntity
  8
0
100
AcDbBlockBegin
  2
_ArchTick
 70
0
 10
0.0
 20
0.0
 30
0.0
  3
_ArchTick
  1

  0
ENDBLK
  5
23B
330
238
100
AcDbEntity
  8
0
100
AcDbBlockEnd
  0
BLOCK
  5
20
330
1F
100
AcDbEntity
  8
0
100
AcDbBlockBegin
  2
*Model_Space
 70
0
 10
0.0
 20
0.0
 30
0.0
  3
*Model_Space
  1

  0
ENDBLK
  5
21
330
1F
100
AcDbEntity
  8
0
100
AcDbBlockEnd
  0
BLOCK
  5
5A
330
58
100
AcDbEntity
 67
1
  8
0
100
AcDbBlockBegin
  2
*Paper_Space
 70
0
 10
0.0
 20
0.0
 30
0.0
  3
*Paper_Space
  1

  0
ENDBLK
  5
5B
330
58
100
AcDbEntity
 67
1
  8
0
100
AcDbBlockEnd
  0
BLOCK
  5
240
330
23C
100
AcDbEntity
  8
0
100
AcDbBlockBegin
  2
_Open30
 70
0
 10
0.0
 20
0.0
 30
0.0
  3
_Open30
  1

  0
ENDBLK
  5
241
330
23C
100
AcDbEntity
  8
0
100
AcDbBlockEnd
  0
ENDSEC
  0
SECTION
  2
ENTITIES
  0
LWPOLYLINE
  5
CAD00001
  100
AcDbEntity
  3
CAD00001
  8
0
  67
0
  62
256
  100
AcDbPolyline
  90
5
  70
1
  10
-20.14984533333334
  20
-64.24983600000002
  10
20.14984533333334
  20
-64.24983600000002
  10
20.14984533333334
  20
64.24983600000002
  10
-20.14984533333334
  20
64.24983600000002
  10
-20.14984533333334
  20
-64.24983600000002
  0
LWPOLYLINE
  5
CAD00002
  100
AcDbEntity
  3
CAD00002
  8
0
  67
0
  62
256
  100
AcDbPolyline
  90
37
  70
1
  10
-10.299809333333336
  20
61.24489466666668
  10
-10.330553333333336
  20
60.93290000000002
  10
-10.42164666666667
  20
60.632861333333345
  10
-10.569673333333336
  20
60.35616533333335
  10
-10.76837066666667
  20
60.11362933333335
  10
-11.010906666666669
  20
59.914932000000015
  10
-11.28760266666667
  20
59.76690533333335
  10
-11.587641333333336
  20
59.675812000000015
  10
-11.900205333333336
  20
59.645068000000016
  10
-13.500032000000003
  20
59.645068000000016
  10
-13.81202666666667
  20
59.675812000000015
  10
-14.112065333333337
  20
59.76690533333335
  10
-14.388761333333337
  20
59.914932000000015
  10
-14.631297333333338
  20
60.11362933333335
  10
-14.830564000000004
  20
60.35616533333335
  10
-14.978021333333338
  20
60.632861333333345
  10
-15.069114666666671
  20
60.93290000000002
  10
-15.09985866666667
  20
61.24489466666668
  10
-15.09985866666667
  20
61.25514266666668
  10
-15.069114666666671
  20
61.56713733333335
  10
-14.978021333333338
  20
61.867176000000015
  10
-14.830564000000004
  20
62.143872000000016
  10
-14.631297333333338
  20
62.38640800000002
  10
-14.388761333333337
  20
62.585105333333345
  10
-14.112065333333337
  20
62.73313200000002
  10
-13.81202666666667
  20
62.82422533333335
  10
-13.500032000000003
  20
62.85496933333335
  10
-11.900205333333336
  20
62.85496933333335
  10
-11.587641333333336
  20
62.82422533333335
  10
-11.28760266666667
  20
62.73313200000002
  10
-11.010906666666669
  20
62.585105333333345
  10
-10.76837066666667
  20
62.38640800000002
  10
-10.569673333333336
  20
62.143872000000016
  10
-10.42164666666667
  20
61.867176000000015
  10
-10.330553333333336
  20
61.56713733333335
  10
-10.299809333333336
  20
61.25514266666668
  10
-10.299809333333336
  20
61.24489466666668
  0
LWPOLYLINE
  5
CAD00003
  100
AcDbEntity
  3
CAD00003
  8
0
  67
0
  62
256
  100
AcDbPolyline
  90
37
  70
1
  10
15.09985866666667
  20
-61.25514266666668
  10
15.069114666666671
  20
-61.56713733333335
  10
14.978021333333338
  20
-61.867176000000015
  10
14.830564000000004
  20
-62.143872000000016
  10
14.631297333333338
  20
-62.38640800000002
  10
14.388761333333337
  20
-62.585105333333345
  10
14.112065333333337
  20
-62.73313200000002
  10
13.81202666666667
  20
-62.82422533333335
  10
13.500032000000003
  20
-62.85496933333335
  10
11.900205333333336
  20
-62.85496933333335
  10
11.587641333333336
  20
-62.82422533333335
  10
11.28760266666667
  20
-62.73313200000002
  10
11.010906666666669
  20
-62.585105333333345
  10
10.76837066666667
  20
-62.38640800000002
  10
10.569673333333336
  20
-62.143872000000016
  10
10.42164666666667
  20
-61.867176000000015
  10
10.330553333333336
  20
-61.56713733333335
  10
10.299809333333336
  20
-61.25514266666668
  10
10.299809333333336
  20
-61.24489466666668
  10
10.330553333333336
  20
-60.93290000000002
  10
10.42164666666667
  20
-60.632861333333345
  10
10.569673333333336
  20
-60.35616533333335
  10
10.76837066666667
  20
-60.11362933333335
  10
11.010906666666669
  20
-59.914932000000015
  10
11.28760266666667
  20
-59.76690533333335
  10
11.587641333333336
  20
-59.675812000000015
  10
11.900205333333336
  20
-59.645068000000016
  10
13.500032000000003
  20
-59.645068000000016
  10
13.81202666666667
  20
-59.675812000000015
  10
14.112065333333337
  20
-59.76690533333335
  10
14.388761333333337
  20
-59.914932000000015
  10
14.631297333333338
  20
-60.11362933333335
  10
14.830564000000004
  20
-60.35616533333335
  10
14.978021333333338
  20
-60.632861333333345
  10
15.069114666666671
  20
-60.93290000000002
  10
15.09985866666667
  20
-61.24489466666668
  10
15.09985866666667
  20
-61.25514266666668
  0
LWPOLYLINE
  5
CAD00004
  100
AcDbEntity
  3
CAD00004
  8
0
  67
0
  62
256
  100
AcDbPolyline
  90
21
  70
1
  10
-10.441004000000003
  20
42.044697333333346
  10
-10.994965333333337
  20
40.95784000000001
  10
-11.857505333333336
  20
40.09473066666668
  10
-12.944932000000003
  20
39.540769333333344
  10
-14.15021066666667
  20
39.350042666666674
  10
-15.354920000000003
  20
39.540769333333344
  10
-16.44234666666667
  20
40.09473066666668
  10
-17.304886666666672
  20
40.95784000000001
  10
-17.858848000000005
  20
42.044697333333346
  10
-18.050144000000003
  20
43.24997600000001
  10
-17.858848000000005
  20
44.455254666666676
  10
-17.304886666666672
  20
45.54211200000001
  10
-16.44234666666667
  20
46.405221333333344
  10
-15.354920000000003
  20
46.95918266666668
  10
-14.15021066666667
  20
47.14990933333335
  10
-12.944932000000003
  20
46.95918266666668
  10
-11.857505333333336
  20
46.405221333333344
  10
-10.994965333333337
  20
45.54211200000001
  10
-10.441004000000003
  20
44.455254666666676
  10
-10.250277333333337
  20
43.24997600000001
  10
-10.441004000000003
  20
42.044697333333346
  0
LWPOLYLINE
  5
CAD00005
  100
AcDbEntity
  3
CAD00005
  8
0
  67
0
  62
256
  100
AcDbPolyline
  90
21
  70
1
  10
-10.441004000000003
  20
27.04504133333334
  10
-10.994965333333337
  20
25.95761466666667
  10
-11.857505333333336
  20
25.095074666666672
  10
-12.944932000000003
  20
24.54111333333334
  10
-14.15021066666667
  20
24.349817333333338
  10
-15.354920000000003
  20
24.54111333333334
  10
-16.44234666666667
  20
25.095074666666672
  10
-17.304886666666672
  20
25.95761466666667
  10
-17.858848000000005
  20
27.04504133333334
  10
-18.050144000000003
  20
28.249750666666674
  10
-17.858848000000005
  20
29.45502933333334
  10
-17.304886666666672
  20
30.54245600000001
  10
-16.44234666666667
  20
31.404996000000008
  10
-15.354920000000003
  20
31.95895733333334
  10
-14.15021066666667
  20
32.15025333333334
  10
-12.944932000000003
  20
31.95895733333334
  10
-11.857505333333336
  20
31.404996000000008
  10
-10.994965333333337
  20
30.54245600000001
  10
-10.441004000000003
  20
29.45502933333334
  10
-10.250277333333337
  20
28.249750666666674
  10
-10.441004000000003
  20
27.04504133333334
  0
LWPOLYLINE
  5
CAD00006
  100
AcDbEntity
  3
CAD00006
  8
0
  67
0
  62
256
  100
AcDbPolyline
  90
21
  70
1
  10
-10.441004000000003
  20
12.044816000000003
  10
-10.994965333333337
  20
10.957389333333335
  10
-11.857505333333336
  20
10.094849333333336
  10
-12.944932000000003
  20
9.540888000000002
  10
-14.15021066666667
  20
9.350161333333336
  10
-15.354920000000003
  20
9.540888000000002
  10
-16.44234666666667
  20
10.094849333333336
  10
-17.304886666666672
  20
10.957389333333335
  10
-17.858848000000005
  20
12.044816000000003
  10
-18.050144000000003
  20
13.25009466666667
  10
-17.858848000000005
  20
14.455373333333338
  10
-17.304886666666672
  20
15.54223066666667
  10
-16.44234666666667
  20
16.405340000000002
  10
-15.354920000000003
  20
16.959301333333336
  10
-14.15021066666667
  20
17.150028000000002
  10
-12.944932000000003
  20
16.959301333333336
  10
-11.857505333333336
  20
16.405340000000002
  10
-10.994965333333337
  20
15.54223066666667
  10
-10.441004000000003
  20
14.455373333333338
  10
-10.250277333333337
  20
13.25009466666667
  10
-10.441004000000003
  20
12.044816000000003
  0
LWPOLYLINE
  5
CAD00007
  100
AcDbEntity
  3
CAD00007
  8
0
  67
0
  62
256
  100
AcDbPolyline
  90
21
  70
1
  10
-10.441004000000003
  20
-2.955409333333334
  10
-10.994965333333337
  20
-4.042266666666667
  10
-11.857505333333336
  20
-4.905376000000001
  10
-12.944932000000003
  20
-5.459337333333335
  10
-14.15021066666667
  20
-5.650064000000001
  10
-15.354920000000003
  20
-5.459337333333335
  10
-16.44234666666667
  20
-4.905376000000001
  10
-17.304886666666672
  20
-4.042266666666667
  10
-17.858848000000005
  20
-2.955409333333334
  10
-18.050144000000003
  20
-1.7501306666666672
  10
-17.858848000000005
  20
-0.5448520000000001
  10
-17.304886666666672
  20
0.5425746666666668
  10
-16.44234666666667
  20
1.405114666666667
  10
-15.354920000000003
  20
1.9590760000000005
  10
-14.15021066666667
  20
2.1498026666666674
  10
-12.944932000000003
  20
1.9590760000000005
  10
-11.857505333333336
  20
1.405114666666667
  10
-10.994965333333337
  20
0.5425746666666668
  10
-10.441004000000003
  20
-0.5448520000000001
  10
-10.250277333333337
  20
-1.7501306666666672
  10
-10.441004000000003
  20
-2.955409333333334
  0
LWPOLYLINE
  5
CAD00008
  100
AcDbEntity
  3
CAD00008
  8
0
  67
0
  62
256
  100
AcDbPolyline
  90
21
  70
1
  10
1.0834413333333337
  20
42.19955600000001
  10
0.6006466666666668
  20
41.25161600000001
  10
-0.1514426666666667
  20
40.499526666666675
  10
-1.0993826666666668
  20
40.01616266666667
  10
-2.1498026666666674
  20
39.849917333333345
  10
-3.2007920000000007
  20
40.01616266666667
  10
-4.148732000000001
  20
40.499526666666675
  10
-4.900821333333335
  20
41.25161600000001
  10
-5.383616000000002
  20
42.19955600000001
  10
-5.549861333333335
  20
43.24997600000001
  10
-5.383616000000002
  20
44.30039600000001
  10
-4.900821333333335
  20
45.24833600000001
  10
-4.148732000000001
  20
46.00042533333335
  10
-3.2007920000000007
  20
46.48378933333335
  10
-2.1498026666666674
  20
46.65003466666668
  10
-1.0993826666666668
  20
46.48378933333335
  10
-0.1514426666666667
  20
46.00042533333335
  10
0.6006466666666668
  20
45.24833600000001
  10
1.0834413333333337
  20
44.30039600000001
  10
1.2502560000000003
  20
43.24997600000001
  10
1.0834413333333337
  20
42.19955600000001
  0
LWPOLYLINE
  5
CAD00009
  100
AcDbEntity
  3
CAD00009
  8
0
  67
0
  62
256
  100
AcDbPolyline
  90
21
  70
1
  10
15.583792000000004
  20
42.19955600000001
  10
15.100428000000004
  20
41.25161600000001
  10
14.34833866666667
  20
40.499526666666675
  10
13.40039866666667
  20
40.01616266666667
  10
12.34997866666667
  20
39.849917333333345
  10
11.29955866666667
  20
40.01616266666667
  10
10.351618666666669
  20
40.499526666666675
  10
9.599529333333336
  20
41.25161600000001
  10
9.116165333333335
  20
42.19955600000001
  10
8.949920000000002
  20
43.24997600000001
  10
9.116165333333335
  20
44.30039600000001
  10
9.599529333333336
  20
45.24833600000001
  10
10.351618666666669
  20
46.00042533333335
  10
11.29955866666667
  20
46.48378933333335
  10
12.34997866666667
  20
46.65003466666668
  10
13.40039866666667
  20
46.48378933333335
  10
14.34833866666667
  20
46.00042533333335
  10
15.100428000000004
  20
45.24833600000001
  10
15.583792000000004
  20
44.30039600000001
  10
15.750037333333337
  20
43.24997600000001
  10
15.583792000000004
  20
42.19955600000001
  0
LWPOLYLINE
  5
CAD0000A
  100
AcDbEntity
  3
CAD0000A
  8
0
  67
0
  62
256
  100
AcDbPolyline
  90
21
  70
1
  10
1.0834413333333337
  20
27.199330666666672
  10
0.6006466666666668
  20
26.251390666666673
  10
-0.1514426666666667
  20
25.49930133333334
  10
-1.0993826666666668
  20
25.016506666666672
  10
-2.1498026666666674
  20
24.85026133333334
  10
-3.2007920000000007
  20
25.016506666666672
  10
-4.148732000000001
  20
25.49930133333334
  10
-4.900821333333335
  20
26.251390666666673
  10
-5.383616000000002
  20
27.199330666666672
  10
-5.549861333333335
  20
28.249750666666674
  10
-5.383616000000002
  20
29.300740000000008
  10
-4.900821333333335
  20
30.248680000000007
  10
-4.148732000000001
  20
31.00076933333334
  10
-3.2007920000000007
  20
31.48356400000001
  10
-2.1498026666666674
  20
31.64980933333334
  10
-1.0993826666666668
  20
31.48356400000001
  10
-0.1514426666666667
  20
31.00076933333334
  10
0.6006466666666668
  20
30.248680000000007
  10
1.0834413333333337
  20
29.300740000000008
  10
1.2502560000000003
  20
28.249750666666674
  10
1.0834413333333337
  20
27.199330666666672
  0
LWPOLYLINE
  5
CAD0000B
  100
AcDbEntity
  3
CAD0000B
  8
0
  67
0
  62
256
  100
AcDbPolyline
  90
21
  70
1
  10
15.583792000000004
  20
27.199330666666672
  10
15.100428000000004
  20
26.251390666666673
  10
14.34833866666667
  20
25.49930133333334
  10
13.40039866666667
  20
25.016506666666672
  10
12.34997866666667
  20
24.85026133333334
  10
11.29955866666667
  20
25.016506666666672
  10
10.351618666666669
  20
25.49930133333334
  10
9.599529333333336
  20
26.251390666666673
  10
9.116165333333335
  20
27.199330666666672
  10
8.949920000000002
  20
28.249750666666674
  10
9.116165333333335
  20
29.300740000000008
  10
9.599529333333336
  20
30.248680000000007
  10
10.351618666666669
  20
31.00076933333334
  10
11.29955866666667
  20
31.48356400000001
  10
12.34997866666667
  20
31.64980933333334
  10
13.40039866666667
  20
31.48356400000001
  10
14.34833866666667
  20
31.00076933333334
  10
15.100428000000004
  20
30.248680000000007
  10
15.583792000000004
  20
29.300740000000008
  10
15.750037333333337
  20
28.249750666666674
  10
15.583792000000004
  20
27.199330666666672
  0
LWPOLYLINE
  5
CAD0000C
  100
AcDbEntity
  3
CAD0000C
  8
0
  67
0
  62
256
  100
AcDbPolyline
  90
21
  70
1
  10
1.0834413333333337
  20
12.199105333333337
  10
0.6006466666666668
  20
11.25173466666667
  10
-0.1514426666666667
  20
10.499076000000002
  10
-1.0993826666666668
  20
10.016281333333335
  10
-2.1498026666666674
  20
9.850036000000003
  10
-3.2007920000000007
  20
10.016281333333335
  10
-4.148732000000001
  20
10.499076000000002
  10
-4.900821333333335
  20
11.25173466666667
  10
-5.383616000000002
  20
12.199105333333337
  10
-5.549861333333335
  20
13.25009466666667
  10
-5.383616000000002
  20
14.30051466666667
  10
-4.900821333333335
  20
15.248454666666671
  10
-4.148732000000001
  20
16.000544000000005
  10
-3.2007920000000007
  20
16.483338666666672
  10
-2.1498026666666674
  20
16.65015333333334
  10
-1.0993826666666668
  20
16.483338666666672
  10
-0.1514426666666667
  20
16.000544000000005
  10
0.6006466666666668
  20
15.248454666666671
  10
1.0834413333333337
  20
14.30051466666667
  10
1.2502560000000003
  20
13.25009466666667
  10
1.0834413333333337
  20
12.199105333333337
  0
LWPOLYLINE
  5
CAD0000D
  100
AcDbEntity
  3
CAD0000D
  8
0
  67
0
  62
256
  100
AcDbPolyline
  90
21
  70
1
  10
15.583792000000004
  20
12.199105333333337
  10
15.100428000000004
  20
11.25173466666667
  10
14.34833866666667
  20
10.499076000000002
  10
13.40039866666667
  20
10.016281333333335
  10
12.34997866666667
  20
9.850036000000003
  10
11.29955866666667
  20
10.016281333333335
  10
10.351618666666669
  20
10.499076000000002
  10
9.599529333333336
  20
11.25173466666667
  10
9.116165333333335
  20
12.199105333333337
  10
8.949920000000002
  20
13.25009466666667
  10
9.116165333333335
  20
14.30051466666667
  10
9.599529333333336
  20
15.248454666666671
  10
10.351618666666669
  20
16.000544000000005
  10
11.29955866666667
  20
16.483338666666672
  10
12.34997866666667
  20
16.65015333333334
  10
13.40039866666667
  20
16.483338666666672
  10
14.34833866666667
  20
16.000544000000005
  10
15.100428000000004
  20
15.248454666666671
  10
15.583792000000004
  20
14.30051466666667
  10
15.750037333333337
  20
13.25009466666667
  10
15.583792000000004
  20
12.199105333333337
  0
LWPOLYLINE
  5
CAD0000E
  100
AcDbEntity
  3
CAD0000E
  8
0
  67
0
  62
256
  100
AcDbPolyline
  90
21
  70
1
  10
1.0834413333333337
  20
-3.300425333333334
  10
0.6006466666666668
  20
-4.248365333333334
  10
-0.1514426666666667
  20
-5.000454666666668
  10
-1.0993826666666668
  20
-5.483818666666668
  10
-2.1498026666666674
  20
-5.650064000000001
  10
-3.2007920000000007
  20
-5.483818666666668
  10
-4.148732000000001
  20
-5.000454666666668
  10
-4.900821333333335
  20
-4.248365333333334
  10
-5.383616000000002
  20
-3.300425333333334
  10
-5.549861333333335
  20
-2.250005333333334
  10
-5.383616000000002
  20
-1.1995853333333337
  10
-4.900821333333335
  20
-0.2516453333333334
  10
-4.148732000000001
  20
0.5004440000000001
  10
-3.2007920000000007
  20
0.9838080000000002
  10
-2.1498026666666674
  20
1.1500533333333336
  10
-1.0993826666666668
  20
0.9838080000000002
  10
-0.1514426666666667
  20
0.5004440000000001
  10
0.6006466666666668
  20
-0.2516453333333334
  10
1.0834413333333337
  20
-1.1995853333333337
  10
1.2502560000000003
  20
-2.250005333333334
  10
1.0834413333333337
  20
-3.300425333333334
  0
LWPOLYLINE
  5
CAD0000F
  100
AcDbEntity
  3
CAD0000F
  8
0
  67
0
  62
256
  100
AcDbPolyline
  90
21
  70
1
  10
15.583792000000004
  20
-3.300425333333334
  10
15.100428000000004
  20
-4.248365333333334
  10
14.34833866666667
  20
-5.000454666666668
  10
13.40039866666667
  20
-5.483818666666668
  10
12.34997866666667
  20
-5.650064000000001
  10
11.29955866666667
  20
-5.483818666666668
  10
10.351618666666669
  20
-5.000454666666668
  10
9.599529333333336
  20
-4.248365333333334
  10
9.116165333333335
  20
-3.300425333333334
  10
8.949920000000002
  20
-2.250005333333334
  10
9.116165333333335
  20
-1.1995853333333337
  10
9.599529333333336
  20
-0.2516453333333334
  10
10.351618666666669
  20
0.5004440000000001
  10
11.29955866666667
  20
0.9838080000000002
  10
12.34997866666667
  20
1.1500533333333336
  10
13.40039866666667
  20
0.9838080000000002
  10
14.34833866666667
  20
0.5004440000000001
  10
15.100428000000004
  20
-0.2516453333333334
  10
15.583792000000004
  20
-1.1995853333333337
  10
15.750037333333337
  20
-2.250005333333334
  10
15.583792000000004
  20
-3.300425333333334
  0
LWPOLYLINE
  5
CAD00010
  100
AcDbEntity
  3
CAD00010
  8
0
  67
0
  62
256
  100
AcDbPolyline
  90
21
  70
1
  10
12.10915066666667
  20
-36.955426666666675
  10
11.555189333333336
  20
-38.04228400000001
  10
10.692080000000002
  20
-38.90539333333334
  10
9.60522266666667
  20
-39.45935466666668
  10
8.399944000000001
  20
-39.65008133333334
  10
7.194665333333335
  20
-39.45935466666668
  10
6.107808000000001
  20
-38.90539333333334
  10
5.244698666666668
  20
-38.04228400000001
  10
4.690737333333335
  20
-36.955426666666675
  10
4.500010666666668
  20
-35.75014800000001
  10
4.690737333333335
  20
-34.544869333333345
  10
5.244698666666668
  20
-33.45744266666667
  10
6.107808000000001
  20
-32.59490266666668
  10
7.194665333333335
  20
-32.04094133333334
  10
8.399944000000001
  20
-31.850214666666673
  10
9.60522266666667
  20
-32.04094133333334
  10
10.692080000000002
  20
-32.59490266666668
  10
11.555189333333336
  20
-33.45744266666667
  10
12.10915066666667
  20
-34.544869333333345
  10
12.299877333333336
  20
-35.75014800000001
  10
12.10915066666667
  20
-36.955426666666675
  0
LWPOLYLINE
  5
CAD00011
  100
AcDbEntity
  3
CAD00011
  8
0
  67
0
  62
256
  100
AcDbPolyline
  90
21
  70
1
  10
-8.94081066666667
  20
-44.455254666666676
  10
-9.494772000000003
  20
-45.54211200000001
  10
-10.357881333333335
  20
-46.405221333333344
  10
-11.44473866666667
  20
-46.95918266666668
  10
-12.650017333333336
  20
-47.14990933333335
  10
-13.855296000000003
  20
-46.95918266666668
  10
-14.942153333333337
  20
-46.405221333333344
  10
-15.805262666666671
  20
-45.54211200000001
  10
-16.359224000000005
  20
-44.455254666666676
  10
-16.54995066666667
  20
-43.24997600000001
  10
-16.359224000000005
  20
-42.044697333333346
  10
-15.805262666666671
  20
-40.95784000000001
  10
-14.942153333333337
  20
-40.09473066666668
  10
-13.855296000000003
  20
-39.540769333333344
  10
-12.650017333333336
  20
-39.350042666666674
  10
-11.44473866666667
  20
-39.540769333333344
  10
-10.357881333333335
  20
-40.09473066666668
  10
-9.494772000000003
  20
-40.95784000000001
  10
-8.94081066666667
  20
-42.044697333333346
  10
-8.750084000000003
  20
-43.24997600000001
  10
-8.94081066666667
  20
-44.455254666666676
  0
LWPOLYLINE
  5
CAD00012
  100
AcDbEntity
  3
CAD00012
  8
0
  67
0
  62
256
  100
AcDbPolyline
  90
21
  70
1
  10
-8.94081066666667
  20
-29.45502933333334
  10
-9.494772000000003
  20
-30.54245600000001
  10
-10.357881333333335
  20
-31.404996000000008
  10
-11.44473866666667
  20
-31.95895733333334
  10
-12.650017333333336
  20
-32.15025333333334
  10
-13.855296000000003
  20
-31.95895733333334
  10
-14.942153333333337
  20
-31.404996000000008
  10
-15.805262666666671
  20
-30.54245600000001
  10
-16.359224000000005
  20
-29.45502933333334
  10
-16.54995066666667
  20
-28.249750666666674
  10
-16.359224000000005
  20
-27.04504133333334
  10
-15.805262666666671
  20
-25.95761466666667
  10
-14.942153333333337
  20
-25.095074666666672
  10
-13.855296000000003
  20
-24.54111333333334
  10
-12.650017333333336
  20
-24.349817333333338
  10
-11.44473866666667
  20
-24.54111333333334
  10
-10.357881333333335
  20
-25.095074666666672
  10
-9.494772000000003
  20
-25.95761466666667
  10
-8.94081066666667
  20
-27.04504133333334
  10
-8.750084000000003
  20
-28.249750666666674
  10
-8.94081066666667
  20
-29.45502933333334
  0
ENDSEC
  0
SECTION
  2
OBJECTS
  0
DICTIONARY
  5
C
330
0
100
AcDbDictionary
281
1
  3
ACAD_COLOR
350
524
  3
ACAD_GROUP
350
525
  3
ACAD_LAYOUT
350
526
  3
ACAD_MATERIAL
350
527
  3
ACAD_MLEADERSTYLE
350
528
  3
ACAD_MLINESTYLE
350
529
  3
ACAD_PLOTSETTINGS
350
52A
  3
ACAD_PLOTSTYLENAME
350
52C
  3
ACAD_SCALELIST
350
52D
  3
ACAD_TABLESTYLE
350
52E
  3
ACAD_VISUALSTYLE
350
52F
  0
DICTIONARY
  5
524
330
C
100
AcDbDictionary
281
1
  0
DICTIONARY
  5
525
330
C
100
AcDbDictionary
281
1
  0
DICTIONARY
  5
526
330
C
100
AcDbDictionary
281
1
  3
Model
350
530
  3
Layout1
350
531
  0
DICTIONARY
  5
527
330
C
100
AcDbDictionary
281
1
  0
DICTIONARY
  5
528
330
C
100
AcDbDictionary
281
1
  0
DICTIONARY
  5
529
330
C
100
AcDbDictionary
281
1
  0
DICTIONARY
  5
52A
330
C
100
AcDbDictionary
281
1
  0
ACDBPLACEHOLDER
  5
52B
330
52C
  0
ACDBDICTIONARYWDFLT
  5
52C
330
C
100
AcDbDictionary
281
1
  3
Normal
350
52B
100
AcDbDictionaryWithDefault
340
52B
  0
DICTIONARY
  5
52D
330
C
100
AcDbDictionary
281
1
  0
DICTIONARY
  5
52E
330
C
100
AcDbDictionary
281
1
  0
DICTIONARY
  5
52F
330
C
100
AcDbDictionary
281
1
  0
LAYOUT
  5
530
330
526
100
AcDbPlotSettings
  1

  2
DWFx ePlot (XPS Compatible).pc3
  4
ANSI_A_(8.50_x_11.00_Inches)
  6

 40
5.8
 41
17.8
 42
5.8
 43
17.8
 44
215.9
 45
279.4
 46
0.0
 47
0.0
 48
0.0
 49
0.0
140
0.0
141
0.0
142
1.0
143
14.53
 70
11952
 72
0
 73
1
 74
0
  7

 75
0
147
0.069
148
114.98
149
300.29
100
AcDbLayout
  1
Model
 70
1
 71
0
 10
0.0
 20
0.0
 11
12.0
 21
9.0
 12
0.0
 22
0.0
 32
0.0
 14
0.0
 24
0.0
 34
0.0
 15
0.0
 25
0.0
 35
0.0
146
0.0
 13
0.0
 23
0.0
 33
0.0
 16
1.0
 26
0.0
 36
0.0
 17
0.0
 27
1.0
 37
0.0
 76
0
330
1F
  0
LAYOUT
  5
531
330
526
100
AcDbPlotSettings
  1

  2
DWFx ePlot (XPS Compatible).pc3
  4
ANSI_A_(8.50_x_11.00_Inches)
  6

 40
5.8
 41
17.8
 42
5.8
 43
17.8
 44
215.9
 45
279.4
 46
0.0
 47
0.0
 48
0.0
 49
0.0
140
0.0
141
0.0
142
1.0
143
1.0
 70
688
 72
0
 73
1
 74
5
  7
acad.ctb
 75
16
147
1.0
148
0.0
149
0.0
100
AcDbLayout
  1
Layout1
 70
1
 71
1
 10
-0.7
 20
-0.23
 11
10.3
 21
8.27
 12
0.0
 22
0.0
 32
0.0
 14
0.63
 24
0.8
 34
0.0
 15
9.0
 25
7.2
 35
0.0
146
0.0
 13
0.0
 23
0.0
 33
0.0
 16
1.0
 26
0.0
 36
0.0
 17
0.0
 27
1.0
 37
0.0
 76
0
330
58
  0
ENDSEC
  0
EOF
